<svg xmlns="http://www.w3.org/2000/svg" width="14.644" height="20.195" viewBox="0 0 14.644 20.195"><defs><style>.a{fill:#d1345b;}</style></defs><path class="a" d="M84.875,16.374l-.985-1.849V9.959A6.213,6.213,0,0,0,79.409,4V1.721a1.721,1.721,0,1,0-3.442,0V4a6.213,6.213,0,0,0-4.481,5.959v4.566L70.5,16.374a1.138,1.138,0,0,0,1,1.673h3.911a2.275,2.275,0,0,0,4.543,0H83.87a1.138,1.138,0,0,0,1-1.673Zm-8-14.653a.81.81,0,1,1,1.621,0V3.81a6.229,6.229,0,0,0-1.621,0ZM72.4,9.959a5.291,5.291,0,0,1,10.582,0v4.19H72.4Zm5.291,9.325a1.366,1.366,0,0,1-1.358-1.237h2.717A1.366,1.366,0,0,1,77.688,19.284Zm6.378-2.258a.224.224,0,0,1-.2.111H71.506a.228.228,0,0,1-.2-.335l.929-1.743H83.142l.929,1.743A.224.224,0,0,1,84.065,17.027Z" transform="translate(-70.366)"/><g transform="translate(3.244 5.881)"><path class="a" d="M156.7,149.113a4.082,4.082,0,0,0-4.078,4.078.455.455,0,0,0,.911,0,3.171,3.171,0,0,1,3.167-3.167.455.455,0,1,0,0-.911Z" transform="translate(-152.622 -149.113)"/></g></svg>