<svg xmlns="http://www.w3.org/2000/svg" width="20.85" height="18.374" viewBox="0 0 20.85 18.374"><defs><style>.a{fill:#61c9a8;}</style></defs><path class="a" d="M350.925,385.148a2.054,2.054,0,1,0,2.054,2.054A2.054,2.054,0,0,0,350.925,385.148Zm0,3.188a1.134,1.134,0,1,1,1.134-1.134,1.134,1.134,0,0,1-1.134,1.134Zm0,0" transform="translate(-336.025 -370.882)"/><path class="a" d="M20.39.607H4.076L3.792-.56A2.264,2.264,0,0,0,1.579-2.29H.46A.46.46,0,0,0,0-1.83a.46.46,0,0,0,.46.46H1.579A1.346,1.346,0,0,1,2.9-.345L5.128,8.771A2.258,2.258,0,0,0,7.34,10.492h9.542A2.256,2.256,0,0,0,19.1,8.734l1.738-7.576A.448.448,0,0,0,20.75.774a.455.455,0,0,0-.36-.168ZM18.209,8.531a1.338,1.338,0,0,1-1.322,1.041H7.34a1.346,1.346,0,0,1-1.318-1.02L4.3,1.527H19.818Zm0,0" transform="translate(0 2.29)"/><path class="a" d="M182.03,385.148a2.054,2.054,0,1,0,2.054,2.054A2.054,2.054,0,0,0,182.03,385.148Zm0,3.188a1.134,1.134,0,1,1,1.134-1.134,1.134,1.134,0,0,1-1.134,1.134Zm0,0" transform="translate(-173.349 -370.882)"/></svg>