<?xml version="1.0"?>
<svg xmlns="http://www.w3.org/2000/svg" id="Capa_1" enable-background="new 0 0 512 512" height="512px" viewBox="0 0 512 512" width="512px" class=""><g><g><path d="m434.005 43.926h-86.603c-21.588-26.619-54.539-43.666-91.402-43.666s-69.814 17.047-91.402 43.666h-86.603c-43.007 0-77.995 34.988-77.995 77.994v389.82h512v-389.82c0-43.006-34.988-77.994-77.995-77.994zm-178.005-13.666c46.742 0 85.056 36.774 87.521 82.913h-72.521v-50.439h-30v50.438h-72.521c2.466-46.138 40.779-82.912 87.521-82.912zm226 451.481h-211v-96.574h-30v96.574h-211v-359.821c0-26.464 21.53-47.995 47.995-47.995h68.894c-5.5 13.594-8.536 28.439-8.536 43.981v25.265h235.295v-25.265c0-15.542-3.036-30.387-8.536-43.981h68.894c26.465 0 47.995 21.53 47.995 47.995v359.821z" data-original="#000000" class="active-path" data-old_color="#000000" fill="#61C9A8"/><path d="m150.868 179.929c-38.15 0-69.188 31.038-69.188 69.188v152.711c0 28.223 22.96 51.183 51.183 51.183 23.779 0 44.25-16.152 49.78-39.279l35.517-148.523c4.957-20.73.228-42.217-12.976-58.95s-33.001-26.33-54.316-26.33zm38.113 78.302-35.517 148.524c-2.289 9.571-10.76 16.256-20.602 16.256-11.68 0-21.183-9.502-21.183-21.183v-152.711c0-21.608 17.58-39.188 39.188-39.188 12.073 0 23.286 5.436 30.764 14.913 7.479 9.478 10.159 21.648 7.35 33.389z" data-original="#000000" class="active-path" data-old_color="#000000" fill="#61C9A8"/><path d="m361.132 179.929c-21.314 0-41.111 9.597-54.315 26.33-13.203 16.733-17.933 38.22-12.976 58.95l35.517 148.523c5.53 23.127 26 39.279 49.779 39.279h.001c28.223 0 51.183-22.96 51.183-51.183v-152.711c-.001-38.15-31.039-69.188-69.189-69.188zm39.188 221.899c0 11.681-9.503 21.183-21.184 21.183-9.841 0-18.313-6.685-20.602-16.256l-35.517-148.523c-2.808-11.742-.129-23.912 7.35-33.389s18.691-14.913 30.764-14.913c21.608 0 39.188 17.58 39.188 39.188v152.71z" data-original="#000000" class="active-path" data-old_color="#000000" fill="#61C9A8"/></g></g> </svg>
