<svg id="_x33_0" enable-background="new 0 0 64 64" height="512" viewBox="0 0 64 64" width="512" xmlns="http://www.w3.org/2000/svg"><g><g><g><g><path d="m23.28 40.97c-.54.13-1.08.29-1.61.46-2.46.79-4.8 1.9-6.95 3.29-1.7 1.07-3.28 2.32-4.72 3.72-1.04 1.01-2 2.09-2.88 3.25-1.2 1.54-2.24 3.22-3.12 5.01-.82 1.68-1.49 3.45-2 5.3h4c1.04-3.27 2.72-6.22 4.87-8.75 1.91-2.25 4.19-4.16 6.73-5.64 2.24-1.31 4.67-2.3 7.23-2.9 1.48-.36 3-.58 4.55-.67l.14-4.01c-1.19.05-2.37.17-3.52.36-.92.15-1.83.34-2.72.58z" fill="#b4dd7f"/></g><g><path d="m57.07 51.93c-.06-.09-.12-.17-.19-.24-2.11-2.77-4.69-5.12-7.6-6.97-1.67-1.09-3.46-1.99-5.33-2.71-1.05-.41-2.13-.76-3.23-1.04-1.54-.41-3.11-.69-4.72-.84-.5-.04-1.01-.08-1.52-.1l.14 4.01c1.55.09 3.07.31 4.55.67 2.56.6 4.99 1.59 7.23 2.9 2.54 1.48 4.82 3.39 6.73 5.64 2.15 2.53 3.83 5.48 4.87 8.75h4c-1.02-3.72-2.71-7.12-4.93-10.07z" fill="#b4dd7f"/></g></g><g><path d="m29.38 44.04-.3 8.72c-1.84 1.03-3.08 2.99-3.08 5.24 0 1.54.58 2.94 1.53 4h-21.53c1.04-3.27 2.72-6.22 4.87-8.75 1.91-2.25 4.19-4.16 6.73-5.64 2.24-1.31 4.67-2.3 7.23-2.9 1.48-.36 3-.58 4.55-.67z" fill="#69d6f4"/></g><g><path d="m58 62h-21.53c.95-1.06 1.53-2.46 1.53-4 0-2.25-1.24-4.21-3.08-5.24l-.3-8.72c1.55.09 3.07.31 4.55.67 2.56.6 4.99 1.59 7.23 2.9 2.54 1.48 4.82 3.39 6.73 5.64 2.15 2.53 3.83 5.48 4.87 8.75z" fill="#69d6f4"/></g><g><path d="m34.62 44.04.3 8.72c-.86-.49-1.86-.76-2.92-.76s-2.06.27-2.92.76l.3-8.72.14-4.01.41-12.03c.02-.56.26-1.06.63-1.42s.88-.58 1.44-.58c1.12 0 2.03.88 2.07 2l.41 12.03z" fill="#ccd1d9"/></g><g><path d="m38 58c0 1.54-.58 2.94-1.53 4h-8.94c-.95-1.06-1.53-2.46-1.53-4 0-2.25 1.24-4.21 3.08-5.24.86-.49 1.86-.76 2.92-.76s2.06.27 2.92.76c1.84 1.03 3.08 2.99 3.08 5.24z" fill="#aab2bd"/></g><g><path d="m11.44 24.75 1.41.82v.01l-.27 1.09c-.22.86-.71 1.61-1.38 2.14-.44.36-.96.63-1.53.77l-.37.09c-1.51.38-2.8 1.23-3.73 2.38l-.16-.11c-.88-.59-1.41-1.57-1.41-2.63 0-.84.33-1.64.93-2.24.68-.68 1.07-1.62 1.07-2.59 0-.96-.33-1.89-.92-2.64l-1.77-2.2c-.85-1.06-1.31-2.38-1.31-3.74 0-.6.09-1.19.26-1.76l1.09-3.54c.79-2.56 2.37-4.7 4.41-6.22 2.05-1.51 4.56-2.38 7.24-2.38 5.35 0 10.07 3.49 11.65 8.6l1.09 3.54c.17.57.26 1.16.26 1.76 0 1.36-.46 2.68-1.31 3.74l-1.77 2.2c-.59.75-.92 1.68-.92 2.64 0 .97.39 1.91 1.07 2.59.6.6.93 1.4.93 2.24 0 1.06-.53 2.04-1.41 2.63l-.16.11c-.93-1.15-2.22-2-3.73-2.38l-.37-.09c-.57-.14-1.09-.41-1.53-.77-.67-.53-1.16-1.28-1.38-2.14l-.27-1.09v-.01c.51-.2.98-.48 1.41-.82 2.17-1.74 3.44-4.37 3.44-7.15v-2.34c0-1.4-.74-2.7-1.94-3.43l-.49-.29c-.99-.59-1.75-1.49-2.18-2.54h-6.39l-.77.52c-1.39.92-2.23 2.48-2.23 4.16v3.92c0 1.39.32 2.74.91 3.96.59 1.23 1.45 2.32 2.53 3.19z" fill="#b27946"/></g><g><path d="m54.77 29.55-.29-.05c-.62-.13-1.18-.39-1.66-.77-.7-.54-1.21-1.3-1.43-2.19l-.24-.96v-.01c.51-.2.98-.48 1.41-.82 2.17-1.74 3.44-4.37 3.44-7.15v-2.34c0-1.4-.74-2.7-1.94-3.43l-.49-.29c-.99-.59-1.75-1.49-2.18-2.54h-6.39l-.77.52c-1.39.92-2.23 2.48-2.23 4.16v3.92c0 1.39.32 2.74.91 3.96.59 1.23 1.45 2.32 2.53 3.19l1.41.82v.01l-.24.96c-.22.89-.74 1.66-1.44 2.19-.48.38-1.04.64-1.65.77l-.29.05c-1.61.32-3.04 1.06-4.2 2.09-.65-.59-1.03-1.44-1.03-2.33 0-.84.33-1.64.93-2.24.68-.68 1.07-1.62 1.07-2.59 0-.96-.33-1.89-.92-2.64l-1.77-2.2c-.85-1.06-1.31-2.38-1.31-3.74 0-.6.09-1.19.26-1.76l1.09-3.54c.79-2.56 2.37-4.7 4.41-6.22 2.05-1.51 4.56-2.38 7.24-2.38 5.35 0 10.07 3.49 11.65 8.6l1.09 3.54c.17.57.26 1.16.26 1.76 0 1.36-.46 2.68-1.31 3.74l-1.77 2.2c-.59.75-.92 1.68-.92 2.64 0 .97.39 1.91 1.07 2.59.6.6.93 1.4.93 2.24 0 .89-.38 1.74-1.03 2.33-1.16-1.03-2.59-1.77-4.2-2.09z" fill="#656d78"/></g><g><path d="m11.62 30.49c.22.89 1.02 1.51 1.94 1.51h2.88c.92 0 1.72-.62 1.94-1.51l.41-1.67.01-.01c.44.36.96.63 1.53.77l.37.09c1.51.38 2.8 1.23 3.73 2.38.99 1.21 1.57 2.76 1.57 4.42v1.53h-4.1c.07.4.1.81.1 1.22 0 .75-.11 1.5-.33 2.21-2.46.79-4.8 1.9-6.95 3.29-1.7 1.07-3.28 2.32-4.72 3.72v-2.5c0-.62-.14-1.23-.42-1.78l-.78-1.57c-.53-1.05-.8-2.2-.8-3.37 0-.41.03-.82.1-1.22h-4.1v-1.53c0-1.66.58-3.21 1.57-4.42.93-1.15 2.22-2 3.73-2.38l.37-.09c.57-.14 1.09-.41 1.53-.77l.01.01z" fill="#fcd770"/></g><g><path d="m56.88 51.69c-2.11-2.77-4.69-5.12-7.6-6.97-1.67-1.09-3.46-1.99-5.33-2.71l.52-1.33c.49.21 1.02.32 1.58.32.62 0 1.24-.15 1.8-.43l1.15-.57 1.15.57c.56.28 1.18.43 1.8.43 1.12 0 2.13-.45 2.87-1.18.01-.01.02-.02.02-.03l1.02 1.36c1.39 1.85 2.14 4.1 2.14 6.42 0 1.51-.32 3-.93 4.36-.06-.09-.12-.17-.19-.24z" fill="#ff826e"/></g><g><path d="m52.82 28.73c.48.38 1.04.64 1.66.77l.29.05c1.61.32 3.04 1.06 4.2 2.09 1.78 1.58 2.92 3.86 3.01 6.36h-6.12c-.18.68-.53 1.3-1.02 1.79 0 .01-.01.02-.02.03-.74.73-1.75 1.18-2.87 1.18-.62 0-1.24-.15-1.8-.43l-1.15-.57-1.15.57c-.56.28-1.18.43-1.8.43-.56 0-1.09-.11-1.58-.32l-.52 1.33c-1.05-.41-2.13-.76-3.23-1.04-1.54-.41-3.11-.69-4.72-.84v-1.75c0-2.65 1.16-5.08 3.03-6.74 1.16-1.03 2.59-1.77 4.2-2.09l.29-.05c.61-.13 1.17-.39 1.65-.77l.01.01.44 1.75c.22.89 1.02 1.51 1.94 1.51h2.88c.92 0 1.72-.62 1.94-1.51z" fill="#ff826e"/></g><g><path d="m62 38.38v23.62c-1.02-3.72-2.71-7.12-4.93-10.07.61-1.36.93-2.85.93-4.36 0-2.32-.75-4.57-2.14-6.42l-1.02-1.36c.49-.49.84-1.11 1.02-1.79h6.12c.02.13.02.25.02.38z" fill="#f0d0b4"/></g><g><path d="m21.9 38h4.1v2.39c-.92.15-1.83.34-2.72.58-.54.13-1.08.29-1.61.46.22-.71.33-1.46.33-2.21 0-.41-.03-.82-.1-1.22z" fill="#f0d0b4"/></g><g><path d="m7.12 51.69c-1.2 1.54-2.24 3.22-3.12 5.01v-18.7h4.1c-.07.4-.1.81-.1 1.22 0 1.17.27 2.32.8 3.37l.78 1.57c.28.55.42 1.16.42 1.78v2.5c-1.04 1.01-2 2.09-2.88 3.25z" fill="#f0d0b4"/></g><g><path d="m15 26c.74 0 1.47-.15 2.15-.43v.01l.27 1.09c.22.86.71 1.61 1.38 2.14l-.01.01-.41 1.67c-.22.89-1.02 1.51-1.94 1.51h-2.88c-.92 0-1.72-.62-1.94-1.51l-.41-1.67-.01-.01c.67-.53 1.16-1.28 1.38-2.14l.27-1.09v-.01c.68.28 1.41.43 2.15.43z" fill="#f0d0b4"/></g><g><path d="m22 15.26v2.34c0 2.78-1.27 5.41-3.44 7.15-.43.34-.9.62-1.41.82-.68.28-1.41.43-2.15.43s-1.47-.15-2.15-.43l-1.41-.82c-1.08-.87-1.94-1.96-2.53-3.19-.59-1.22-.91-2.57-.91-3.96v-3.92c0-1.68.84-3.24 2.23-4.16l.77-.52h6.39c.43 1.05 1.19 1.95 2.18 2.54l.49.29c1.2.73 1.94 2.03 1.94 3.43z" fill="#f0d0b4"/></g><g><path d="m51.39 26.54c.22.89.73 1.65 1.43 2.19l-.44 1.76c-.22.89-1.02 1.51-1.94 1.51h-2.88c-.92 0-1.72-.62-1.94-1.51l-.44-1.75-.01-.01c.7-.53 1.22-1.3 1.44-2.19l.24-.96v-.01c.68.28 1.41.43 2.15.43s1.47-.15 2.15-.43v.01z" fill="#f0d0b4"/></g><g><path d="m56 15.26v2.34c0 2.78-1.27 5.41-3.44 7.15-.43.34-.9.62-1.41.82-.68.28-1.41.43-2.15.43s-1.47-.15-2.15-.43l-1.41-.82c-1.08-.87-1.94-1.96-2.53-3.19-.59-1.22-.91-2.57-.91-3.96v-3.92c0-1.68.84-3.24 2.23-4.16l.77-.52h6.39c.43 1.05 1.19 1.95 2.18 2.54l.49.29c1.2.73 1.94 2.03 1.94 3.43z" fill="#f0d0b4"/></g></g><g><path d="m13 21v2h2c1.615 0 3.067-.897 3.789-2.342l.105-.211-1.789-.895-.105.212c-.381.762-1.147 1.236-2 1.236z"/><path d="m15.707 11.293c-1.101-1.101-1.707-2.564-1.707-4.121v-.172h-2v.172c0 2.092.814 4.058 2.293 5.535z"/><path d="m47 21v2h2c1.615 0 3.067-.897 3.789-2.342l.105-.211-1.789-.895-.105.212c-.381.762-1.147 1.236-2 1.236z"/><path d="m49.707 11.293c-1.101-1.101-1.707-2.564-1.707-4.121v-.172h-2v.172c0 2.092.814 4.058 2.293 5.535z"/><path d="m61 29.309c0-1.11-.433-2.155-1.218-2.941-.497-.498-.782-1.185-.782-1.888 0-.729.25-1.442.706-2.012l1.763-2.204c.987-1.234 1.531-2.784 1.531-4.364 0-.696-.104-1.388-.309-2.055l-1.088-3.538c-1.713-5.567-6.778-9.307-12.603-9.307s-10.89 3.74-12.603 9.308l-1.089 3.538c-.204.667-.308 1.358-.308 2.054 0 1.58.544 3.13 1.531 4.364l1.763 2.203c.456.571.706 1.285.706 2.013 0 .702-.285 1.39-.782 1.887-.785.786-1.218 1.831-1.218 2.942 0 .813.253 1.596.69 2.267-1.105 1.189-1.924 2.636-2.351 4.231l-.27-7.842c-.058-1.663-1.406-2.965-3.069-2.965s-3.011 1.302-3.068 2.965l-.384 11.14c-.518.038-1.038.066-1.548.128v-2.768c0-1.541-.442-2.994-1.213-4.231.767-.771 1.213-1.814 1.213-2.925 0-1.11-.433-2.155-1.218-2.941-.497-.498-.782-1.185-.782-1.888 0-.729.25-1.442.706-2.012l1.763-2.204c.987-1.234 1.531-2.784 1.531-4.364 0-.696-.104-1.388-.309-2.055l-1.088-3.538c-1.713-5.567-6.778-9.307-12.603-9.307s-10.89 3.74-12.603 9.308l-1.089 3.538c-.204.667-.308 1.358-.308 2.054 0 1.58.544 3.13 1.531 4.364l1.763 2.203c.456.571.706 1.285.706 2.013 0 .702-.285 1.39-.782 1.887-.785.786-1.218 1.831-1.218 2.942s.446 2.154 1.213 2.926c-.771 1.237-1.213 2.689-1.213 4.231v20.034c-.795 1.664-1.466 3.407-1.965 5.237l-.344 1.263h62.309v-24.622c0-2.596-1.015-5-2.69-6.803.437-.67.69-1.454.69-2.266zm-21.368-1.528c.869-.868 1.368-2.071 1.368-3.301 0-1.18-.406-2.338-1.144-3.262l-1.763-2.204c-.705-.879-1.093-1.986-1.093-3.114 0-.497.074-.991.22-1.467l1.088-3.538c1.454-4.722 5.751-7.895 10.692-7.895s9.238 3.173 10.691 7.896l1.088 3.538c.147.475.221.969.221 1.466 0 1.128-.388 2.234-1.093 3.114l-1.764 2.205c-.737.924-1.143 2.082-1.143 3.261 0 1.229.499 2.433 1.367 3.301.408.408.633.95.633 1.528 0 .323-.078.637-.214.924-1.119-.798-2.412-1.378-3.824-1.661l-.284-.057c-1.131-.226-2.042-1.095-2.321-2.215l-.046-.183c.305-.173.6-.365.876-.586 2.423-1.939 3.813-4.831 3.813-7.934v-2.332c0-1.746-.93-3.389-2.428-4.287l-.485-.291c-1.287-.773-2.087-2.186-2.087-3.687h-2c0 2.199 1.171 4.269 3.059 5.401l.485.291c.898.539 1.456 1.525 1.456 2.573v2.332c0 2.492-1.117 4.815-3.063 6.373-1.661 1.328-4.213 1.328-5.874 0-1.946-1.558-3.063-3.881-3.063-6.373v-3.921c0-1.34.666-2.584 1.781-3.328l.773-.516-1.109-1.664-.773.516c-1.673 1.116-2.672 2.982-2.672 4.992v3.921c0 3.104 1.39 5.995 3.814 7.936.276.22.571.412.876.585l-.046.184c-.279 1.119-1.19 1.988-2.322 2.214l-.283.057c-1.413.283-2.705.862-3.824 1.661-.137-.288-.215-.602-.215-.925 0-.578.225-1.12.632-1.528zm7.939-.955c.469.103.945.174 1.429.174s.96-.071 1.429-.174c.222.859.672 1.623 1.274 2.238l-.295 1.179c-.111.445-.51.757-.97.757h-2.877c-.459 0-.859-.312-.97-.757l-.295-1.18c.603-.614 1.053-1.378 1.275-2.237zm-4.14 3.707.283-.057c.281-.056.551-.143.813-.245l.124.497c.335 1.337 1.532 2.272 2.911 2.272h2.877c1.379 0 2.576-.935 2.911-2.272l.124-.495c.262.102.532.188.813.245l.283.057c3.267.654 5.748 3.271 6.31 6.467h-3.884c0-.015.005-.03.005-.045 0-.779-.184-1.56-.533-2.257l-.573-1.146-1.789.895.573 1.146c.21.419.321.889.321 1.36 0 1.679-1.366 3.045-3.045 3.045-.47 0-.941-.111-1.362-.321l-1.593-.797-1.593.797c-.421.21-.892.321-1.362.321-1.679 0-3.045-1.366-3.045-3.045 0-.471.111-.941.322-1.362l.573-1.146-1.789-.895-.573 1.146c-.349.698-.533 1.478-.533 2.257 0 1.336.531 2.543 1.381 3.447-1.738-.538-3.533-.942-5.381-1.168v-.856c0-3.8 2.705-7.099 6.431-7.845zm-35.38 4.151-.614 1.841c-.051.155-.074.317-.117.475h-2.32v-.534c0-2.759 1.869-5.152 4.546-5.821l.369-.093c.22-.055.433-.125.64-.207l.096.384c.335 1.336 1.532 2.271 2.911 2.271h2.877c1.379 0 2.576-.935 2.911-2.272l.096-.383c.207.082.42.152.64.207l.371.093c2.674.668 4.543 3.062 4.543 5.821v.534h-2.32c-.043-.158-.065-.32-.117-.476l-.614-1.841-1.897.633.614 1.841c.221.667.334 1.362.334 2.065 0 .488-.072.971-.181 1.446-3.615 1.229-6.936 3.103-9.819 5.517v-.241c0-.772-.183-1.546-.528-2.236l-.783-1.565c-.451-.903-.689-1.913-.689-2.921 0-.703.113-1.397.335-2.064l.614-1.841zm6.949-7.684c.483 0 .958-.071 1.426-.174l.022.089c.214.857.649 1.618 1.235 2.233l-.274 1.095c-.112.445-.511.757-.971.757h-2.877c-.459 0-.859-.312-.97-.757l-.274-1.096c.586-.615 1.02-1.376 1.235-2.233l.022-.089c.468.104.943.175 1.426.175zm2.773 19.359-1.462-1.462c1.996-1.157 4.134-2.085 6.387-2.739l.774 1.868c-1.994.564-3.905 1.348-5.699 2.333zm-3.2-.372 1.43 1.43c-1.996 1.301-3.806 2.867-5.397 4.639l-1.896-.785c1.703-2.03 3.681-3.801 5.863-5.284zm13.766-.847-.243 7.053c-1.866 1.259-3.096 3.392-3.096 5.807 0 1.048.237 2.07.678 3h-18.252c3.345-8.725 11.506-14.923 20.913-15.86zm-1.339 12.86c0-2.757 2.243-5 5-5s5 2.243 5 5c0 1.093-.373 2.136-1.026 3h-7.949c-.652-.864-1.025-1.907-1.025-3zm12.341-16.336-.781 1.884c-.974-.198-1.966-.331-2.969-.421l-.069-2.011c1.297.104 2.573.279 3.819.548zm15.312-.461.407.543c1.251 1.669 1.94 3.736 1.94 5.821 0 .787-.104 1.559-.29 2.312-2.82-3.327-6.303-6.032-10.252-7.903.638-.053 1.269-.221 1.842-.508l.7-.35.699.35c.697.348 1.478.532 2.256.532.994 0 1.916-.299 2.698-.797zm-6.656 6.214 1.441-1.441c2.18 1.481 4.135 3.273 5.836 5.301l-1.88.779c-1.592-1.772-3.401-3.338-5.397-4.639zm-.301-2.527-1.469 1.469c-1.794-.985-3.705-1.769-5.7-2.333l.777-1.876c2.255.655 4.396 1.582 6.392 2.74zm-11.792 7.303-.243-7.053c9.407.937 17.568 7.135 20.913 15.86h-18.252c.441-.93.678-1.952.678-3 0-2.415-1.23-4.548-3.096-5.807zm18.827 1.474 1.819-.753c1.749 2.42 3.137 5.135 4.087 8.086h-1.937c-.937-2.674-2.287-5.138-3.969-7.333zm3.467-1.885c.522-1.348.802-2.76.802-4.215 0-2.515-.831-5.009-2.34-7.021l-.553-.737c.175-.254.324-.526.45-.81h4.443v17.5c-.798-1.668-1.739-3.242-2.802-4.717zm-26.198-24.782c.58 0 1.049.454 1.069 1.033l.801 23.228c-.596-.165-1.221-.261-1.87-.261s-1.274.096-1.871.261l.801-23.228c.021-.579.49-1.033 1.07-1.033zm-3.591 16.127c-1.003.09-1.995.223-2.969.421l-.779-1.881c1.246-.269 2.521-.449 3.818-.553zm-5.469-3.097c.026-.269.06-.537.06-.808 0-.075-.016-.147-.018-.222h2.018v.56c-.696.131-1.381.292-2.06.47zm-17.94-10.721c0-.577.225-1.119.632-1.527.869-.869 1.368-2.072 1.368-3.302 0-1.18-.406-2.338-1.144-3.262l-1.763-2.204c-.705-.879-1.093-1.986-1.093-3.114 0-.497.074-.991.22-1.467l1.088-3.538c1.454-4.722 5.751-7.895 10.692-7.895s9.238 3.173 10.691 7.896l1.088 3.538c.147.475.221.969.221 1.466 0 1.128-.388 2.234-1.093 3.114l-1.764 2.205c-.737.924-1.143 2.082-1.143 3.261 0 1.229.499 2.433 1.367 3.301.408.408.633.95.633 1.528 0 .504-.183.976-.492 1.356-.975-.926-2.189-1.615-3.567-1.959l-.371-.093c-1.077-.27-1.913-1.106-2.183-2.184l-.078-.311c.305-.173.6-.365.876-.586 2.425-1.94 3.815-4.832 3.815-7.935v-2.332c0-1.746-.93-3.389-2.428-4.287l-.485-.291c-1.287-.773-2.087-2.186-2.087-3.687h-2c0 2.199 1.171 4.269 3.059 5.401l.485.291c.898.539 1.456 1.525 1.456 2.573v2.332c0 2.492-1.117 4.815-3.063 6.373-1.661 1.328-4.213 1.328-5.874 0-1.946-1.558-3.063-3.881-3.063-6.373v-3.921c0-1.34.666-2.584 1.781-3.328l.773-.516-1.109-1.664-.773.516c-1.673 1.116-2.672 2.982-2.672 4.992v3.921c0 3.104 1.39 5.995 3.814 7.936.276.22.571.412.876.586l-.078.311c-.27 1.077-1.105 1.914-2.184 2.184l-.368.091c-1.378.344-2.593 1.034-3.568 1.959-.309-.38-.492-.852-.492-1.355zm0 9.691h2.018c-.002.074-.018.147-.018.222 0 1.317.312 2.637.9 3.815l.783 1.565c.208.415.317.879.317 1.342v2.076c-1.487 1.487-2.836 3.118-4 4.898zm2.438 13.908 1.832.759c-1.683 2.195-3.033 4.659-3.97 7.333h-1.96c.949-2.954 2.348-5.67 4.098-8.092z"/></g></g></svg>