<svg xmlns="http://www.w3.org/2000/svg" xmlns:xlink="http://www.w3.org/1999/xlink" width="403.294" height="146.019" viewBox="0 0 403.294 146.019"><defs><style>.a{fill:#61c9a8;}.b{filter:url(#a);}</style><filter id="a" x="0" y="0" width="403.294" height="146.019" filterUnits="userSpaceOnUse"><feOffset dy="2" input="SourceAlpha"/><feGaussianBlur stdDeviation="15.5" result="b"/><feFlood flood-color="#61c9a8" flood-opacity="0.71"/><feComposite operator="in" in2="b"/><feComposite in="SourceGraphic"/></filter></defs><g class="b" transform="matrix(1, 0, 0, 1, 0, 0)"><path class="a" d="M-6600.852,71.854c-2.084.278-25.752,2.721-46.722-26.4-14.763-20.506-58.7-25.3-85.9-26.247l132.622.028,132.622-.028c-27.2.943-71.136,5.742-85.9,26.247-17.291,24.014-36.418,26.566-43.765,26.566A23.08,23.08,0,0,1-6600.852,71.854ZM-6756,19.2s9.279-.455,22.525,0Zm310.294,0-22.525,0C-6454.983,18.745-6445.705,19.2-6445.705,19.2Z" transform="translate(6802.5 25.5)"/></g></svg>