<?xml version="1.0"?>
<svg xmlns="http://www.w3.org/2000/svg" id="Capa_1" enable-background="new 0 0 512 512" height="512px" viewBox="0 0 512 512" width="512px" class=""><g transform="matrix(6.12323e-17, -1, 1, 6.12323e-17, 0, 512)"><g><g><path d="m111.428 182.2v147.599l14.096 6.974h372.03c3.852 0 6.974-3.122 6.974-6.974v-147.599c0-3.852-3.122-6.974-6.974-6.974h-376.541z" fill="#ecbe6b" data-original="#ECBE6B" style="fill:#D1345B" class="" data-old_color="#ecbe6b"/></g><g><path d="m7.472 182.203v147.594c0 3.851 3.122 6.974 6.974 6.974h111.078c3.745-5.334 5.995-11.746 6.18-18.622.22-8.615-2.737-16.523-7.78-22.645-1.484-1.809-1.728-4.314-.661-6.389 5.264-10.215 8.453-21.949 8.453-30.565 0-8.65-3.212-20.175-8.499-30.147-1.113-2.11-.87-4.673.649-6.505 4.905-5.925 7.85-13.52 7.85-21.81 0-9.798-4.116-18.633-10.702-24.86h-106.568c-3.852.001-6.974 3.124-6.974 6.975zm43.047 52.395c0-7.564 6.132-13.696 13.697-13.696s13.697 6.132 13.697 13.696v42.804c0 7.564-6.132 13.697-13.697 13.697s-13.697-6.132-13.697-13.697z" fill="#efecef" data-original="#EFECEF" style="fill:#D1345B" class="" data-old_color="#efecef"/></g><g><path d="m497.554 175.226h-20.495v127.104c0 3.852-3.122 6.974-6.974 6.974h-358.657v20.495l14.096 6.974h372.03c3.852 0 6.974-3.122 6.974-6.974v-147.599c0-3.851-3.122-6.974-6.974-6.974z" fill="#eab14d" data-original="#EAB14D" style="fill:#CC3A5E" class="" data-old_color="#eab14d"/></g><g><g><path d="m131.716 258.551c0-8.65-3.212-20.175-8.499-30.147-1.113-2.11-.87-4.673.649-6.505 4.905-5.925 7.85-13.52 7.85-21.81 0-9.798-4.116-18.633-10.702-24.86h-16.872c-.548 7.27-3.36 13.904-7.745 19.201-1.519 1.832-1.762 4.395-.649 6.505 5.287 9.972 8.499 21.497 8.499 30.147 0 8.615-3.189 20.349-8.453 30.565-1.067 2.075-.823 4.58.661 6.389 5.044 6.122 8.001 14.03 7.78 22.645-.08 2.959-.542 5.832-1.341 8.57-1.756 6.017-7.418 10.051-13.686 10.051h-81.736v20.495c0 3.852 3.122 6.974 6.974 6.974h111.078c3.745-5.334 5.995-11.746 6.18-18.621.22-8.615-2.736-16.523-7.78-22.645-1.484-1.809-1.728-4.314-.661-6.389 5.264-10.216 8.453-21.95 8.453-30.565z" fill="#e2dfe2" data-original="#E2DFE2" style="fill:#E2DFE2" class=""/></g></g><g><path d="m497.554 167.754h-57.114c-4.127 0-7.472 3.345-7.472 7.472s3.345 7.472 7.472 7.472h4.776v88.395c0 4.127 3.345 7.472 7.472 7.472s7.472-3.345 7.472-7.472v-88.395h36.896v146.603h-359.687c1.08-3.539 1.704-7.217 1.805-10.961.248-9.693-2.873-19.147-8.797-26.732 5.449-10.902 8.811-23.478 8.811-33.057 0-9.731-3.315-21.9-8.889-32.727 5.74-7.315 8.889-16.41 8.889-25.735 0-6.109-1.31-12.008-3.782-17.39h56.504v88.395c0 4.127 3.345 7.472 7.472 7.472s7.472-3.345 7.472-7.472v-88.395h48.943v22.807c0 4.127 3.345 7.472 7.472 7.472s7.472-3.345 7.472-7.472v-22.807h47.822v88.395c0 4.127 3.345 7.472 7.472 7.472s7.472-3.345 7.472-7.472v-88.395h48.943v22.807c0 4.127 3.345 7.472 7.472 7.472s7.472-3.345 7.472-7.472v-22.807h6.411c4.127 0 7.472-3.345 7.472-7.472s-3.345-7.472-7.472-7.472c0 0-389.316.003-389.358.003-7.966-.001-14.447 6.48-14.447 14.445v147.593c0 7.965 6.481 14.446 14.446 14.446h68.752c4.127 0 7.472-3.345 7.472-7.472s-3.345-7.472-7.472-7.472h-68.254v-146.597l102.87-.003c4.157 4.837 6.429 10.931 6.429 17.39 0 6.304-2.121 12.198-6.129 17.041-3.451 4.16-4.042 9.954-1.499 14.775 4.634 8.739 7.628 19.199 7.628 26.646 0 7.502-2.992 18.156-7.626 27.149-2.434 4.734-1.833 10.443 1.54 14.557 4.084 4.957 6.243 11.243 6.078 17.692-.107 3.969-1.116 7.834-2.922 11.353h-1.439c-4.127 0-7.472 3.345-7.472 7.472s3.345 7.472 7.472 7.472h377.68c7.965 0 14.446-6.481 14.446-14.446v-147.599c0-7.965-6.481-14.446-14.446-14.446z" data-original="#000000" class="active-path" style="fill:#000000" data-old_color="#000000"/><path d="m43.047 234.598v42.804c0 11.672 9.496 21.168 21.169 21.168s21.169-9.496 21.169-21.168v-42.804c0-11.672-9.496-21.168-21.169-21.168s-21.169 9.496-21.169 21.168zm27.393 0v42.804c0 3.432-2.792 6.224-6.224 6.224s-6.224-2.792-6.224-6.224v-42.804c0-3.432 2.792-6.224 6.224-6.224s6.224 2.792 6.224 6.224z" data-original="#000000" class="active-path" style="fill:#000000" data-old_color="#000000"/><path d="m268.2 304.491c4.127 0 7.472-3.345 7.472-7.472v-51.389c0-4.127-3.345-7.472-7.472-7.472h-10.984c-4.127 0-7.472 3.345-7.472 7.472s3.345 7.472 7.472 7.472h3.512v43.917c0 4.127 3.346 7.472 7.472 7.472z" data-original="#000000" class="active-path" style="fill:#000000" data-old_color="#000000"/><path d="m391.436 266.886c-8.12 11.602-12.964 17.945-15.566 21.352-3.355 4.394-5.203 6.813-3.961 10.853.731 2.376 2.597 4.271 4.993 5.07.994.332 1.788.597 11.936.597 3.958 0 9.34-.04 16.709-.133 4.126-.052 7.429-3.438 7.378-7.566-.052-4.126-3.425-7.445-7.566-7.377-3.982.05-8.164.087-11.956.105 2.643-3.58 6.022-8.253 10.277-14.332 4.216-6.27 6.679-11.081 7.068-17.429 0-11.371-9.251-20.621-20.622-20.621-9.832 0-18.342 6.994-20.235 16.632-.795 4.049 1.842 7.976 5.892 8.772 4.048.792 7.977-1.842 8.772-5.892.52-2.646 2.863-4.568 5.571-4.568 3.003 0 5.47 2.345 5.665 5.3-.401 2.769-1.335 4.683-4.355 9.237z" data-original="#000000" class="active-path" style="fill:#000000" data-old_color="#000000"/></g></g></g> </svg>
