<svg xmlns="http://www.w3.org/2000/svg" width="89.005" height="88.653" viewBox="0 0 89.005 88.653"><defs><style>.a{fill:#ffd4c4;}.b{fill:#ff684d;}</style></defs><g transform="translate(0 -0.587)"><path class="a" d="M184.087,34.156a7.465,7.465,0,0,1,1.5,3.345,7.54,7.54,0,0,1,.823-.624l1.85-1.849a4.089,4.089,0,0,0,.4-5.4,4.018,4.018,0,0,0-5.982-.354L180.352,31.6A7.57,7.57,0,0,1,184.087,34.156Z" transform="translate(-126.345 -19.278)"/><path class="a" d="M87.328,39.136l.07,2.431L108.635,20.55a4.089,4.089,0,0,0,.4-5.4,4.017,4.017,0,0,0-5.982-.355L84.526,33.325A7.548,7.548,0,0,1,87.328,39.136Z" transform="translate(-59.215 -9.136)"/><path class="a" d="M16.692,91.166l1.058-1.23,3.637-26.444a7.572,7.572,0,0,1,6.522-7.2l-.1-3.6a3.967,3.967,0,0,0-7.934,0L16.062,80.378a.013.013,0,0,1,0,.008l-3.678,4.275a1.682,1.682,0,0,0,.087,2.288Z" transform="translate(-8.389 -33.717)"/><path class="b" d="M266.634,25.2a1.8,1.8,0,1,0-2.076-2.933l-4.487,3.175a1.8,1.8,0,1,0,2.076,2.933Z" transform="translate(-181.66 -14.956)"/><path class="b" d="M241.338,9.212a1.794,1.794,0,0,0,2.314-1.05l1.934-5.145a1.8,1.8,0,0,0-3.364-1.264L240.288,6.9A1.8,1.8,0,0,0,241.338,9.212Z" transform="translate(-168.252)"/><path class="b" d="M274.162,55.611h-.037l-5.5.046a1.745,1.745,0,0,0-1.76,1.772,1.809,1.809,0,0,0,1.8,1.775h.037l5.5-.093a1.777,1.777,0,0,0,1.76-1.81A1.737,1.737,0,0,0,274.162,55.611Z" transform="translate(-186.955 -38.547)"/><path class="a" d="M94.572,88.362a4.017,4.017,0,0,0-.354-5.982,3.89,3.89,0,0,0-2.428-.835,4.216,4.216,0,0,0-2.971,1.236l-8.976,8.976a1.851,1.851,0,0,1-2.617,0l-.023-.024a2,2,0,0,1,0-2.832L91.681,74.422a4.089,4.089,0,0,0,.4-5.4A4.017,4.017,0,0,0,86.1,68.67L71.484,83.286a1.929,1.929,0,0,1-2.728,0,1.958,1.958,0,0,1,0-2.769l18.59-18.59a4.089,4.089,0,0,0,.4-5.4,4.017,4.017,0,0,0-5.982-.355L63.087,74.852a1.955,1.955,0,0,1-2.765,0h0a1.931,1.931,0,0,1,0-2.731L74.85,57.592a4.089,4.089,0,0,0,.4-5.4,4.018,4.018,0,0,0-5.982-.354L48.178,72.93a1.806,1.806,0,0,1-1.29.543,1.84,1.84,0,0,1-1.854-1.793l-.187-6.535a3.967,3.967,0,1,0-7.934,0L33.1,92.839a.015.015,0,0,1,0,.008l-3.677,4.275a1.682,1.682,0,0,0,.087,2.288l20.863,20.83a1.681,1.681,0,0,0,2.212.143l4.688-3.6a1.716,1.716,0,0,1,.68-.312c8.133-1.772,17.391-8.882,26.248-17.739Z" transform="translate(-20.327 -35.085)"/><path d="M76.121,45.207A7.487,7.487,0,0,0,72.96,43.75c.076-.138.147-.278.214-.42l.721-.721a7.664,7.664,0,0,0,.678-10.17,7.557,7.557,0,0,0-4.436-2.727c.124-.229.234-.463.334-.7a7.572,7.572,0,0,0-4.671-11.8A7.586,7.586,0,0,0,54.14,7.86a7.46,7.46,0,0,0-1.5-3.345,7.569,7.569,0,0,0-5.966-2.886h0A7.549,7.549,0,0,0,41.3,3.85L23.079,22.069l-.069-2.432a7.56,7.56,0,0,0-15.115-.225L4.257,45.856,1.268,49.331a5.3,5.3,0,0,0,.274,7.176l4.443,4.436A5.3,5.3,0,0,0,6.645,67.6L27.508,88.428a5.243,5.243,0,0,0,3.727,1.542,5.3,5.3,0,0,0,3.213-1.092L38.8,85.534A41.27,41.27,0,0,0,52.54,78.847,106.652,106.652,0,0,0,66.416,66.918l10.37-10.37a7.611,7.611,0,0,0-.665-11.341ZM36.946,82.428l-4.688,3.6a1.681,1.681,0,0,1-2.212-.143L9.183,65.055A1.682,1.682,0,0,1,9.1,62.767l3.677-4.275a.017.017,0,0,0,0-.008L16.586,30.79a3.967,3.967,0,1,1,7.934,0l.187,6.535a1.84,1.84,0,0,0,1.854,1.793,1.806,1.806,0,0,0,1.29-.543L48.943,17.484a4.018,4.018,0,0,1,5.982.354,4.089,4.089,0,0,1-.4,5.4L39.995,37.766a1.931,1.931,0,0,0,0,2.731h0a1.955,1.955,0,0,0,2.765,0L61.438,21.819a4.017,4.017,0,0,1,5.982.355,4.089,4.089,0,0,1-.4,5.4l-18.59,18.59a1.958,1.958,0,0,0,0,2.769,1.929,1.929,0,0,0,2.728,0L65.773,34.315a4.017,4.017,0,0,1,5.982.355,4.089,4.089,0,0,1-.4,5.4L56.876,54.546a2,2,0,0,0,0,2.832l.023.024a1.851,1.851,0,0,0,2.617,0l8.976-8.976a4.216,4.216,0,0,1,2.971-1.236,3.889,3.889,0,0,1,2.428.835,4.017,4.017,0,0,1,.354,5.982l-10.37,10.37C55.018,73.235,45.76,80.344,37.627,82.117A1.711,1.711,0,0,0,36.946,82.428ZM3.992,51.675,7.67,47.4a.016.016,0,0,0,0-.008L11.483,19.7a3.967,3.967,0,0,1,7.934,0l.1,3.6A7.572,7.572,0,0,0,13,30.5L9.361,56.949,8.3,58.179,4.08,53.963A1.683,1.683,0,0,1,3.992,51.675ZM46.672,5.222a4,4,0,0,1,3.149,1.523,4.089,4.089,0,0,1-.4,5.4L28.183,33.161l-.07-2.431a7.549,7.549,0,0,0-2.8-5.811L43.839,6.391A3.994,3.994,0,0,1,46.672,5.222Zm12.5,4.336a3.994,3.994,0,0,1,3.149,1.523,4.089,4.089,0,0,1-.4,5.4l-1.85,1.849a7.539,7.539,0,0,0-.823.624,7.458,7.458,0,0,0-1.5-3.345,7.568,7.568,0,0,0-3.736-2.553l2.328-2.328A4,4,0,0,1,59.168,9.558Z" transform="translate(0 -0.73)"/></g></svg>