<svg xmlns="http://www.w3.org/2000/svg" width="21.066" height="16.852" viewBox="0 0 21.066 16.852"><defs><style>.a{fill:#fff;}</style></defs><path class="a" d="M20.55,55.337a1.69,1.69,0,0,0-1.24-.516H1.755a1.691,1.691,0,0,0-1.24.516A1.69,1.69,0,0,0,0,56.576V69.918a1.69,1.69,0,0,0,.516,1.24,1.691,1.691,0,0,0,1.24.516H19.31a1.761,1.761,0,0,0,1.755-1.756V56.576A1.691,1.691,0,0,0,20.55,55.337Zm-.889,14.581a.355.355,0,0,1-.351.351H1.755a.356.356,0,0,1-.351-.351V63.247H19.661v6.671Zm0-10.884H1.4V56.576a.356.356,0,0,1,.351-.351H19.31a.356.356,0,0,1,.351.351v2.458Z" transform="translate(0 -54.821)"/><rect class="a" width="2.809" height="1.404" transform="translate(2.809 12.639)"/><rect class="a" width="4.213" height="1.404" transform="translate(7.022 12.639)"/></svg>