<svg xmlns="http://www.w3.org/2000/svg" width="83.996" height="74.873" viewBox="0 0 83.996 74.873"><defs><style>.a{fill:#f2b12f;}</style></defs><g transform="translate(0 -33.234)"><g transform="translate(0 33.234)"><path class="a" d="M228.975,44.208,177.532,33.321a4.057,4.057,0,0,0-4.794,3.12l-.977,6.281,59.357,12.561L232.094,49A4.057,4.057,0,0,0,228.975,44.208Z" transform="translate(-148.186 -33.234)"/><path class="a" d="M59.155,172.134a4.1,4.1,0,0,0-5.025-2.843L44.364,172,21.342,167.13,18.81,179.093,2.99,183.484a4.094,4.094,0,0,0-2.842,5.025l8.915,32.127a4.1,4.1,0,0,0,5.025,2.842l51.14-14.192a4.1,4.1,0,0,0,2.842-5.025l-1.53-5.515,5.735,1.213a4.055,4.055,0,0,0,4.794-3.119L80.7,179.691l-20.66-4.372Zm5.906,16.328,1.265-5.977A1.67,1.67,0,0,1,68.3,181.2l5.977,1.266a1.669,1.669,0,0,1,1.284,1.972L74.3,190.417a1.669,1.669,0,0,1-1.972,1.283l-5.977-1.265A1.669,1.669,0,0,1,65.061,188.462ZM3.88,186.69l14.152-3.926L51.425,173.5l3.593-1a.748.748,0,0,1,.2-.026.772.772,0,0,1,.734.551l.422,1.519,1.322,4.763L5.1,193.9,3.355,187.62A.765.765,0,0,1,3.88,186.69Zm60.984,18.459a.767.767,0,0,1-.525.929L13.2,220.271a.743.743,0,0,1-.2.027.772.772,0,0,1-.734-.552l-5.2-18.739,52.592-14.6,3.208,11.557Z" transform="translate(0 -148.753)"/><path class="a" d="M98.3,445.82a1.669,1.669,0,0,0-2.049-1.159l-5.972,1.658a1.669,1.669,0,0,0-1.158,2.049l1.657,5.972a1.668,1.668,0,0,0,2.049,1.158l5.972-1.657a1.669,1.669,0,0,0,1.159-2.049Z" transform="translate(-76.834 -388.141)"/></g></g></svg>