<svg xmlns="http://www.w3.org/2000/svg" width="124.243" height="88.993" viewBox="0 0 124.243 88.993"><defs><style>.a{fill:#7f9398;}.b{fill:#96adb3;}.c{fill:#ee9c3e;}.d{fill:#f0ac3f;}.e{fill:#e1d0cc;}.e,.g{mix-blend-mode:multiply;}.e,.f,.g,.t{isolation:isolate;}.f,.u,.v,.w,.x,.y{fill:#fff;}.f{mix-blend-mode:soft-light;}.g{fill:#d1d1c6;}.h{fill:none;stroke:#d0d2d3;stroke-miterlimit:10;stroke-width:3.066px;}.i{fill:#8c4748;}.j{fill:#a15246;}.k{fill:#913e34;}.l{fill:#fbcaaf;}.m{fill:#e8a69a;}.n{fill:#d08579;}.o{fill:#fff7bb;}.p,.q{fill:#e8c787;}.q{opacity:0.67;}.r,.t{fill:#fd9609;}.s{fill:#f7751e;}.t{mix-blend-mode:screen;}.u{opacity:0.18;}.v{opacity:0.56;}.w{opacity:0.58;}.y{opacity:0.44;}.z{opacity:0.2;}.aa{fill:#506d23;}.ab{opacity:0.4;}.ac{opacity:0.32;}.ad{fill:#f0e88d;}.ae{fill:#b1c748;}.af{fill:#603813;}</style></defs><g transform="translate(-238 -279.806)"><g transform="translate(243.274 281)"><path class="a" d="M301.429,307.454c0-2.5-7.112-4.532-15.886-4.532s-15.887,2.029-15.887,4.532c0,1.956,3.035,38.793,3.905,50.414.187,2.494,5.364,4.532,11.982,4.532s11.759-2.041,11.981-4.532C298.558,346.256,301.429,309.41,301.429,307.454Z" transform="translate(-268.03 -298.144)"/><path class="b" d="M297.221,285.7c0-2.6-7.841-4.7-17.513-4.7s-17.514,2.1-17.514,4.7c0,2.03,3.347,40.253,4.306,52.311.2,2.588,5.913,4.7,13.208,4.7s12.963-2.117,13.207-4.7C294.055,325.964,297.221,287.731,297.221,285.7Z" transform="translate(-262.194 -281)"/><path class="c" d="M272.925,365.646c.979,11.765,2.484,29.188,3.057,36.4.19,2.375,5.425,4.314,12.118,4.314s11.893-1.942,12.117-4.314c.683-7.209,2.155-24.635,3.1-36.4,0,0-4.976,3.856-14.479,3.856A33.354,33.354,0,0,1,272.925,365.646Z" transform="translate(-270.586 -347.196)"/><path class="d" d="M303.312,353.177c0,2.319-6.8,4.2-15.193,4.2s-15.194-1.88-15.194-4.2,6.8-4.2,15.194-4.2S303.312,350.857,303.312,353.177Z" transform="translate(-270.586 -334.16)"/><path class="e" d="M330.259,348.977c-1.186,0-2.34.039-3.449.11,3.284.841,6.834,1.975,8.424,4.82a5.279,5.279,0,0,1,.775,3.157c5.539-.627,9.442-2.131,9.442-3.887C345.452,350.857,338.651,348.977,330.259,348.977Z" transform="translate(-312.726 -334.16)"/><path class="f" d="M284.635,360.956a4.855,4.855,0,0,1-2.266-4.529c-2.569.658-4.179,1.6-4.179,2.643,0,1.842,5,3.36,11.451,3.576A11.831,11.831,0,0,1,284.635,360.956Z" transform="translate(-274.703 -339.986)"/><path class="f" d="M277.155,369.327c.394,3.058.671,4.458,1.63,4,1.055-.508.886-7.231.875-10.4-.026-7.885-.267-18.868-1.847-26.284a39.537,39.537,0,0,0-2.361-7.832c-.39-.281-.761-.355-1.029.05-.373.563.5,9.481.611,10.933.357,4.547.845,9.1,1.114,13.664C276.453,358.63,276.5,364.251,277.155,369.327Z" transform="translate(-271.684 -318.208)"/><path class="g" d="M382.375,297.643c0,.014-.007.029-.01.043a3.991,3.991,0,0,1-1.873,2.436,8.411,8.411,0,0,1-4.694,1.708,13.47,13.47,0,0,1-1.472.406c.224,6.175.776,12.33,1.022,18.507a159.438,159.438,0,0,1-.412,22.436c-.428,4.209-1.137,8.374-3.257,11.955,4-.805,6.69-2.345,6.857-4.106,1.14-12.049,4.306-50.281,4.306-52.311A1.64,1.64,0,0,0,382.375,297.643Z" transform="translate(-347.814 -294.015)"/><path class="h" d="M299.772,286.758c0,2.319-7.494,4.2-16.738,4.2s-16.737-1.88-16.737-4.2,7.494-4.2,16.737-4.2S299.772,284.438,299.772,286.758Z" transform="translate(-265.403 -282.218)"/></g><g transform="translate(270.873 285.166)"><g transform="translate(9.457 0)"><path class="i" d="M685.06,588.723l.123-.068.325-.176c-.047-.053-.092-.109-.14-.161C685.268,588.454,685.163,588.588,685.06,588.723Z" transform="translate(-629.944 -525.498)"/><path class="j" d="M757.077,359.117c-.562-1.028-1.139-2.077-1.742-3.125.032.474.033.952.036,1.429Q756.249,358.247,757.077,359.117Z" transform="translate(-684.902 -343.812)"/><path class="j" d="M493.941,322.611h-.016v0A.047.047,0,0,0,493.941,322.611Z" transform="translate(-480.471 -317.707)"/><path class="j" d="M544.391,404.857q-1.425-.474-2.866-.929A1.653,1.653,0,0,0,544.391,404.857Z" transform="translate(-517.696 -381.3)"/><path class="k" d="M510.92,332.041c-.4-5.109-2.748-9.693-5.337-14.425q-.452-.827-.91-1.659l-.295-.538q-.827-.87-1.706-1.7c0-.478,0-.956-.036-1.429-2.51-4.354-5.514-8.619-10.165-10.672-.039-.017-.076-.038-.115-.055a16.244,16.244,0,0,0-3.378-1.008c-3.619-.695-7.581-.419-11.283-.217q-.8.044-1.574.078c-.455.02-.906.037-1.349.048-.613.014-1.227.04-1.841.064q-3.923.152-7.869.569-1.645.175-3.288.4c-1.074.147-2.146.3-3.217.484a98.713,98.713,0,0,0-12.884,3.036l-.015,0c-1.033.32-2.06.653-3.079,1.009q-2.387.834-4.714,1.811c-1.921.8-3.813,1.671-5.662,2.622l39.075,57.716c1.918,1.332,4.559.917,7.24-.134,3.3-1.293,6.651-3.542,8.8-4.707.1-.135.208-.269.308-.405.048.053.092.108.14.161.982-.526,1.936-1.052,2.87-1.578a59.2,59.2,0,0,0,9.977-6.768,33.547,33.547,0,0,0,2.569-2.507,28.576,28.576,0,0,0,5.324-8.176,32.4,32.4,0,0,0,1.221-3.325c.293-.953.565-1.933.794-2.973A19.412,19.412,0,0,0,510.92,332.041Zm-54.889-9.3q1.443.454,2.867.929A1.653,1.653,0,0,1,456.031,322.742Z" transform="translate(-432.202 -300.114)"/><path class="j" d="M525.9,318.435q-.452-.826-.91-1.659l-.295-.538q-.827-.87-1.706-1.7a50.934,50.934,0,0,0-9.659-7.051,41.447,41.447,0,0,0-.542-5.049c-.039-.017-.076-.038-.115-.055a16.241,16.241,0,0,0-3.378-1.008,36.583,36.583,0,0,1,.678,4.331,71.129,71.129,0,0,0-11.961-4.548q-.8.043-1.574.078c-.455.02-.906.037-1.349.048-.613.014-1.227.04-1.841.064q-3.923.152-7.869.569a72.665,72.665,0,0,1,8.115,1.375,53.078,53.078,0,0,1,.415,11.37c-3.393-1.544-6.849-2.965-10.354-4.309l-.916-.35a24.989,24.989,0,0,0-.548-7.689c-1.074.147-2.146.3-3.217.484a21.921,21.921,0,0,1,.6,6.031,44.872,44.872,0,0,0-13.48-2.994l-.015,0c-1.033.32-2.06.653-3.079,1.009q-2.387.834-4.714,1.811a1.4,1.4,0,0,0,1.937,1.31,13.188,13.188,0,0,1,2.274-.628,35.1,35.1,0,0,1-2.661,5.427c-1.026,1.813,1.761,3.439,2.786,1.628a30.336,30.336,0,0,0,3.22-7.322c4.52.066,9.3,1.654,13.419,3.107a77.729,77.729,0,0,1-2.738,10.859,1.664,1.664,0,0,0-.068.518q1.443.454,2.867.929a1.659,1.659,0,0,0,.312-.589,86.889,86.889,0,0,0,2.712-10.608q5.749,2.1,11.257,4.706a60.888,60.888,0,0,1-3.373,10.641c-3.549-1.552-7.183-2.912-10.908-4.15a1.653,1.653,0,0,1-2.867-.929c-2.62-.823-5.282-1.6-7.986-2.362a1.614,1.614,0,0,0-.858,3.111,163.16,163.16,0,0,1,21.547,7.359c-.155.469-.31.939-.448,1.411-.587,2,2.526,2.85,3.111.858.09-.307.191-.61.286-.915a84.023,84.023,0,0,1,9.658,5.406c.391.255.771.527,1.156.793-1.134,2.53-3.269,4.5-4.369,7.1-.8,1.892,1.977,3.539,2.786,1.628,1.059-2.5,2.809-4.547,4.139-6.87a99.444,99.444,0,0,1,7.794,6.743,68.04,68.04,0,0,1-5.623,11.014,33.9,33.9,0,0,0-22.042-9.013c-2.082-.056-2.076,3.17,0,3.226a30.778,30.778,0,0,1,20.21,8.435,40.869,40.869,0,0,1-6.875,7.383c3.3-1.293,6.651-3.542,8.8-4.707.1-.135.208-.269.308-.405.048.053.092.108.14.161.982-.526,1.936-1.052,2.87-1.578q-.558-.65-1.141-1.273a73.126,73.126,0,0,0,5.755-10.936q.761.741,1.518,1.483c1.23,1.208,2.57,2.533,3.846,3.959a33.558,33.558,0,0,0,2.569-2.507,64.028,64.028,0,0,0-6.439-6.575q.608-1.556,1.182-3.121c.877-2.4,1.7-4.841,2.512-7.286.637.6,1.27,1.2,1.89,1.82a66.233,66.233,0,0,1,6.179,6.985,32.4,32.4,0,0,0,1.221-3.325c-.585-.746-1.175-1.485-1.764-2.221a58.2,58.2,0,0,0-6.389-6.716c.762-2.347,1.518-4.7,2.285-7.027q.609-1.851,1.063-3.731a31.466,31.466,0,0,1,4.949,9.921,1.487,1.487,0,0,0,1.049,1.072C530.834,327.75,528.484,323.166,525.9,318.435Zm-29.059-14.3a66.691,66.691,0,0,1,13.3,5.225,57.3,57.3,0,0,1-1.729,13.148c-.109-.07-.216-.143-.325-.213a105.542,105.542,0,0,0-11.042-6.158A45.759,45.759,0,0,0,496.836,304.139Zm-3.831,25.818c1.215-3.491,2.542-6.932,3.411-10.529,2.375,1.2,4.72,2.462,7.028,3.81,1.4.819,2.779,1.68,4.141,2.565q-.189.716-.385,1.435a79.208,79.208,0,0,1-3.144,9.017A83.62,83.62,0,0,0,493.006,329.958Zm22.71,10.835c-.373,1.159-.775,2.327-1.2,3.495-2.389-2.005-4.721-3.8-6.7-5.325-.361-.278-.727-.539-1.09-.808a102.732,102.732,0,0,0,3.665-10.46,93.994,93.994,0,0,1,7.839,6.1C517.324,336.211,516.433,338.56,515.716,340.793Zm3.734-10.283c-2.612-2.172-5.361-4.188-8.155-6.082a63.163,63.163,0,0,0,2.053-13.225,44.583,44.583,0,0,1,9.333,7.583A60.63,60.63,0,0,1,519.45,330.509Z" transform="translate(-452.514 -300.933)"/></g><path class="l" d="M395.686,345.212c8.72-7.615,22.668,3.808,30.256,8.423,10.191,6.2,23.606,13.865,23.664,27.388.04,9.343-4.383,23.349-15.643,22.341-11.48-1.028-23.088-3.441-32.274-10.879-7.489-6.064-10.252-15.708-12.2-24.739C387.753,359.674,389.2,350.871,395.686,345.212Z" transform="translate(-388.814 -333.387)"/><path class="m" d="M434.159,367.315c-7.417-5.769-16.917-13.588-24.764-3.343-6.947,9.069-3.942,26.918,2.06,35.737,3.445,5.061,8.794,7.26,14.463,8.929,5.554,1.635,11.21,3.567,16.886,4.715,13.375,2.7,17-9.831,15.963-20.824C457.519,379.247,443.291,374.418,434.159,367.315Z" transform="translate(-401.776 -346.157)"/><path class="n" d="M455.706,398.176c-1.166-1.324-2.344-2.607-3.551-3.834s-2.452-2.405-3.736-3.506c-.835-.742-1.688-1.45-2.562-2.113a29.086,29.086,0,0,0-5.528-3.357,9.756,9.756,0,0,0-4.071-1.025,9.481,9.481,0,0,0-4.536,1.169c-4.214,2.51-5.72,6.587-5.793,10.927a24.638,24.638,0,0,0,.348,4.4A27.7,27.7,0,0,0,439.3,422.074a34.148,34.148,0,0,0,3.1,1.761c8.579,1.827,15.8,8.1,23.028,3.081,7.225-7.528,1.2-20.076-6.223-24.975C458.123,400.715,456.953,399.454,455.706,398.176Z" transform="translate(-417.836 -365.982)"/><path class="k" d="M497.7,466.376c-.292,3.481,3.513,9.9,7.556,6.79,3.748-2.88-1.493-7.266-4.037-8.466C499.524,463.9,497.882,464.177,497.7,466.376Z" transform="translate(-473.952 -428.505)"/></g><g transform="translate(238 330.446)"><path class="o" d="M273.81,509.314c-.111-.029-.37-.03-.738-.075-2.771-.339-11.9-1.55-15.011,2.422-3.522,4.5-12.815,3.815-16.727,6.554s-5.967,8.8,3.033,11.054,9.88-.684,14.967,3.522,27.1,8.9,32.868,1.956,11.494-2.886,15.065-6.456-4.891-8.119-4.891-9.978,7.63-1.369,3.815-5.184S277.136,510.194,273.81,509.314Z" transform="translate(-238 -508.592)"/><g transform="translate(0.46 4.41)"><path class="p" d="M528.363,531.994c0,.442.479,1.036,1.16,1.733a.9.9,0,0,1-.077-.335c0-1.858,7.63-1.369,3.815-5.184-.043-.043-.092-.085-.14-.127C534.158,530.537,528.363,530.374,528.363,531.994Z" transform="translate(-465.533 -528.08)"/><path class="p" d="M307.979,573.248c.868,1.362,1.134,2.767-.146,4.046-3.571,3.571-9.293-.489-15.065,6.456S264.987,586,259.9,581.794s-5.967-1.272-14.967-3.522a10.991,10.991,0,0,1-4.822-2.292c.773,1.51,2.585,2.86,5.905,3.689,9,2.25,9.88-.684,14.966,3.522s27.1,8.9,32.868,1.957,11.494-2.886,15.065-6.456C310.641,576.968,309.559,575.015,307.979,573.248Z" transform="translate(-240.112 -563.403)"/></g><path class="o" d="M555.918,559.877s-2.737,2.1.491,3.473,7.19.44,6.309-1.736S557.776,558.7,555.918,559.877Z" transform="translate(-485.774 -548.101)"/><path class="q" d="M563.576,564.456a3.181,3.181,0,0,0-1.407-1.5,2.62,2.62,0,0,1,.457.733c.88,2.177-3.082,3.106-6.31,1.737-.141-.06-.266-.121-.385-.183a2.982,2.982,0,0,0,1.335.95C560.494,567.562,564.456,566.633,563.576,564.456Z" transform="translate(-486.631 -550.944)"/><path class="o" d="M569.566,587.573c-1.811,1.811.049,5.087,2.69,5.087s3.228-4.6.832-5.087S570.153,586.986,569.566,587.573Z" transform="translate(-496.731 -569.879)"/><path class="r" d="M390.812,515.325c0,4.129-6.371,5.129-14.233,5.129-5.72,0-10.65-.528-12.913-2.409a3.392,3.392,0,0,1-1.321-2.72,4.055,4.055,0,0,1,.276-1.465c1.291-3.431,7.049-6.013,13.957-6.013a26.66,26.66,0,0,1,2.985.164,23.687,23.687,0,0,1,2.661.449C387.279,509.6,390.812,512.246,390.812,515.325Z" transform="translate(-335.242 -507.847)"/><path class="s" d="M390.744,540.8c.036,3.023-3.125,4.205-6.082,4.792-5.645,1.084-23.318,1.707-22.366-5.169-.266,5.815,12.224,5.431,18.173,5.126C384.5,545.361,390.553,544.731,390.744,540.8Z" transform="translate(-335.174 -533.322)"/><path class="t" d="M382.213,509.3c0,4.863-7.457,8.8-16.654,8.8-.669,0-1.446-.029-2.1-.07a3.169,3.169,0,0,1-1.226-2.834c.174-4.128,6.39-7.356,14.252-7.356a25.426,25.426,0,0,1,5.646.613A4.736,4.736,0,0,1,382.213,509.3Z" transform="translate(-335.154 -507.847)"/><path class="t" d="M382.557,510.113c0,2.23-6.174,4.038-13.793,4.038a44.248,44.248,0,0,1-5.153-.29c1.291-3.431,7.049-6.013,13.958-6.013a26.66,26.66,0,0,1,2.985.164C381.824,508.625,382.557,509.344,382.557,510.113Z" transform="translate(-336.232 -507.847)"/><path class="u" d="M436.107,522.182s2.641-.462,3.228,1.978-11.69,6.09-11.69,6.09S439.229,525.3,436.107,522.182Z" transform="translate(-386.308 -519.03)"/><path class="v" d="M274.949,529.429s-9.328.951-11.872,4.669-8.413.918-6.848,4.225,28.592,8.6,30.716,6.48-15.489-1.119-15.489-6.01S286,526.87,274.949,529.429Z" transform="translate(-252.052 -524.299)"/><path class="w" d="M366.834,548.383s3.064-1.421,8.771,0,16.272,1.71,19.3,0,.685-8.382,3.913-7.785,4.5,5.289,4.5,7.785-12.423,1.029-13.4,3.964S368.2,547.941,366.834,548.383Z" transform="translate(-338.752 -533.43)"/><path class="x" d="M560.193,561.227s-2.7.165-2.806,1.137,2.311,1.791,3.32,1.761c.68-.02,3.257-.347,2.549-1.614S560.193,561.227,560.193,561.227Z" transform="translate(-487.767 -549.592)"/><path class="y" d="M572.543,590.342s-1.467.679-.734,1.853,1.348,1.219,1.853,1.724,2.054-.092,1.082-1.788A3.13,3.13,0,0,0,572.543,590.342Z" transform="translate(-498.888 -572.361)"/></g><g transform="translate(300.771 315.6)"><ellipse class="z" cx="29.484" cy="9.311" rx="29.484" ry="9.311" transform="translate(2.504 34.578)"/><path class="aa" d="M573.431,505.207s-7.2-7.286-20.518-1.089S537,507.8,532.394,510.064s-6.784,3.015-6.365,5.779-1.675,5.025,14.4,8.961,27.3,2.512,33-1.173S582.643,511.739,573.431,505.207Z" transform="translate(-525.978 -488.131)"/><path class="ab" d="M573.431,505.207s-7.2-7.286-20.518-1.089S537,507.8,532.394,510.064s-6.784,3.015-6.365,5.779-1.675,5.025,14.4,8.961,27.3,2.512,33-1.173S582.643,511.739,573.431,505.207Z" transform="translate(-525.978 -488.131)"/><path class="z" d="M526.03,558.4c.419,2.764-1.675,5.025,14.4,8.961s27.3,2.512,33-1.173c3.157-2.043,5.644-5.476,5.664-9.243-26.016,11.9-53.36-.171-52.52-.906h0A2.83,2.83,0,0,0,526.03,558.4Z" transform="translate(-525.979 -530.69)"/><path class="aa" d="M593.408,448a15.024,15.024,0,0,1,.7,7.561c-.674,4.355.206,14.518.91,18.844,1.172,7.2-9.922,28.056-30.406,12.612l27.958-39.776" transform="translate(-556.189 -445.603)"/><path class="ac" d="M616.258,579.438c-9.768,17.779-24.133,14.626-24.133,14.626s-1.049-2.387.09.187C607.31,600.859,615.856,586.694,616.258,579.438Z" transform="translate(-577.362 -548.987)"/><path class="ad" d="M570.745,439.894s-6.114-3.1-22.193,18.09c-10.117,13.331-11.167,19.988-.223,25.711s27.135-5.918,25.125-20.993S579.539,442.434,570.745,439.894Z" transform="translate(-537.363 -439.735)"/><path class="ae" d="M569.761,441.242a1.731,1.731,0,0,1,.379.035l.05.025.136.039c2.655.767,2.9,1.609,3,1.969.279.966-.062,2.562-.493,4.583a40.6,40.6,0,0,0-.876,15.007,18.021,18.021,0,0,1-4.5,14.4c-3.494,3.991-8.333,6.374-12.944,6.374a11.719,11.719,0,0,1-5.491-1.313c-4.094-2.141-6.263-4.313-6.827-6.836-.808-3.614,1.451-8.587,7.553-16.628,12.43-16.379,18.457-17.652,20.009-17.652m0-1.508c-2.293,0-8.768,1.854-21.209,18.248-10.117,13.331-11.167,19.988-.223,25.711a13.258,13.258,0,0,0,6.189,1.484c9.927,0,20.589-10.076,18.935-22.477-2.01-15.075,6.086-20.267-2.708-22.807a2.365,2.365,0,0,0-.984-.159Z" transform="translate(-537.363 -439.735)"/><path class="af" d="M598.465,518.241s4.86-10.972-.961-17.518c0,0-8.016-.122-13.167,9.279l.031.017c-1.834,3.388-1.591,9.6,1.775,11.44s8.306,2.912,12.323-3.218Z" transform="translate(-570.752 -487.429)"/><path class="z" d="M588.928,567.682c3.366,1.844,8.306,2.912,12.323-3.218a25.371,25.371,0,0,0,1.414-4.635c-3.666,9.761-15.846,5.4-15.871,5.389A5.081,5.081,0,0,0,588.928,567.682Z" transform="translate(-573.537 -533.652)"/><path class="x" d="M661.843,624.213" transform="translate(-632.229 -584.002)"/><g transform="translate(16.633 14.312)"><path class="x" d="M603.04,512.262a.754.754,0,0,1-.644-1.145,14.209,14.209,0,0,1,7.733-5.7.754.754,0,0,1,.4,1.454c-.05.014-4.577,1.295-6.84,5.024A.753.753,0,0,1,603.04,512.262Z" transform="translate(-602.286 -505.395)"/></g></g></g></svg>