<svg xmlns="http://www.w3.org/2000/svg" xmlns:xlink="http://www.w3.org/1999/xlink" width="102.184" height="102.184" viewBox="0 0 102.184 102.184"><defs><style>.a{fill:url(#a);}.b{fill:#d1d0ae;}.c{fill:#ffffd7;}.d,.g{fill:#fff;}.d{opacity:0.72;}.e{fill:#ff9f06;}.f{fill:#ffd008;}</style><linearGradient id="a" x1="0.102" y1="0.191" x2="0.809" y2="0.898" gradientUnits="objectBoundingBox"><stop offset="0" stop-color="#f94b78"/><stop offset="1" stop-color="#ff2055"/></linearGradient></defs><g transform="translate(-59 -59)"><path class="a" d="M110.092,161.184a51.092,51.092,0,1,1,0-102.184,7.147,7.147,0,0,1,0,14.293,36.8,36.8,0,1,0,36.8,36.8,7.147,7.147,0,1,1,14.293,0,51.055,51.055,0,0,1-51.092,51.092Z"/><g transform="translate(87.09 79.624)"><g transform="translate(0 0)"><path class="b" d="M400.66,349.631c-5.274,11.1-16.628,17.036-26.824,14.691-10.994-2.484-17.7-13.793-15.623-26.21,2.9-17.615,26.626-35.1,38.1-31.273C408.954,310.985,406.547,337.248,400.66,349.631Z" transform="translate(-357.836 -306.307)"/><path class="c" d="M413.6,349.561c-5.072,10.663-15.783,16.468-25.312,14.347-10.979-2.4-16.285-13.793-14.336-24.855,2.977-17.147,25.531-33.787,36.071-30.318C422.022,312.612,419.072,338.066,413.6,349.561Z" transform="translate(-371.048 -307.959)"/><path class="d" d="M473.337,347.189s9.423-11.177,18.095-8.3,14.743,16.973,3.4,36.273c-6.179,10.511-14.491,11.2-14.491,11.2s21.219-21.992,14.348-36.168S473.337,347.189,473.337,347.189Z" transform="translate(-454.896 -333.29)"/><circle class="e" cx="13" cy="13" r="13" transform="translate(9.261 17.141)"/><circle class="f" cx="13" cy="13" r="13" transform="translate(8.813 16.046)"/></g></g><path class="g" d="M459.088,94.129a.775.775,0,0,1-.535-.214.8.8,0,0,1,.009-1.136l2.4-2.4a.555.555,0,0,0,0-.785l-2.542-2.542a.8.8,0,0,1-.039-1.1.777.777,0,0,1,1.116-.017l3.114,3.114a1.332,1.332,0,0,1,0,1.884L459.637,93.9A.775.775,0,0,1,459.088,94.129Z" transform="translate(-352.93 -23.61)"/><path class="g" d="M485.838,94.129a.775.775,0,0,1-.535-.214.8.8,0,0,1,.009-1.136l1.845-1.845a1.338,1.338,0,0,0,0-1.893l-1.988-1.988a.8.8,0,0,1-.039-1.1.777.777,0,0,1,1.115-.017l3.506,3.506a.777.777,0,0,1,0,1.1L486.388,93.9A.775.775,0,0,1,485.838,94.129Z" transform="translate(-376.581 -23.61)"/></g></svg>