<svg id="_x33_0" enable-background="new 0 0 64 64" height="512" viewBox="0 0 64 64" width="512" xmlns="http://www.w3.org/2000/svg"><g><g><g><path d="m10.86 19.43-2.86.57v-5c0-3.59 1.46-6.84 3.81-9.19s5.6-3.81 9.19-3.81h8.28c1.3 0 2.48.53 3.34 1.38.85.86 1.38 2.04 1.38 3.34 0 2.64-2.15 4.73-4.71 4.73-.18 0-.35-.01-.53-.03l-3.5-.39c-.17-.02-.35-.03-.52-.03-2.62 0-4.74 2.12-4.74 4.74v1.26h-1.33c-.74 0-1.41.3-1.89.78s-.78 1.15-.78 1.89c0 .84.4 1.63 1.07 2.13l2.93 2.2v5l-.71-.43c-2.81-1.68-6.02-2.57-9.29-2.57v-.84c0-1.94.29-3.88.86-5.73z" fill="#656d78"/></g><g><path d="m22 49c0 1.66 1.34 3 3 3h-11c-1.1 0-2-.9-2-2v-2h-6v-2.92c0-4.71 3.29-8.79 7.9-9.77l3.73-.8c.72-.16 1.33-.56 1.76-1.12l.76.76c.63.63 1.39 1.12 2.21 1.43-.23.42-.36.91-.36 1.42 0 1.66 1.34 3 3 3-1.66 0-3 1.34-3 3s1.34 3 3 3c-1.66 0-3 1.34-3 3z" fill="#4fc1e9"/></g><g><path d="m14 58h11v4h-13v-4l.05-.24c.62.16 1.28.24 1.95.24z" fill="#4fc1e9"/></g><g><path d="m36 43v19h-11v-4c.83 0 1.58-.34 2.12-.88s.88-1.29.88-2.12c0-1.66-1.34-3-3-3 1.66 0 3-1.34 3-3s-1.34-3-3-3c1.66 0 3-1.34 3-3s-1.34-3-3-3c1.66 0 3-1.34 3-3 0-.63-.19-1.21-.52-1.69.96-.48 1.78-1.21 2.4-2.12l.02-.04h.01c.54.52 1.27.85 2.09.85h10v8.89c-.66.07-1.32.11-2 .11z" fill="#4fc1e9"/></g><g><path d="m27.48 35.31c.33.48.52 1.06.52 1.69 0 1.66-1.34 3-3 3s-3-1.34-3-3c0-.51.13-1 .36-1.42.5-.94 1.49-1.58 2.64-1.58 1.03 0 1.94.52 2.48 1.31z" fill="#e6e9ed"/></g><g><circle cx="25" cy="49" fill="#e6e9ed" r="3"/></g><g><circle cx="25" cy="43" fill="#e6e9ed" r="3"/></g><g><path d="m25 52c1.66 0 3 1.34 3 3 0 .83-.34 1.58-.88 2.12s-1.29.88-2.12.88h-11c-.67 0-1.33-.08-1.95-.24-3.48-.87-6.05-4.01-6.05-7.76v-2h6v2c0 1.1.9 2 2 2z" fill="#f0d0b4"/></g><g><path d="m55.99 16.17 1.13.71c.54.54.88 1.29.88 2.12v6c0 9.26-7 16.89-16 17.89v-8.89h1c4.97 0 9-4.03 9-9l-.66-.33c-.82-.41-1.34-1.25-1.34-2.17 0-.55.19-1.08.52-1.5.21-.28.49-.51.82-.67l.66-.33v-1c0-.77.29-1.46.77-1.99.53-.62 1.34-1.01 2.23-1.01z" fill="#f0d0b4"/></g><g><path d="m31.54 14.07c.3.6.79 1.09 1.39 1.39.66.33 1.07 1 1.07 1.74 0 .51-.2 1-.57 1.37l-.43.43v1.15c0 .49-.35.91-.84.99l-3.35.56c-1.04.17-1.81 1.08-1.81 2.13 0 .6.24 1.14.64 1.53.39.4.93.64 1.53.64h2.83c.55 0 1 .45 1 1v1c0 1.1-.9 2-2 2h-2v1c0 .84.35 1.61.91 2.14v.01h-.01l-.02.04c-.62.91-1.44 1.64-2.4 2.12-.54-.79-1.45-1.31-2.48-1.31-1.15 0-2.14.64-2.64 1.58-.82-.31-1.58-.8-2.21-1.43l-.76-.76c.38-.51.61-1.14.61-1.82v-2.57-5l-2.93-2.2c-.67-.5-1.07-1.29-1.07-2.13 0-.74.3-1.41.78-1.89s1.15-.78 1.89-.78h1.33v-1.26c0-2.62 2.12-4.74 4.74-4.74.17 0 .35.01.52.03l3.5.39c.18.02.35.03.53.03l1 .14z" fill="#f0d0b4"/></g><g><path d="m52.76 17 .01.01c-.48.53-.77 1.22-.77 1.99v1l-.66.33c-.33.16-.61.39-.82.67h-10.52c-1.1 0-2-.9-2-2s.9-2 2-2z" fill="#dfb28b"/></g><g><path d="m56 16c0 .06 0 .11-.01.17l-.99-.17c-.89 0-1.7.39-2.23 1.01l-.01-.01h-12.76-1c-.55 0-1-.45-1-1 0-1.94.78-3.68 2.05-4.95s3.01-2.05 4.95-2.05h4c3.87 0 7 3.13 7 7z" fill="#cf9e76"/></g><g><path d="m50 22.5c0 .92.52 1.76 1.34 2.17l.66.33h-13c-.55 0-1-.45-1-1v-2c0-.55.45-1 1-1h1 10.52c-.33.42-.52.95-.52 1.5z" fill="#cf9e76"/></g></g><g><path d="m25.919 14.5h3.162v2h-3.162z" transform="matrix(.949 -.316 .316 .949 -3.491 9.497)"/><path d="m56.977 15.544c-.239-4.199-3.72-7.544-7.977-7.544h-4c-4.411 0-8 3.589-8 8 0 .51.198.971.513 1.324-.324.479-.513 1.056-.513 1.676s.189 1.197.513 1.676c-.315.353-.513.814-.513 1.324v2c0 1.103.897 2 2 2h11.929c-.495 3.94-3.857 7-7.929 7h-11c-1.103 0-2-.897-2-2h1c1.654 0 3-1.346 3-3v-1c0-1.103-.897-2-2-2h-2.835c-.643 0-1.165-.523-1.165-1.166 0-.572.41-1.056.974-1.15l3.354-.559c.969-.16 1.672-.99 1.672-1.972v-.739l.14-.14c.554-.554.86-1.292.86-2.077 0-1.12-.622-2.126-1.624-2.627-.406-.203-.743-.54-.946-.946l-.835-1.671c.542-.24 1.05-.563 1.499-.966 1.212-1.084 1.906-2.638 1.906-4.264 0-3.156-2.567-5.723-5.723-5.723h-8.277c-7.72 0-14 6.28-14 14v6.22l2.491-.498c-.324 1.456-.491 2.943-.491 4.44v1.838h1c3.09 0 6.124.84 8.772 2.43l.228.136v2.008c0 .937-.665 1.759-1.58 1.956l-3.726.798c-5.038 1.08-8.694 5.604-8.694 10.756v4.916c0 3.91 2.51 7.236 6 8.475v4.525h13 2 11v-19h3c10.477 0 19-8.523 19-19v-6c0-1.483-.821-2.766-2.023-3.456zm-11.977-5.544h4c2.968 0 5.433 2.168 5.909 5.009-.969.022-1.845.395-2.527.991h-13.382c0-3.309 2.691-6 6-6zm5.083 10h-10.083c-.552 0-1-.449-1-1s.448-1 1-1h11.142c-.084.322-.142.653-.142 1v.382l-.105.053c-.303.151-.574.343-.812.565zm-11.083 2h10.037c-.024.164-.037.331-.037.5 0 .533.126 1.042.349 1.5h-10.349zm-8.359-7.482c.396.792 1.05 1.445 1.841 1.841.32.16.518.481.518.838 0 .25-.098.486-.274.663l-.726.726v1.567l-3.355.559c-1.533.256-2.645 1.569-2.645 3.122 0 1.746 1.42 3.166 3.165 3.166h2.835v1c0 .551-.448 1-1 1h-5.146c-.763 0-1.448-.423-1.789-1.105l-.171-.342-1.789.895.171.342c.682 1.363 2.053 2.21 3.578 2.21h2.146c0 .796.24 1.534.642 2.158-.288.333-.618.628-.979.88-.709-.638-1.636-1.038-2.663-1.038-1.168 0-2.211.512-2.943 1.313-.435-.24-.846-.516-1.2-.871l-.228-.228c.231-.506.371-1.058.371-1.639v-8.075l-3.333-2.5c-.418-.313-.667-.812-.667-1.333 0-.919.748-1.667 1.667-1.667h2.333v-2.262c0-2.061 1.677-3.738 3.737-3.738.139 0 .277.008.413.022l3.494.389c.318.035.635.035.951.017zm-3.641 28.482c0 1.103-.897 2-2 2s-2-.897-2-2 .897-2 2-2 2 .897 2 2zm0 6c0 1.103-.897 2-2 2s-2-.897-2-2 .897-2 2-2 2 .897 2 2zm-4-12c0-1.103.897-2 2-2s2 .897 2 2-.897 2-2 2-2-.897-2-2zm-11.999-11.974c.011-1.605.243-3.194.667-4.74l1.529-.306-.393-1.961-3.804.761v-3.78c0-6.617 5.383-12 12-12h8.277c2.053 0 3.723 1.67 3.723 3.723 0 1.058-.452 2.068-1.24 2.774s-1.85 1.04-2.895.927l-3.495-.389c-.211-.023-.422-.035-.633-.035-3.163 0-5.737 2.574-5.737 5.738v.262h-.333c-2.022 0-3.667 1.645-3.667 3.667 0 1.148.548 2.244 1.467 2.933l2.533 1.9v2.767c-2.47-1.325-5.201-2.094-7.999-2.241zm3.112 11.257 3.725-.798c.568-.122 1.08-.375 1.527-.707l.078.078c.497.498 1.059.908 1.669 1.241-.068.291-.112.591-.112.903 0 1.201.542 2.266 1.382 3-.84.734-1.382 1.799-1.382 3s.542 2.266 1.382 3c-.84.734-1.382 1.799-1.382 3 0 .732.212 1.409.556 2h-7.556c-.552 0-1-.448-1-1v-7h-2v4h-4v-1.916c0-4.216 2.992-7.917 7.113-8.801zm-7.113 13.717v-1h4v1c0 1.654 1.346 3 3 3h11c1.103 0 2 .897 2 2s-.897 2-2 2h-11c-3.859 0-7-3.141-7-7zm6 11v-2.059c.329.037.662.059 1 .059h10v2zm24-19v-2h-2v21h-9v-2.142c1.721-.447 3-1.999 3-3.858 0-1.201-.542-2.266-1.382-3 .84-.734 1.382-1.799 1.382-3s-.542-2.266-1.382-3c.84-.734 1.382-1.799 1.382-3s-.542-2.266-1.382-3c.84-.734 1.382-1.799 1.382-3 0-.455-.093-.885-.233-1.293.494-.341.946-.744 1.348-1.201.564.305 1.2.494 1.885.494h9v6.949c-.333.02-.662.051-1 .051zm20-17c0 8.349-6.054 15.296-14 16.719v-6.719c5.514 0 10-4.486 10-10v-.618l-1.211-.605c-.486-.244-.789-.733-.789-1.277s.303-1.033.789-1.276l1.211-.606v-1.618c0-1.103.897-2 2-2s2 .897 2 2z"/><path d="m43 12h2v2h-2z"/><path d="m49 12h2v2h-2z"/></g></g></svg>