<svg id="Layer_1" enable-background="new 0 0 512 512" height="512" viewBox="0 0 512 512" width="512" xmlns="http://www.w3.org/2000/svg"><g><path d="m213.889 49.537c17.354 0 31.594 6.195 42.111 13.725 10.517-7.53 24.757-13.725 42.111-13.725 35.418 0 63.167 30.81 63.167 70.136 0 25.19-12.419 73.855-95.603 116.859-3.033 1.582-6.354 2.363-9.674 2.363-3.321 0-6.642-.781-9.674-2.363-83.184-43.004-95.603-91.669-95.603-116.859-.002-39.327 27.747-70.136 63.165-70.136z" fill="#f74f68"/><g><path d="m298.111 49.537c-5.728 0-11.116.675-16.143 1.85 28.072 7.199 48.405 34.623 48.405 68.286 0 24.595-11.84 71.569-89.825 113.802 1.887 1.022 3.813 2.041 5.778 3.057 3.033 1.582 6.354 2.363 9.674 2.363s6.642-.781 9.674-2.363c83.184-43.004 95.603-91.669 95.603-116.859.001-39.327-27.748-70.136-63.166-70.136z" fill="#e83a53"/></g><path d="m403.687 108.875h30.905v51.471h-30.905z" fill="#e8916f" transform="matrix(-1 0 0 -1 838.279 269.221)"/><path d="m387.914 259.439h61.811v-89.075c0-17.062-13.832-30.894-30.894-30.894h-.023c-17.062 0-30.894 13.832-30.894 30.894z" fill="#80deea"/><path d="m418.82 139.47c-5.631 0-10.906 1.512-15.453 4.142 9.235 5.34 15.453 15.312 15.453 26.741v89.086h30.905v-89.086c0-17.056-13.837-30.883-30.905-30.883z" fill="#4dd0e1"/><path d="m449.725 259.436v3.212c0 9.595-3.373 18.886-9.529 26.25-6.157 7.364-9.529 16.655-9.529 26.25v122.852h-30.905v-101.296c0-14.938-1.592-29.834-4.749-44.435l-7.098-32.832h61.81z" fill="#5297ba"/><path d="m418.808 117.029h.023c17.062 0 30.894-13.832 30.894-30.894v-16.447c0-17.062-13.832-30.894-30.894-30.894h-.023c-17.062 0-30.894 13.832-30.894 30.894v16.448c0 17.062 13.832 30.893 30.894 30.893z" fill="#ebad88"/><path d="m380.187 452.618h46.361c2.275 0 4.119-1.844 4.119-4.119v-28.822h-34.004c-11.375 0-20.596 9.221-20.596 20.596v8.226c0 2.274 1.845 4.119 4.12 4.119z" fill="#be652b"/><path d="m295.899 168.678c5.925-6.167 15.732-6.389 21.905-.495l37.928 36.212 36.05-42.259c13.919-15.084 36.301 3.819 23.585 19.99 0 0-46.71 54.754-46.71 54.754-5.491 6.709-16.391 7.273-22.519 1.172 0 0-49.788-47.534-49.788-47.534-6.172-5.894-6.375-15.673-.451-21.84z" fill="#ebad88"/><path d="m415.368 182.126c12.715-16.171-9.666-35.074-23.585-19.99l-24.229 28.401c6.707 5.933 15.707 14.08 22.981 20.698 12.15-14.241 24.833-29.109 24.833-29.109z" fill="#5297ba"/><path d="m459.41 50.619-.039 34.507c-.01 8.526-6.929 15.432-15.462 15.432-8.539 0-15.462-6.917-15.462-15.45 0-8.165-6.624-14.784-14.796-14.784h-8.636c-18.875 0-34.176-15.29-34.176-34.15 0-4.238 3.438-7.674 7.68-7.674h58.78c12.222 0 22.125 9.907 22.111 22.119z" fill="#d67b42"/><path d="m437.3 28.5h-30.905c12.221 0 22.124 9.907 22.111 22.119l-.039 34.507c0 .055-.008.109-.008.164.099 8.448 6.975 15.268 15.452 15.268 8.532 0 15.452-6.906 15.462-15.432l.039-34.507c.012-12.212-9.891-22.119-22.112-22.119z" fill="#be652b"/><path d="m77.401 108.875h30.905v51.471h-30.905z" fill="#e8916f"/><path d="m124.079 259.439h-61.811v-89.075c0-17.062 13.832-30.894 30.894-30.894h.023c17.062 0 30.894 13.832 30.894 30.894z" fill="#f48fb1"/><path d="m93.174 139.47c-5.631 0-10.906 1.512-15.453 4.142 9.235 5.34 15.453 15.312 15.453 26.741v89.086h30.905v-89.086c0-17.056-13.836-30.883-30.905-30.883z" fill="#f06292"/><path d="m62.268 259.436v3.212c0 9.595 3.373 18.886 9.529 26.25 6.157 7.364 9.529 16.655 9.529 26.25v122.852h30.905v-101.296c0-14.938 1.592-29.834 4.749-44.435l7.098-32.832h-61.81z" fill="#5297ba"/><path d="m93.186 117.029h-.023c-17.062 0-30.894-13.832-30.894-30.894v-16.447c0-17.062 13.832-30.894 30.894-30.894h.023c17.062 0 30.894 13.832 30.894 30.894v16.448c-.001 17.062-13.832 30.893-30.894 30.893z" fill="#ebad88"/><path d="m131.807 452.618h-46.361c-2.275 0-4.119-1.844-4.119-4.119v-28.822h34.004c11.375 0 20.596 9.221 20.596 20.596v8.226c-.001 2.274-1.845 4.119-4.12 4.119z" fill="#be652b"/><path d="m216.094 168.678c-5.925-6.167-15.732-6.389-21.905-.495l-37.928 36.212-36.05-42.259c-13.919-15.084-36.301 3.819-23.585 19.99 0 0 46.71 54.754 46.71 54.754 5.491 6.709 16.391 7.273 22.519 1.172 0 0 49.788-47.534 49.788-47.534 6.173-5.894 6.376-15.673.451-21.84z" fill="#ebad88"/><path d="m96.625 182.126c-12.715-16.171 9.666-35.074 23.585-19.99l24.229 28.401c-6.707 5.933-15.707 14.08-22.981 20.698-12.149-14.241-24.833-29.109-24.833-29.109z" fill="#5297ba"/><path d="m52.59 62.359.027 28.92c.013 14.226 11.558 25.751 25.794 25.751 2.836 0 5.135-2.297 5.135-5.132v-26.474c0-8.339 6.766-15.1 15.111-15.1h30.565c6.589 0 11.931-5.338 11.931-11.922 0-16.514-13.398-29.902-29.924-29.902h-24.787c-18.708 0-33.87 15.164-33.852 33.859z" fill="#d67b42"/><g><path d="m111.229 28.5h-24.787c-1.055 0-2.096.055-3.126.149 15.122 1.5 26.932 14.248 26.932 29.753 0 6.584-3.769 11.922-10.358 11.922h29.332c6.589 0 11.931-5.338 11.931-11.922.001-16.514-13.397-29.902-29.924-29.902z" fill="#be652b"/></g><path d="m496.559 483.5h-481.118c-8.528 0-15.441-6.913-15.441-15.441 0-8.528 6.913-15.441 15.441-15.441h481.118c8.528 0 15.441 6.913 15.441 15.441 0 8.528-6.913 15.441-15.441 15.441z" fill="#ffd54f"/><path d="m496.547 452.618h-30.905c8.534 0 15.453 6.913 15.453 15.441s-6.919 15.441-15.453 15.441h30.905c8.534 0 15.453-6.913 15.453-15.441s-6.919-15.441-15.453-15.441z" fill="#ffc328"/></g></svg>