<svg xmlns="http://www.w3.org/2000/svg" width="98.5" height="92.283" viewBox="0 0 98.5 92.283"><defs><style>.a{fill:#f17171;}.b{fill:#efedbc;}.c{fill:#f49294;}.d{fill:#ecf4e2;}.e{fill:#c76950;}.f{fill:#e17760;}</style></defs><g transform="translate(15.592)"><g transform="translate(0)"><path class="a" d="M951.916,303.286a10.372,10.372,0,0,0-2.524-2.837,23.393,23.393,0,0,0-4.987-3.094c-.122-.059-.224.08-.2.19-4-1.708-8.1-1.857-12.434-1.65a86.728,86.728,0,0,0-10.246,1.052,38,38,0,0,0-10.612,3.177c-2.444,1.212-5.174,3.169-6.075,5.884a.135.135,0,0,0-.051.032,38.342,38.342,0,0,1-2.817,2.874A16.239,16.239,0,0,1,898.406,311a42.005,42.005,0,0,1-8.29,2.441c-4.707,1.02-10.471,1.725-14.254,5.013a.135.135,0,0,0-.107.012,7.074,7.074,0,0,0-3.552,5.722c-.212,2.7.973,5.238,1.439,7.847.441,2.471.316,5.042,1.1,7.448a7.281,7.281,0,0,0,4.1,4.456.156.156,0,0,0,.053.079,18.98,18.98,0,0,0,7.317,2.868,56.539,56.539,0,0,0,9.112,1.086c3.011.168,6.028.193,9.042.228,1.7.02,3.39-.07,5.084-.2a29.534,29.534,0,0,0,5.668-.764.1.1,0,0,0,.07-.069c1.242-.134,2.486-.353,3.7-.527q3.174-.455,6.324-1.046a82.666,82.666,0,0,0,12.246-3.206,48.546,48.546,0,0,0,10.378-5.149c2.318-1.514,5.331-3.612,6.22-6.415.912-1.473.971-3.68,1.011-5.271.064-2.5-.227-4.986-.319-7.478-.094-2.561.4-5.1.237-7.667A10.291,10.291,0,0,0,951.916,303.286Z" transform="translate(-872.178 -295.823)"/><path class="b" d="M953.381,305.735l0,0a13.62,13.62,0,0,0-3.514-3.295,21.267,21.267,0,0,0-2.977-1.666c-.794-.368-2-1.14-2.9-1.052a28.569,28.569,0,0,0-6.73-.821,57.017,57.017,0,0,0-8.181.252,50.476,50.476,0,0,0-7.958,1.438,20.573,20.573,0,0,0-6.142,2.452,13.406,13.406,0,0,0-2.725,1.245,14.189,14.189,0,0,0-2.84,2.586c-2.02,2.322-3.643,4.69-6.483,6.1a20.639,20.639,0,0,1-4.287,1.405c-1.631.4-3.253.837-4.875,1.273-3.038.816-6.127,1.536-9.136,2.462a.071.071,0,0,0-.065-.036c-3.686.346-6.916,4.025-7.987,7.339-1.115,3.448.36,7.8,4.024,8.976l0,0c1.538,1.318,3.807,1.57,5.735,1.993a50.282,50.282,0,0,0,6.741.891c2.951.237,5.888.613,8.845.774a31.891,31.891,0,0,0,7.454-.243,86.97,86.97,0,0,0,10.725-1.247c3.679-.549,7.313-1.3,10.919-2.205a70.562,70.562,0,0,0,10-3.328,24.254,24.254,0,0,0,6.61-3.856.081.081,0,0,0,.049-.012,17.344,17.344,0,0,0,4.248-4.63,20.4,20.4,0,0,0,2.837-5.475,14.11,14.11,0,0,0,.655-5.614A10.964,10.964,0,0,0,953.381,305.735Z" transform="translate(-874.565 -297.611)"/><path class="c" d="M956.136,310.228c-.83-2.994-3.227-5.042-6.059-6.276a19.028,19.028,0,0,0-4.977-1.319,13.286,13.286,0,0,0-5.129.04c-.009,0-.014.01-.021.015a29.362,29.362,0,0,0-4.522-.077,37.308,37.308,0,0,0-4.38.337,57.234,57.234,0,0,0-9.648,2.194,19.606,19.606,0,0,0-6.622,3.485c-2.229,1.829-3.972,4.225-6.065,6.213a.072.072,0,0,0-.1-.033,30.848,30.848,0,0,1-5.159,2.1c-1.711.48-3.434.9-5.166,1.3-3.179.73-6.717,1.3-9.687,2.746-3.814,1.261-8.109,4.824-6.923,9.221.577,2.142,2.545,3.871,4.358,5.042a20.184,20.184,0,0,0,6.639,2.521,73,73,0,0,0,16.353,1.4,94.342,94.342,0,0,0,19.743-2.413c3.7-.836,7.376-1.881,10.977-3.074,3.369-1.117,7.073-2.479,9.592-5.058a12.253,12.253,0,0,0,3.323-2.813,20.821,20.821,0,0,0,3.2-4.9,15.432,15.432,0,0,0,1.47-5.417A8.161,8.161,0,0,0,956.136,310.228Z" transform="translate(-877.675 -299.709)"/><path class="b" d="M998.776,318.439a16.6,16.6,0,0,0-6.753.576,11.777,11.777,0,0,0-4.7,1.7c-1,.58-2.507,1.6-2.266,2.954.312,1.752,3.475,2.279,4.829,2.445a14.973,14.973,0,0,0,7.188-1,14.416,14.416,0,0,0,3.594-1.741c.866-.557,2.027-1.385,1.9-2.555C1002.42,319.334,999.9,318.656,998.776,318.439Z" transform="translate(-938.859 -309.091)"/></g><path class="d" d="M897.989,348.753c-3.633,2-4.758,3.186-3.619,7.532.743,2.832,2.837,6.3,5.913,6.992-8.2-1.849-15.311-9.273-4.994-14.231Z" transform="translate(-882.802 -327.097)"/><path class="d" d="M935.108,346.024c1.839,1.788,5.977.4,7.176-1.729,1.52-2.695-.651-5.018-1.193-7.687-1.521-7.485,2.258-8.23,6.216-13.413-3.835,5.685-6.98,9.877-3.423,16.764.957,1.854,3.456,5.255,5.6,5.813,3.244.844,6.005-2.726,9.324-1.16-1.876,3.049-11.031,1.8-13.987,1.8a17.483,17.483,0,0,0-6.6.865c-1.606.522-6.539,2.329-5.088-1.432Z" transform="translate(-908.04 -311.996)"/><path class="d" d="M1011.636,338.753c1.817-1.6-2.9-2.445-4.176-4.007-1.505-1.848-2.057-4.751-.077-6.508,2.062,2.369,1.191,5.061,4.142,6.19,3.577,1.369,5.3-1.745,7.787-3.553,8.018-5.834-1.154-3.139-2.08-9.451,1.75.029,7.264,3.842,9.029,2.333,2.414-2.065-3.634-5.7-3.1-8.079,7.489,3.291,5.19,10.3,1.825,15.611-3.013,4.758-12.168,3.832-13.562,9.05Z" transform="translate(-951.308 -307.554)"/></g><g transform="translate(0 45.11)"><path class="e" d="M751.2,400.895c-1.255,3.639.693,7.724.124,11.405a59.184,59.184,0,0,0,34.418,8.246,40.253,40.253,0,0,1,17.481,2.256c4.658,1.637,13.073,5.79,17.967,4.79,5.882-1.2,8.767-8.747,10.843-13.553-.727-.442-1.032-1.369-1.521-1.79Z" transform="translate(-750.774 -380.572)"/><path class="e" d="M829.318,371.888c4.227,4.127,4.959,12.372,1.6,17.318-3.767,5.542-9.74,5.385-15.5,4.068-7.073-1.617-13.572-5.089-20.727-6.477-12.771-2.479-32.195.771-41.146-11.5-6.437-8.828,15.164-18.518,21.259-21.6,13.693-6.916,23.341,2.242,35.158,8.365C816.118,365.254,824.255,366.945,829.318,371.888Z" transform="translate(-751.708 -351.223)"/><path class="f" d="M830.6,385.375c-2.4,9.36-23.04-.658-28.8-1.968-8.8-2-18.032-1-26.963-1.654-7.338-.541-22.861-4.1-15.882-14.609,2.342-3.526,6.732-5.722,10.389-7.6a60.869,60.869,0,0,1,12.12-4.885c10.633-2.834,18.464,3.768,27.429,8.213,8.9,4.413,26.472,8.412,21.036,21.887-.589,1.459,1.759,2.131,2.342.686,5.877-14.568-11.336-19.67-21.43-24.332-9.313-4.3-16.6-10.806-27.45-9.335-8.522,1.155-18.689,6.2-24.873,12.153-5.574,5.364-4.525,12.921,2.007,16.679,8.273,4.758,19.273,3.834,28.4,4,5.506.1,11.387.355,16.583,2.352q3.859,1.483,7.828,2.639c5.063,1.468,11.914,3.256,16.825.451a6.2,6.2,0,0,0,2.774-3.992c.39-1.521-1.951-2.212-2.342-.686Z" transform="translate(-753.222 -351.424)"/><path class="f" d="M833.919,392.058c.06.3-8.742-.571-9.273-.658-3.222-.525-6.413-1.22-9.61-1.877-11.442-2.349-22.928-1.18-34.474-2.24-2.111-.194-9.348-.74-7.12-5.007,1.251-2.4,4.321-3.934,6.57-5.2a32.061,32.061,0,0,1,18.943-4.066c6.778.646,12.459,4.172,18.389,7.149,3.039,1.525,6.176,2.858,9.254,4.3,2.536,1.188,8.178,2.778,7.447,6.574-.295,1.531,2.044,2.231,2.342.686,1.245-6.464-6.575-8.46-11.191-10.582-8.129-3.738-15.781-8.835-24.726-10.364-7.442-1.272-15.084.564-21.63,4.164-3.065,1.685-11.767,7.176-7.409,11.638,4.56,4.669,14.621,3.587,20.442,3.609,7.964.031,15.673.274,23.5,1.9,2.667.553,22.181,5.839,20.915-.608-.3-1.545-2.671-.952-2.368.59Z" transform="translate(-762.272 -362.535)"/><path class="f" d="M829.08,393.853c-6.072-4.76-14.861-7.205-22.434-7.889-5.6-.506-13.635,1.176-17.355,5.724a1.234,1.234,0,0,0,.819,2.107c3.507.081,6.924-.682,10.419-.847a56.726,56.726,0,0,1,11.773.609c4.844.783,10.612-.113,15.22,1.822l-.243-2.242-.093.064c-1.284.884-.126,3.033,1.171,2.141l.093-.064a1.236,1.236,0,0,0-.243-2.241c-5-2.1-11.348-1.2-16.585-2.043-7.326-1.185-14.212.527-21.474.36l.819,2.108c3.79-4.633,11.574-5.425,17.1-4.926,6.548.591,14.551,3.333,19.73,7.392,1.239.972,2.506-1.117,1.284-2.076Z" transform="translate(-773.334 -371.698)"/></g></svg>