<svg xmlns="http://www.w3.org/2000/svg" width="243" height="255.228" viewBox="0 0 243 255.228"><defs><style>.a{fill:#61c9a8;}.b{fill:#ddd5b1;}.c{fill:#e0b2a4;}.d{fill:#6f69e0;}.e{fill:#3d3d3d;}.f{fill:#ffcdbb;}.g{fill:#303030;}.h{fill:#444;}.i{fill:#383838;}.j{fill:#d6d6d6;}.k{fill:#eaeaea;}.l{fill:#cc906e;}.m{fill:#c18263;}.n{fill:#ccc;}.o{fill:#a0997d;}.p{fill:#ddd;}.q{fill:#c1c1c1;}.r{fill:#5a5ab7;}.s{fill:#c1988b;}.t{fill:#99e57c;}.u{fill:#47935b;}.v{fill:#7cd65f;}</style></defs><g transform="translate(-662 -284.849)"><path class="a" d="M929.371,587.418c-3.426-15.765-17.463-29.213-32.167-35.851-7.076-3.194-15.11-4.822-23.164-2.366-23.429,7.145-31.566,33.295-62.31,38.383-47.189,7.81-30.241,78.427,20.936,94.379s93.4-25.721,98.366-60.15C933.359,605.7,931.155,595.625,929.371,587.418Z" transform="translate(-73.729 -179.498)"/><path class="b" d="M664.726,1171.233H902.565a2.438,2.438,0,0,0,1.4-4.473l-44.384-29.339a2.548,2.548,0,0,0-1.4-.421H703.647a2.547,2.547,0,0,0-1.531.51l-38.921,29.339A2.439,2.439,0,0,0,664.726,1171.233Z" transform="translate(-0.159 -631.156)"/><path class="c" d="M1036.478,804.905s10.155,2.4,14.823-7.452,28.527-1.3,28.527-1.3a9.343,9.343,0,0,0,9.6,8.558l9.336,22.562-62.76-3.89Z" transform="translate(-277.007 -376.153)"/><path class="d" d="M915.052,913.32c.1-2.075-8.457-77.542,38.743-77.542,0,0,2.075,10.114,21.006,10.114S994.252,835,994.252,835s25.934,3.371,30.861,18.932c4.783,15.106,5.75,36.048,5.08,59.907" transform="translate(-187.022 -407.476)"/><path class="e" d="M1000.343,1022.889c-1.54-27.456,2.814-41.4,2.859-41.541l.247.079c-.044.138-4.383,14.046-2.847,41.447Z" transform="translate(-250.354 -515.87)"/><path class="e" d="M1267.13,1019.889l-.259-.015c1.537-27.408-2.8-41.31-2.847-41.447l.247-.079C1264.315,978.485,1268.669,992.433,1267.13,1019.889Z" transform="translate(-445.896 -513.648)"/><path class="f" d="M1038.838,574.741s-9.987,39.654,12.714,53.068,48.686-19.094,40.991-48.009S1040.918,552.666,1038.838,574.741Z" transform="translate(-277.489 -202.408)"/><path class="g" d="M1222.249,613.718s2.949,6.648-7.276,10.113c0,0,12.131,5.331,10.1,15.158C1225.071,638.989,1230.073,622.672,1222.249,613.718Z" transform="translate(-409.566 -243.581)"/><path class="h" d="M1016.914,542.823s-1.873,43.293,39.732,40.083S1061.9,527.723,1016.914,542.823Z" transform="matrix(0.978, -0.208, 0.208, 0.978, -354.36, 32.691)"/><path class="i" d="M1113.514,716.4a6.053,6.053,0,0,1-3.978-1.385,1.39,1.39,0,0,1-.532-1.369c.217-.724,1.888-4.861,3.363-8.512,1.005-2.49,2.045-5.064,2.1-5.277l.167.044.345.032c-.012.128-.331.935-2.132,5.4-1.4,3.46-3.137,7.766-3.347,8.467-.095.316.206.665.394.845a5.707,5.707,0,0,0,5.324.968l.169.49A5.753,5.753,0,0,1,1113.514,716.4Z" transform="translate(-331.05 -307.383)"/><g transform="translate(732.319 481.726)"><path class="j" d="M1030.943,1197.744s5.458,2.484,24.808,2.484c20.249,0,25.5-2.484,25.5-2.484Z" transform="translate(-1005.581 -1157.872)"/><path class="k" d="M952.132,1143.166s-27.222,4.4-16.472,10.637,85.456,6.487,96.749,0c12-6.9-16.662-10.637-16.662-10.637Z" transform="translate(-933.147 -1117.448)"/><path class="j" d="M977.752,1158.658s-11,1.537-4.369,3.866,47.478,6.808,75.428,0c0,0,5.61-2.175-5.168-2.61S977.752,1158.658,977.752,1158.658Z" transform="translate(-961.374 -1128.923)"/><g transform="translate(15.509)"><path class="l" d="M995.7,1067.465l13.608-11.013c12.1-9.79,27.89-9.815,39.932.071a48.763,48.763,0,0,1,9.976,10.928,8.649,8.649,0,0,1,1.361,4.7v1.552c0,4.142-2.766,7.5-6.178,7.5H999.127c-3.412,0-6.178-3.358-6.178-7.5h0A8.034,8.034,0,0,1,995.7,1067.465Z" transform="translate(-992.949 -1047.784)"/><path class="m" d="M1146.864,1095.2l6.249-4.387a6.237,6.237,0,0,1,7.458.239l5.1,4.1a5.836,5.836,0,0,1-1.807,10.106l-6.078,2.145a6.266,6.266,0,0,1-4.163,0l-5.266-1.859A5.838,5.838,0,0,1,1146.864,1095.2Z" transform="translate(-1105.08 -1077.839)"/><path class="m" d="M1207.055,1087.26s.474-2.6,6.644-2.6a2.953,2.953,0,0,0,2.136,2.6s1.564,5.218-2.066,6.249S1207.055,1087.26,1207.055,1087.26Z" transform="translate(-1151.529 -1074.115)"/><path class="n" d="M1232.51,1054.545l5.928-6.031a1.562,1.562,0,0,0,.329-1.6c-.315-.908-.511-2.269.862-2.77a1.546,1.546,0,0,1,2.185,1.038,1.013,1.013,0,0,0,.927.7,1.823,1.823,0,0,1,1.87,1.119c.419,1.147-.825,2.9-2.754,2.583a1.554,1.554,0,0,0-1.465.559l-5.747,7S1232.036,1056.624,1232.51,1054.545Z" transform="translate(-1170.34 -1044)"/></g></g><rect class="o" width="243" height="5.446" rx="2.723" transform="translate(662 534.631)"/><path class="p" d="M1325.983,972.968l.247,14.093,1.815.259v-14.06a2.008,2.008,0,0,1,.72-1.535c1.917-1.614,6.763-6.717,3.17-14.748-4.409-9.855-9.336-4.668-10.633,0-1.251,4.5-.812,11.66,4.108,14.954A1.277,1.277,0,0,1,1325.983,972.968Z" transform="translate(-487.88 -493.665)"/><ellipse class="q" cx="4.279" cy="2.334" rx="4.279" ry="2.334" transform="translate(834.719 471.871)"/><g transform="translate(832.126 485.097)"><circle class="r" cx="10.374" cy="10.374" r="10.374" transform="translate(0 2.075)"/><path class="f" d="M1320.094,1081.465c-.107-.034-.214-.068-.323-.1a2.607,2.607,0,0,1-1.771-2.477v-.659a2.617,2.617,0,0,1,2.317-2.6l.755-.087a.246.246,0,0,0,0-.489l-.755-.087a2.617,2.617,0,0,1-2.317-2.6h0a2.617,2.617,0,0,1,2.234-2.589l1.278-.189a.246.246,0,0,0-.009-.488l-1.174-.13a2.617,2.617,0,0,1-2.328-2.6v-.105a2.617,2.617,0,0,1,2.328-2.6l.861-.1a.246.246,0,0,0,0-.489l-.861-.1a2.617,2.617,0,0,1-2.328-2.6v-.23a2.615,2.615,0,0,1,2.038-2.553c3.333-.752,9.956-1.315,13.73,1.732,3.029,2.446,2.964,7.85,2.385,11.926A12.505,12.505,0,0,1,1320.094,1081.465Z" transform="translate(-1318 -1057)"/><path class="s" d="M1365.794,1116.553l-.221-.135a12.856,12.856,0,0,0,2.058-8.465l.254-.051A13.137,13.137,0,0,1,1365.794,1116.553Z" transform="translate(-1353.235 -1094.701)"/><path class="s" d="M1331.411,1080.44a2.332,2.332,0,0,1-.438-.036l.052-.254a2.867,2.867,0,0,0,1.341-.126l.082.246A3.3,3.3,0,0,1,1331.411,1080.44Z" transform="translate(-1327.609 -1074.054)"/><path class="s" d="M1332.237,1102.728a.41.41,0,0,1-.1-.009l.064-.251-.032.126.026-.127a3.8,3.8,0,0,0,1.543-.43l.1.241A4.9,4.9,0,0,1,1332.237,1102.728Z" transform="translate(-1328.471 -1090.356)"/><path class="s" d="M1331.481,1127.321a1.161,1.161,0,0,1-.724-.178l.164-.2-.082.1.08-.1s.352.256,1.3.019l.063.252A3.3,3.3,0,0,1,1331.481,1127.321Z" transform="translate(-1327.449 -1108.802)"/></g><path class="e" d="M1078.9,862.764a28.568,28.568,0,0,1-5.052-.455c-10.338-1.853-17.556-9.029-17.793-9.5l.23-.119c.391.644,8.017,8.076,18.776,9.551,9.339,1.28,18.4-2.12,26.924-10.1l.177.189C1094.745,859.266,1086.94,862.764,1078.9,862.764Z" transform="translate(-291.86 -420.167)"/><path class="p" d="M915.112,1013.223l-.317-19.749a2.034,2.034,0,0,0-.66-1.452c-.821-.766-2.135-2.6-2.135-6.527a27.315,27.315,0,0,1,1.348-8.782.107.107,0,0,1,.208.034v10.011a.812.812,0,0,0,.811.811h0a.787.787,0,0,0,.786-.743l.453-10.233a.03.03,0,0,1,.06,0l.682,10.256a.787.787,0,0,0,.784.722h0a.787.787,0,0,0,.786-.831l-.188-9.87a.083.083,0,0,1,.158-.038,21.325,21.325,0,0,1,1.632,8.664,13.3,13.3,0,0,1-2.025,6.4,2.66,2.66,0,0,0-.435,1.432l-.133,20.144a.025.025,0,0,1-.028.024l-1.767-.253A.024.024,0,0,1,915.112,1013.223Z" transform="translate(-185.165 -512.327)"/><g transform="translate(717.239 487.172)"><circle class="r" cx="10.374" cy="10.374" r="10.374" transform="translate(0 2.075)"/><path class="f" d="M900.167,1089.465c.107-.034.214-.068.323-.1a2.607,2.607,0,0,0,1.772-2.477v-.659a2.617,2.617,0,0,0-2.317-2.6l-.755-.087a.246.246,0,0,1,0-.489l.755-.087a2.617,2.617,0,0,0,2.317-2.6h0a2.617,2.617,0,0,0-2.234-2.589l-1.278-.189a.246.246,0,0,1,.009-.488l1.175-.13a2.617,2.617,0,0,0,2.328-2.6v-.105a2.617,2.617,0,0,0-2.328-2.6l-.861-.1a.246.246,0,0,1,0-.489l.861-.1a2.617,2.617,0,0,0,2.328-2.6v-.23a2.615,2.615,0,0,0-2.038-2.553c-3.333-.752-9.956-1.315-13.73,1.732-3.029,2.446-2.964,7.85-2.385,11.926A12.506,12.506,0,0,0,900.167,1089.465Z" transform="translate(-881.514 -1065)"/><path class="s" d="M900.332,1124.553a13.135,13.135,0,0,1-2.091-8.651l.254.051a12.879,12.879,0,0,0,2.058,8.465Z" transform="translate(-892.144 -1102.701)"/><path class="s" d="M937.378,1088.44a3.3,3.3,0,0,1-1.036-.169l.082-.246a2.871,2.871,0,0,0,1.341.126l.052.254A2.342,2.342,0,0,1,937.378,1088.44Z" transform="translate(-920.434 -1082.054)"/><path class="s" d="M935.913,1110.728a4.9,4.9,0,0,1-1.6-.451l.1-.241a3.819,3.819,0,0,0,1.543.43l.059.253A.409.409,0,0,1,935.913,1110.728Z" transform="translate(-918.932 -1098.356)"/><path class="s" d="M937.176,1135.321a3.3,3.3,0,0,1-.8-.11l.063-.252c.943.236,1.292-.017,1.3-.019l.162.2A1.161,1.161,0,0,1,937.176,1135.321Z" transform="translate(-920.461 -1116.802)"/></g><ellipse class="k" cx="1.504" cy="1.47" rx="1.504" ry="1.47" transform="matrix(0.873, -0.487, 0.487, 0.873, 753.77, 367.185)"/><ellipse class="k" cx="3.007" cy="2.939" rx="3.007" ry="2.939" transform="matrix(0.873, -0.487, 0.487, 0.873, 746.327, 363.381)"/><ellipse class="k" cx="6.014" cy="5.879" rx="6.014" ry="5.879" transform="matrix(0.873, -0.487, 0.487, 0.873, 733.633, 355.775)"/><rect class="k" width="65.613" height="64.133" rx="32.067" transform="matrix(0.873, -0.487, 0.487, 0.873, 669.639, 316.81)"/><path class="t" d="M849.679,450.582a30.167,30.167,0,0,0-5.905,6,.511.511,0,0,1-.919-.363l1.066-7.927-5.214-1.008-2.354,7.293a.516.516,0,0,1-.978.025,46.032,46.032,0,0,0-4.044-8.278l-1.744-.684-.55,1.717c3.688,7.046,4.6,15.489,4.718,18.3a1.232,1.232,0,0,0,1.1,1.174l6.056.68a1.3,1.3,0,0,0,1.367-.859c.993-2.89,4.634-11.718,9.852-15.3Z" transform="translate(-123.717 -119.089)"/><path class="u" d="M888.914,465.021l-1-.313a30.167,30.167,0,0,0-5.905,6,.511.511,0,0,1-.919-.363l-.425,3.162a.69.69,0,0,0,.613.779.732.732,0,0,0,.754-.454C883.588,470.066,886.844,466.826,888.914,465.021Z" transform="translate(-161.948 -133.215)"/><path class="v" d="M840.859,447.7l-2.153-.416-2.354,7.292a.516.516,0,0,1-.978.025,46.066,46.066,0,0,0-4.044-8.278l-1.744-.684-.55,1.717c3.688,7.046,4.6,15.489,4.718,18.3a1.231,1.231,0,0,0,1.1,1.174l2.133.24Z" transform="translate(-123.717 -119.089)"/><path class="u" d="M829.036,448.224c3.688,7.046,4.6,15.489,4.718,18.3a1.232,1.232,0,0,0,1.1,1.174l.118.013c.373-11.675-3.989-18.811-5.485-20.9Z" transform="translate(-123.717 -119.96)"/><path class="v" d="M828.909,392.97a7.125,7.125,0,0,0-.97-.034,9.227,9.227,0,0,0-8.176-7.952,9.73,9.73,0,0,0-7.76,2.6,7.565,7.565,0,0,0-2.1-.549,7.786,7.786,0,0,0-8.282,5.421,5.828,5.828,0,0,0-5.893,5,5.531,5.531,0,0,0,4.909,6.245,5.847,5.847,0,0,0,5.255-2.227,7.592,7.592,0,0,0,2,.513,7.72,7.72,0,0,0,4.113-.676,9.316,9.316,0,0,0,5.241,2.359,9.645,9.645,0,0,0,4.531-.582,6.8,6.8,0,0,0,5.284,3.582,7.125,7.125,0,0,0,7.843-6.077A6.761,6.761,0,0,0,828.909,392.97Z" transform="translate(-99.013 -74.121)"/><path class="u" d="M821.642,414.01a1.277,1.277,0,0,0-1.194-.738,7.883,7.883,0,0,1-1.06-.047,8.02,8.02,0,0,1-6.422-4.6,1.232,1.232,0,0,0-1.1-.706c-.231-.005-.463-.02-.7-.047a8,8,0,0,1-7.152-7.823,7.723,7.723,0,0,0-2.39,3.615,5.814,5.814,0,0,0-5.945,5.814,5.519,5.519,0,0,0,3.964,5.236,5.836,5.836,0,0,0,6.251-2.029,7.569,7.569,0,0,0,2,.513,7.724,7.724,0,0,0,4.112-.676,9.317,9.317,0,0,0,5.241,2.359,9.645,9.645,0,0,0,4.531-.582Z" transform="translate(-99.011 -85.325)"/></g></svg>