<svg xmlns="http://www.w3.org/2000/svg" xmlns:xlink="http://www.w3.org/1999/xlink" width="93.07" height="93" viewBox="0 0 93.07 93"><defs><style>.a{fill:#b8dcd2;}.b{fill:#eeebd0;}.c{clip-path:url(#a);}.d{fill:#dcd9d9;}.d,.i,.m,.n,.o,.p{mix-blend-mode:multiply;isolation:isolate;}.e{fill:#c3242c;}.f{fill:#f5a488;}.g{fill:#101a2e;}.h{fill:#8ca1d3;}.i{fill:#ded8d5;}.j,.k,.m,.n,.p{fill:none;stroke-linecap:round;stroke-linejoin:round;}.j{stroke:#420f0c;stroke-width:1.753px;}.k{stroke:#891d1f;}.k,.m{stroke-width:3.814px;}.l{fill:#f18c6e;}.m{stroke:#bdb5af;}.n{stroke:#ded8d5;stroke-width:2.63px;}.o{fill:#f5b4b0;}.p{stroke:#f5b4b0;stroke-width:0.906px;}</style><clipPath id="a"><circle class="a" cx="46.5" cy="46.5" r="46.5"/></clipPath></defs><path class="b" d="M46.5,0A46.5,46.5,0,1,1,0,46.5,46.5,46.5,0,0,1,46.5,0Z" transform="translate(0.07)"/><g class="c"><g transform="translate(-2.061 -82.107)"><path class="d" d="M768.376,1709.845c-2.636-7.948-13.253-10.712-19.772-12.315a66.464,66.464,0,0,0-32.6.424,25.881,25.881,0,0,0-7.213.128,100.932,100.932,0,0,0-13.8,2.36,60.406,60.406,0,0,0-12.669,4.259c-2.837,1.385-5.334,3.112-6.372,6.517-2.55,8.362,8.559,10.379,13.379,10.987,7.426.937,15.038.549,22.473-.1,5.424-.473,10.777,1.034,16.014,2.443,6.644,1.786,13.356,3.722,20.245,3.49a25.346,25.346,0,0,0,17.049-7.611C767.752,1717.811,769.683,1713.783,768.376,1709.845Z" transform="translate(-675.581 -1366.269)"/><g transform="translate(14.576 0)"><path class="e" d="M825.878,99.618c-5.914,5.355-10.128,12.2-11.038,20.435-.432,3.9-.572,7.644.79,11.319,1.111,2.99,3.6,5.95,2.528,9.463-.839,2.757-3.794,4.851-4.933,7.688a17.6,17.6,0,0,0-.724,10.027c1.484,7.537,8.121,12.773,8.845,20.45.779,8.287-2.948,16.93-6.114,24.481-2.606,6.213-6.464,11.894-5.515,18.826,1.071,7.817,8.019,11.561,6.719,20.087-1.186,7.782.527,14.551,7.717,18.909,6.776,4.107,14.067,3.254,20.462-1.215,7.016-4.9,8.109-10.607,9.7-18.5a157.635,157.635,0,0,0,2.719-32.019c-.035-13.06-2.021-26.416,4.443-38.02,6.3-11.3-4.612-18.336-7.749-28.232-2.484-7.835,2.161-15.784.1-23.668-1.931-7.38-7.993-14.121-14.765-17.433C837.91,101.645,826.531,99.027,825.878,99.618Z" transform="translate(-796.965 -93.9)"/><g transform="translate(2.476 62.156)"><path class="f" d="M782.743,378.236c-9.627-1.352-10.05,16.75-11.914,22.7-1.778,5.672-3.286,19.695-3.8,22.545l-7.394,19c3.947-.531,13.606-16.292,14.63-18.459,3.58-7.567,9.488-28.066,11.109-35.127C787.142,381.228,782.743,378.236,782.743,378.236Z" transform="translate(-759.64 -378.164)"/></g><g transform="translate(14.251 227.551)"><path class="f" d="M846.185,1232.825c1.046-15.38-2.346-20.147-1.574-30.81-.376-6.445-3.064-8.1-6.405-8.517-4.3-.538-7.615,6.415-7.615,6.415,1.259,9.432-1.719,17.3-1.519,33.13.228,18.213,10.491,64.575,10.491,64.575-.31,2.665-5.4,5.82-10.935,9.052,0,0-2.953,2.781-2.683,3.408.7,1.639,1.46,1.529,2.95,1.366,3.8-.416,7.015-2.021,10.6-2.835,1.827-.416,5.457-.834,6.631-2.487,1.431-2.018.155-4.266-.04-6.733l.154-2.475C846.24,1296.871,845.143,1248.2,846.185,1232.825Z" transform="translate(-824.255 -1193.468)"/><path class="f" d="M951.142,1306.669c-5.536-3.231-10.626-6.387-10.934-9.052,0,0-.052-.351-.118-.913,0-.011,7.82-45.451,8.051-63.662.2-15.832-2.78-23.7-1.52-33.13,0,0-3.317-6.953-7.615-6.415-3.342.416-6.029,2.072-6.406,8.517.772,10.663-2.621,15.43-1.576,30.81s2.536,64.55,2.536,64.55h0l.125,2.013c-.194,2.467-1.471,4.714-.039,6.733,1.173,1.653,4.8,2.071,6.631,2.487,3.582.814,6.8,2.419,10.6,2.835,1.489.164,2.245.274,2.95-1.366C954.1,1309.45,951.142,1306.669,951.142,1306.669Z" transform="translate(-907.871 -1193.468)"/><path class="g" d="M830.349,1725.368c-2.025.729-6.157,2.592-8.292,1.018-2.333,1.38-4.19,2.735-4.334,3.4-.428,1.947,2.75,2.081,4.239,1.916,3.8-.417,7.279-2.089,10.861-2.9,1.829-.414,5.855-.96,7.029-2.614,1.255-1.77.87-4.472-.225-6.187C837.471,1722.916,833.656,1724.18,830.349,1725.368Z" transform="translate(-817.684 -1613.185)"/><path class="g" d="M949.687,1725.368c2.026.729,6.159,2.592,8.291,1.018,2.335,1.38,4.191,2.735,4.337,3.4.427,1.947-2.751,2.081-4.241,1.916-3.8-.417-7.277-2.089-10.859-2.9-1.829-.414-5.856-.96-7.029-2.614-1.257-1.77-.871-4.472.224-6.187C942.564,1722.916,946.379,1724.18,949.687,1725.368Z" transform="translate(-914.709 -1613.185)"/></g><path class="f" d="M925.248,232.04c-2.121,4.69-3.214,25.588-2.909,30.116-2.61,4.461-10.488,3.494-11.1,2.553-.5-.766,4.185-17.374,1.007-21.892-2.72-3.86-4.1-5.421-2.093-7.408,3.6-3.574,8.5-4.642,13.148-5.8Z" transform="translate(-876.383 -197.587)"/><path class="h" d="M782.187,405.6c-5.528,26.532-9.377,99.411-13.327,132.183,0,0,.128,9.446,32.856,9.446s37.711-9.446,37.711-9.446c-1.136-33.669-4.212-82.393-12.15-105.922-5.43-16.093,2.758-62.2,1.9-64.756-.76-2.267-4.154-2.642-9.979-3.27,0,0-25.071,1.424-28.123,1.984a9.325,9.325,0,0,0-2.978,1.233c-1.6,7.06-5.911,11.874-10.479,22.89C774.248,398.07,782.187,405.6,782.187,405.6Z" transform="translate(-764.513 -304.584)"/><path class="f" d="M896.335,323.961c.534,4.444,6.848,8.089,8.3,8.089,0,0-12.248,10.777-22.352,11.8-8.695.881-5.772-9.82-5.772-9.82,4.446-1.029,9.893-5.47,10.419-9.284a41.5,41.5,0,0,0,5.347-.461Z" transform="translate(-849.953 -272.801)"/><path class="i" d="M912.957,244.447c1.555.323,3.373-.019,5.067.376a6.521,6.521,0,0,1,4.741,3.924c.487-6.872,1.334-14.168,2.483-16.707l-1.948-2.434c-4.647,1.161-9.546,2.229-13.148,5.8-2,1.987-.627,3.548,2.093,7.408A5.166,5.166,0,0,1,912.957,244.447Z" transform="translate(-876.383 -197.587)"/><g transform="translate(56.569 60.15)"><path class="f" d="M1029.571,368.318c9.665-1.045,9.514,17.059,11.188,23.067,1.6,5.726,4.307,18.51,6.212,24.111,1.176,3.459,2.618,5.515-.473,8.027s-5.615.7-6.57-1.492c-3.339-7.678-11.933-36.032-13.33-43.14C1025.079,371.17,1029.571,368.318,1029.571,368.318Z" transform="translate(-1026.284 -368.275)"/></g><path class="h" d="M776.14,562.736s-18.346,18.227-16.186,39.859c1.749,17.517,11.574,23.772,11.812,34.836" transform="translate(-757.273 -463.137)"/><path class="i" d="M815.314,874.8c-22.259,2.066-26.788-2.7-26.81-2.46-1.059,11.324-2.587,34.182-2.587,34.182C789.718,888.073,793.656,881.131,815.314,874.8Z" transform="translate(-778.111 -709.93)"/><path class="i" d="M834.555,564.151c6.022,2.846,14.282-1.415,16.894-1.415s10.152,8.252,19.241.355c-9.742,10.284-17.637.207-20.429,1.333C840.672,568.3,834.555,564.151,834.555,564.151Z" transform="translate(-816.881 -463.137)"/><g transform="translate(23.586)"><path class="f" d="M879.38,137.1c-1.679,3.959-.813,5.794-.579,9.523a35.226,35.226,0,0,0,.746,7.149c.817,3.676,3.911,6.729,7.084,9.026,5.2,3.416,10-.608,12.965-4.987,5.806-8.582,5.349-17.4,3.273-22.084-2.917-6.767-9.387-7.075-15.71-5.61C887.159,130.113,882.015,130.886,879.38,137.1Z" transform="translate(-875.393 -117.708)"/><path class="f" d="M992.468,211.207c.932-2.431,5.079-4.215,5.079-.211,0,3.3-4.587,9.538-5.492,3.195Z" transform="translate(-966.016 -180.868)"/><g transform="translate(3.575 26.29)"><g transform="translate(2.088 0)"><g transform="translate(1.373 3.252)"><path class="j" d="M899.89,218.123a.753.753,0,0,0-1.5,0h0" transform="translate(-898.385 -217.394)"/></g><g transform="translate(13.898 3.327)"><path class="j" d="M961.628,218.492a.753.753,0,0,0-1.505,0h0" transform="translate(-960.123 -217.763)"/></g><path class="k" d="M951.769,202.2c1.666-1.234,2.363-.912,4.19-.268" transform="translate(-939.566 -201.363)"/><path class="k" d="M895.807,202.2c-1.666-1.234-2.364-.912-4.191-.268" transform="translate(-891.616 -201.363)"/></g><path class="l" d="M963.466,229.792c-2.3-1.242-7.742,2.96-4.138,4.956S965.765,231.033,963.466,229.792Z" transform="translate(-942.547 -223.845)"/><path class="l" d="M881.321,229.727a22.2,22.2,0,0,0,.576,3.968,9.435,9.435,0,0,0,.283.987,2.884,2.884,0,0,0,3.114.076C888.814,232.809,883.7,228.758,881.321,229.727Z" transform="translate(-881.321 -223.856)"/><g transform="translate(6.647 1.125)"><path class="m" d="M914.085,206.909a7.227,7.227,0,0,1,1.4,2.683" transform="translate(-914.085 -206.909)"/><path class="m" d="M922.377,230.795c.3,1.787-.427,2.7-.427,3.693a1.513,1.513,0,0,0,1.674.452" transform="translate(-920.354 -225.949)"/></g><g transform="translate(10.8 15.342)"><path class="n" d="M934.557,277.589a1.776,1.776,0,0,1,1.537-.576" transform="translate(-934.557 -276.99)"/></g><g transform="translate(7.849 11.558)"><path class="o" d="M926.907,258.339a12.137,12.137,0,0,1-3.094.338,1.393,1.393,0,0,0-1.244.6c-.339-.22-.608-.419-1.08-.218a3.929,3.929,0,0,1-1.478.254,5.073,5.073,0,0,0,.652.924,2.7,2.7,0,0,0,2.3,1.034,4.23,4.23,0,0,0,3.118-1.658A12.908,12.908,0,0,0,926.907,258.339Z" transform="translate(-920.012 -258.339)"/><path class="p" d="M926.907,258.339a8.26,8.26,0,0,1-4.026,1.809,3.48,3.48,0,0,1-2.869-.838" transform="translate(-920.012 -258.339)"/></g></g><path class="e" d="M912.358,163.773a28.542,28.542,0,0,0,2.52-9.941c.375-11.623-8.876-19.9-10.118-31.1-.665-6,2.436-10.238,2.71-16.02a40.972,40.972,0,0,0-2.4-15.684c-1.438-4.095-4.169-16.081-18.143-18.788-9.159-1.777-19.593,1.145-22.1,14.952-.494,2.233-1.569,4.814-.943,6.97.571,1.967,1.131,3.6,2.809,4.918-.168-1.375-.359-2.882.547-3.916,1.525-1.743,3.15-1.819,4.358-2.615s2.984-3.5,3.807-5.506c.942,9.53,3.869,5.848,8.365,10.46,10.066,10.329-2.52,27.171-1.459,32.4,1.126,5.546,5.958,9.753,5.722,15.665-.111,2.79.375,5.5-.677,8.2-1.167,2.994-3.313,5.484-5.024,8.169-3.064,4.808-6.633,10.963-3.6,16.615,2.025,3.779,6.663,4.7,8.189,8.746,1.617,4.291-.554,8.028-.93,12.257a7.362,7.362,0,0,0,7.819,8.283c4.958-.235,5.731-5.8,5.762-9.721.016-2.115-.888-4.483-.6-6.538.367-2.641,3.259-4.566,4.658-6.69,1.873-2.846,1.678-6.128,2.4-9.254.775-3.368,3.378-6.124,5-9.112C911.487,165.664,911.937,164.741,912.358,163.773Z" transform="translate(-863.699 -71.769)"/></g><path class="f" d="M910.265,604.046c-3.547-5.639-8.3-.307-11.73,2.276-4.662,3.506-24.394,16.26-26.018,16.827a17.476,17.476,0,0,1-5.528,1.485,13.93,13.93,0,0,0-6.833,1.78c-.818.463-2.246,1.547-2.056,2.141.334,1.049,1.171.672,2.552-.084a19.854,19.854,0,0,0,2.4-.913c-1.8,1.921-6.492,3.128-8.5,5.607-1.215,1.507-1.564,2.779.187,3.973,2.142,1.462,3.3-.369,5.451-.545.864-.072,2.26.667,4.719-.744a21.537,21.537,0,0,0,4.05-2.991,53.079,53.079,0,0,1,4.551-4.221c1.255-.892,26.064-11.029,30.4-14.27C909.06,610.526,911.69,606.314,910.265,604.046Z" transform="translate(-832.011 -494.079)"/><path class="f" d="M751.469,688.091c-6.415,5.167-4.021,11.041-.785,13.07,5.376,3.373,9.187-1.045,5.915-3.126-5.809-3.692-6.06-5.831-6.06-5.831Z" transform="translate(-747.433 -563.062)"/></g></g></g></svg>