<svg xmlns="http://www.w3.org/2000/svg" width="96.891" height="93" viewBox="0 0 96.891 93"><defs><style>.a{fill:#818686;opacity:0.2;mix-blend-mode:multiply;isolation:isolate;}.b{fill:#535353;}.c{fill:#0fedd7;}.d{fill:#dbdbdb;}</style></defs><path class="a" d="M187.2,507.08c0,2-21.144,3.622-47.227,3.622s-47.227-1.622-47.227-3.622,21.145-3.623,47.227-3.623S187.2,505.079,187.2,507.08Z" transform="translate(-90.311 -417.702)"/><path class="b" d="M100.062,379.019s4.284-12.98,13.827-16.95,6.611,1.643,7.041,4.012,6.357,9.7,13.017,8.509,8.685-2.6,10.867-.281-.655-3.845,2.985-3.865,5.7-1.789,4.844,4.169,3.512,18.23,4.525,19.053a39.6,39.6,0,0,1,8.8,14.656c4.636,3.276,12.553,6.5,14.887,6.429s5.94.272,6.679,2.451-11.49,21.466-49.17-6.256S100.062,379.019,100.062,379.019Z" transform="translate(-93.232 -360.687)"/><path class="c" d="M134.627,369.018s-3.6,19.339,12.021,29.409,19.456,6.229,16.489-3.618a139.264,139.264,0,0,1-4.035-16.59s-.189-3.795-6.126-2.225-10.164,1.17-12.51-1.733A30.458,30.458,0,0,0,134.627,369.018Z" transform="translate(-106.892 -364.014)"/><path class="c" d="M115.2,373.757c-.729,1-1.807,1.452-2.408,1.013l-3.957-2.89c-.6-.44-.5-1.6.231-2.6h0c.729-1,1.807-1.452,2.408-1.013l3.958,2.89c.6.439.5,1.6-.232,2.6Z" transform="translate(-96.578 -363.646)"/><path class="d" d="M97.168,385.291s-18.848,3.889-.335,17.355,29.538,19.966,29.538,19.966,26.173,20.157,41.88,17.934,19.343-8.354,14.533-14.411,1.657,16.307-26.229,3.483c-15.009-7.46-23.3-14.357-23.819-15.06s-13-9.452-20.18-13.551S97.068,389.428,97.168,385.291Z" transform="translate(-88.691 -370.512)"/></svg>