<?xml version="1.0"?>
<svg xmlns="http://www.w3.org/2000/svg" id="Capa_1" enable-background="new 0 0 512 512" height="512px" viewBox="0 0 512 512" width="512px" class=""><g><g><g><path d="m373.996 70c-16.57 0-30 13.43-30 30v-30c0-16.559-13.439-30-30-30-16.57 0-30 13.43-30 30v-30c0-16.559-13.439-30-30-30-16.57 0-30 13.43-30 30 0-16.559-13.439-30-30-30-16.57 0-30 13.43-30 30v60c0 16.57 13.43 30 30 30h-36.58c-13.76 0-25.76 9.37-29.1 22.72l-19.42 76.77c-3.08 12.3 1.91 25.2 12.46 32.24l59.28 39.36c8.35 5.57 13.36 14.93 13.36 24.97v79.94h150v-110.43c36.8-23.86 60-65.11 60-110.44 0-14.724 0-64.537 0-85.13 0-16.57-13.43-30-30-30z" fill="#ffddcf" data-original="#FFDDCF" class="" style="fill:#ECE9CE" data-old_color="#ffddcf"/><path d="m193.996 406h150v96h-150z" fill="#ff7b79" data-original="#FF7B79" class="" style="fill:#D1345B" data-old_color="#ff7b79"/></g><g><circle cx="268.996" cy="502" r="10" data-original="#000000" class="active-path" style="fill:#FF7B79" data-old_color="#000000"/><path d="m118.622 150.268-19.426 76.793c-4.095 16.351 2.58 33.626 16.629 43l59.262 39.348c5.578 3.722 8.909 9.946 8.909 16.651v175.94c0 5.523 4.478 10 10 10h30c5.522 0 10-4.477 10-10s-4.478-10-10-10h-20v-76h130v76h-20c-5.522 0-10 4.477-10 10s4.478 10 10 10h30c5.522 0 10-4.477 10-10v-201.136c37.668-26.528 60-69.381 60-115.734 0-14.724 0-64.537 0-85.13 0-22.056-17.944-40-40-40-7.388 0-14.31 2.021-20.255 5.528-2.181-19.703-18.885-35.528-39.745-35.528-7.388 0-14.31 2.021-20.255 5.528-2.181-19.703-18.885-35.528-39.745-35.528-11.933 0-22.655 5.259-29.99 13.573-7.754-8.782-18.551-13.573-30.01-13.573-22.056 0-40 17.944-40 40v60c0 7.283 1.966 14.112 5.381 20h-1.961c-18.383 0-34.339 12.457-38.794 30.268zm192.214 150.244c-5.239 1.745-8.072 7.408-6.327 12.647 1.741 5.23 7.397 8.076 12.647 6.328 5.761-1.919 11.386-4.207 16.84-6.841v83.354h-130v-69.94c0-13.405-6.658-25.85-17.829-33.301l-59.26-39.347c-7.018-4.682-10.357-13.319-8.316-21.469l19.427-76.796c2.231-8.918 10.208-15.147 19.398-15.157h85.575c-4.646 22.804-24.85 40.01-48.995 40.01-5.522 0-10 4.477-10 10s4.478 10 10 10c27.57 0 50 22.43 50 50 0 5.523 4.478 10 10 10s10-4.477 10-10c0-25.431-13.635-47.74-33.976-60 17.939-10.812 30.655-29.442 33.41-51.134 8.087-1.964 15.218-6.389 20.555-12.439 7.734 8.762 18.529 13.573 30.01 13.573 7.388 0 14.311-2.021 20.256-5.529 2.231 19.958 19.2 35.529 39.744 35.529 7.283 0 14.112-1.966 20-5.381v20.511c.001 53.768-34.648 99.228-83.159 115.382zm63.16-220.512c11.028 0 20 8.972 20 20v30c0 11.028-8.972 20-20 20s-20-8.972-20-20v-30c0-11.028 8.972-20 20-20zm-60-30c11.045 0 20 8.954 20 20v30c0 11.028-8.972 20-20 20-11.045 0-20-8.954-20-20v-30c0-11.028 8.972-20 20-20zm-60-30c11.045 0 20 8.954 20 20v60c0 11.028-8.972 20-20 20-11.045 0-20-8.954-20-20v-60c0-11.028 8.972-20 20-20zm-80 80v-60c0-11.028 8.972-20 20-20 11.045 0 20 8.954 20 20v60c0 11.028-8.972 20-20 20s-20-8.972-20-20z" data-original="#000000" class="active-path" style="fill:#FF7B79" data-old_color="#000000"/></g></g></g> </svg>
