<svg xmlns="http://www.w3.org/2000/svg" width="118" height="112.943" viewBox="0 0 118 112.943"><defs><style>.a{fill:#ffdc64;}.b{fill:#fff082;}.c{fill:#ffc850;}.d{fill:#fff;}</style></defs><g transform="translate(-39 -71.099)"><path class="a" d="M222.689,112.53l-30.823-2.859L179.622,81.24a2.47,2.47,0,0,0-4.537,0l-12.244,28.431-30.823,2.859a2.47,2.47,0,0,0-1.4,4.315l23.256,20.43-6.806,30.2a2.47,2.47,0,0,0,3.671,2.667l26.617-15.8,26.617,15.8a2.47,2.47,0,0,0,3.671-2.667l-6.806-30.2,23.256-20.43A2.47,2.47,0,0,0,222.689,112.53Z" transform="translate(-79.353 -7.56)"/><g transform="translate(39 71.099)"><path class="b" d="M209.013,72.7c1.571,2.183,6.006,11.556,8.542,17.018a.857.857,0,0,1-1.367.984c-4.376-4.137-11.858-11.317-13.429-13.5a3.853,3.853,0,1,1,6.254-4.5Z" transform="translate(-181.523 -71.099)"/><path class="b" d="M698.521,72.7c-1.571,2.183-6.006,11.556-8.542,17.018a.857.857,0,0,0,1.367.984c4.376-4.137,11.858-11.317,13.429-13.5a3.853,3.853,0,1,0-6.254-4.5Z" transform="translate(-608.011 -71.099)"/><path class="b" d="M818.422,571.928c-2.557-.834-12.835-2.211-18.809-2.967a.857.857,0,0,0-.522,1.6c5.272,2.912,14.385,7.859,16.942,8.693a3.853,3.853,0,0,0,2.389-7.326Z" transform="translate(-703.081 -506.323)"/><path class="b" d="M41.659,571.928c2.557-.834,12.835-2.211,18.809-2.967a.857.857,0,0,1,.522,1.6c-5.271,2.912-14.385,7.859-16.942,8.693a3.853,3.853,0,0,1-2.39-7.326Z" transform="translate(-39 -506.323)"/><path class="b" d="M478.31,802.768c0-2.689,1.877-12.888,3.011-18.8a.857.857,0,0,1,1.684,0c1.134,5.915,3.011,16.113,3.011,18.8a3.853,3.853,0,0,1-7.706,0Z" transform="translate(-423.045 -693.678)"/></g><path class="c" d="M184.074,91.579,179.622,81.24a2.47,2.47,0,0,0-4.537,0l-12.244,28.431-30.823,2.859a2.47,2.47,0,0,0-1.4,4.315l23.256,20.43-6.806,30.2a2.47,2.47,0,0,0,3.671,2.667l3.543-2.1A191.75,191.75,0,0,1,184.074,91.579Z" transform="translate(-79.353 -7.56)"/><g transform="translate(73.078 110.604)"><path class="d" d="M322.412,410.428V414.6h-4.05v3.927h-4.418V414.6h-4.05v-4.173h4.05V406.5h4.418v3.927Z" transform="translate(-309.894 -403.812)"/><path class="d" d="M426.15,403.5v-.547q0-.792.006-1.3t.017-.954v-.033q.022-1,.022-2.131,0-.837-.011-1.752a39.033,39.033,0,0,0-.351-4.513,29.571,29.571,0,0,0-1.11-4.926l-.156-.524,5.378-1.7.167.513a35.33,35.33,0,0,1,1.3,5.746,41,41,0,0,1,.407,4.491q.033,1.724.033,2.683,0,1.194-.033,2.22v.033q0,.424-.011.909t-.011,1.233v.547Z" transform="translate(-410.14 -385.127)"/><path class="d" d="M503.741,424.35a6.1,6.1,0,0,1,0,8.624l-.022.022a6.114,6.114,0,0,1-8.613,0l-.022-.022a6.1,6.1,0,0,1,0-8.624l.022-.022a6.115,6.115,0,0,1,8.613,0Zm-3.213,5.422a1.519,1.519,0,0,0,.457-1.116,1.543,1.543,0,0,0-.457-1.116,1.518,1.518,0,0,0-1.116-.457,1.562,1.562,0,0,0-1.573,1.573,1.581,1.581,0,0,0,1.573,1.584A1.5,1.5,0,0,0,500.528,429.772Z" transform="translate(-470.226 -417.846)"/><path class="d" d="M609.809,424.35a6.1,6.1,0,0,1,0,8.624l-.022.022a6.114,6.114,0,0,1-8.613,0l-.022-.022a6.1,6.1,0,0,1,0-8.624l.022-.022a6.114,6.114,0,0,1,8.613,0Zm-3.213,5.422a1.518,1.518,0,0,0,.457-1.116,1.542,1.542,0,0,0-.457-1.116,1.518,1.518,0,0,0-1.116-.457,1.562,1.562,0,0,0-1.573,1.573,1.581,1.581,0,0,0,1.573,1.584A1.5,1.5,0,0,0,606.6,429.772Z" transform="translate(-562.951 -417.846)"/></g></g></svg>