<svg xmlns="http://www.w3.org/2000/svg" xmlns:xlink="http://www.w3.org/1999/xlink" width="106" height="106" viewBox="0 0 106 106"><defs><style>.a{fill:#eaeaea;}.b{clip-path:url(#a);}.c{fill:#ffdddc;}.d{fill:#ffb7b5;}.e{fill:#ffc6c3;}.f{fill:#fcefde;}.g{fill:#5547dd;}.h{fill:#3232bb;}.i{fill:#f2775a;}</style><clipPath id="a"><circle class="a" cx="53" cy="53" r="53"/></clipPath></defs><g transform="translate(-55 -67)"><g transform="translate(55 67)"><circle class="a" cx="53" cy="53" r="53"/><g class="b" transform="translate(0 0)"><g transform="translate(17.251 13.141)"><g transform="translate(0 11.109)"><path class="c" d="M405.643,284.577a7.784,7.784,0,0,1,2.187-4.923,7.6,7.6,0,0,1,1.757-1.31,1.7,1.7,0,0,1,1.181,1.757l-.388,4.887A9.548,9.548,0,0,1,405.643,284.577Z" transform="translate(-382.494 -278.242)"/><path class="d" d="M206.976,492.655l5.248-1.205,1.469-.086-1.715.426a3.089,3.089,0,0,0-2.267,3.086l.056,3.279a3.047,3.047,0,0,0,1.8,2.777l1.821.774a2.141,2.141,0,0,0-1.538,2.337l.39,3.443a2.058,2.058,0,0,0,1.484,1.786l1.436.38h0A2.049,2.049,0,0,0,213.814,512l.489,2.614a1.919,1.919,0,0,0,1.7,1.6l1.577.125a1.736,1.736,0,0,0-.908,2.142l.809,2.4a1.681,1.681,0,0,0,.308.544l-3.811-.3a1.589,1.589,0,0,1-1.368-1.043l-.82-2.266a1.589,1.589,0,0,1,.9-2.014l-1.578-.125a1.9,1.9,0,0,1-1.71-1.515l-.5-2.464a1.9,1.9,0,0,1,1.337-2.2h0l-1.438-.365a2,2,0,0,1-1.492-1.689l-.406-3.245A2,2,0,0,1,208.433,502l-1.824-.738a2.9,2.9,0,0,1-1.813-2.624l-.071-3.088A2.9,2.9,0,0,1,206.976,492.655Z" transform="translate(-204.723 -466.72)"/><path class="e" d="M254.982,329.229a1.736,1.736,0,0,1,.908-2.142l-1.577-.125a1.919,1.919,0,0,1-1.7-1.6l-.489-2.614a2.049,2.049,0,0,1,1.348-2.346h0l-1.436-.38a2.058,2.058,0,0,1-1.484-1.786l-.39-3.444a2.141,2.141,0,0,1,1.538-2.337l-1.821-.774a3.047,3.047,0,0,1-1.8-2.777l-.056-3.279a3.089,3.089,0,0,1,2.267-3.086l1.715-.426,11.139-.652a3.969,3.969,0,0,0,3.239-5.887l-3.046-5.493a8.406,8.406,0,0,1-.915-5.606l.295-1.595a6.613,6.613,0,0,1,7.026-5.39,1.7,1.7,0,0,1,.385.08,7.6,7.6,0,0,0-1.757,1.31,7.784,7.784,0,0,0-2.187,4.923,9.549,9.549,0,0,0,4.737.41l-.008.1h0a19.213,19.213,0,0,0,5.653,11.345l1.047,1.02a15.944,15.944,0,0,1,2.8,3.655,15.948,15.948,0,0,0,12.665,8.13l79.491,1.178,23.848,30.671L289.611,326.7a15.932,15.932,0,0,0-10.909,3.2,15.933,15.933,0,0,1-10.909,3.2l-11.694-.929a1.681,1.681,0,0,1-.308-.544Z" transform="translate(-243.029 -277.469)"/><path class="f" d="M600.47,510.715l1.85,26.674,19.156,2.85.472-27.845Z" transform="translate(-554.873 -483.841)"/><path class="g" d="M783.261,473.869h0a19.312,19.312,0,0,1,15.727-6.664l46.965,3.322L871.3,515.165l-74.584-6.377a19.312,19.312,0,0,1-11.406-4.83l-2.521-2.243Z" transform="translate(-716.186 -445.316)"/><g transform="translate(51.02 27.298)"><path class="g" d="M647.542,514.394l1.078,26.942,2.662.4-.265-27.066Z" transform="translate(-647.542 -514.394)"/><path class="g" d="M712.009,519.434l-3.5-.273,1.1,27.441,2.671.4Z" transform="translate(-701.486 -518.611)"/></g><g transform="translate(67.213 27.482)"><path class="h" d="M788.078,523.954h0A55.627,55.627,0,0,0,805.627,516h0A55.626,55.626,0,0,0,788.078,523.954Z" transform="translate(-788.078 -515.996)"/><g transform="translate(2.455 11.851)"><path class="h" d="M809.382,618.852h0a61.82,61.82,0,0,0,31.057,12.116h0c-4.183-2.171-9.724-4.456-15.3-6.64S813.93,620.087,809.382,618.852Z" transform="translate(-809.382 -618.852)"/></g><g transform="translate(3.636 18.029)"><path class="h" d="M819.635,672.477h0a25.729,25.729,0,0,0,8.724,12.72h0c-1.1-1.888-2.663-4.17-4.224-6.454S821,674.18,819.635,672.477Z" transform="translate(-819.635 -672.477)"/></g></g></g><path class="i" d="M343.281,191.219s-1.383,1.152,0,3.111,3.111.691,3.572,4.033C346.853,198.363,348.235,188.915,343.281,191.219Z" transform="translate(-326.773 -189.728)"/><path class="i" d="M396.747,181.058s-1.509-.2-1.932,1.785,1.355,2.328-.455,4.531C394.361,187.374,401.02,182.812,396.747,181.058Z" transform="translate(-372.511 -181.053)"/><path class="i" d="M422.6,212.311s-1.02-1.128-2.628.107-.477,2.651-3.284,3.155C416.687,215.572,424.715,216.416,422.6,212.311Z" transform="translate(-392.265 -208.292)"/></g></g></g></g></svg>