<svg xmlns="http://www.w3.org/2000/svg" xmlns:xlink="http://www.w3.org/1999/xlink" width="248.499" height="225.289" viewBox="0 0 248.499 225.289"><defs><style>.a,.aa,.ab,.ac,.p{fill:none;}.b{fill:#766a5a;}.c{fill:#f2ba68;}.d{fill:#e09a53;}.e{fill:#f29875;}.f{fill:#5b637c;}.g{fill:#fff;}.h{fill:#08846c;}.i{fill:#0a7762;}.j{fill:#0d725f;}.k{fill:#0c6856;}.l{fill:#7db58d;}.m{fill:#048e74;}.n{fill:#f9a47b;}.o{fill:#4e4e66;}.p{stroke:#0e7a65;}.aa,.ab,.ac,.p{stroke-miterlimit:10;}.aa,.ab,.p{stroke-width:1.011px;}.q{fill:#36354c;}.r{fill:#fefefe;}.s{fill:#d5d5d5;}.t{fill:#98857a;}.u{fill:#0a705c;}.v{fill:#0e7a65;}.w{fill:#ea8c68;}.x{fill:#dd7858;}.y{clip-path:url(#a);}.z{fill:#fdd3a3;}.aa,.ac{stroke:#4e4e66;}.ab{stroke:#fff;}.ac{stroke-width:1.29px;}</style><clipPath id="a"><path class="a" d="M296.389,244.456H122.781s-10.225,85.238,86.8,85.238S296.389,244.456,296.389,244.456Z" transform="translate(-122.471 -244.456)"/></clipPath></defs><g transform="translate(-67.912 -37.901)"><g transform="translate(80.527 57.16)"><g transform="translate(91.218 106.793)"><path class="b" d="M234.378,223.865c-7.7-.712-13.891,5.394-13.287,13.54.516,6.951,10.031,5.234,10.031,5.234l-.172,3.768,5.577.757.172-4.351s6.4-1.93,8.133-5.984C247.548,230.488,241.775,224.551,234.378,223.865Z" transform="translate(-221.05 -223.809)"/><g transform="translate(2.733 2.583)"><g transform="translate(11.663 9.566)"><path class="b" d="M242.947,246.841c.162-1.091,1.934-5.551,3.484-4.019,1.328,1.311-2.995,3.225-3.816,3.633-.4.2-.049.787.345.591,1.4-.695,5.762-2.566,3.958-4.709-2.01-2.382-4.417,2.883-4.632,4.322-.064.432.6.618.661.182Z" transform="translate(-242.281 -241.727)"/></g><g transform="translate(3.439 12.146)"><path class="b" d="M236.383,247.561a7.689,7.689,0,0,0-3.223-1.642c-.629-.21-2.419-.8-2.849.088-1.225,2.528,5.045,2.122,6.081,2.469.42.141.6-.521.182-.661a11.375,11.375,0,0,0-2.619-.307c-.709-.059-2.949-.024-3.078-1.013-.081-.624,2.265.139,2.521.23a6.311,6.311,0,0,1,2.5,1.32c.3.33.78-.157.485-.484Z" transform="translate(-230.153 -245.533)"/></g><g transform="translate(1.369)"><path class="b" d="M229.157,227.685a19.029,19.029,0,0,0-1.955,1.6c-.315.31.17.795.485.485a17.773,17.773,0,0,1,1.816-1.488c.349-.262.008-.858-.346-.593Z" transform="translate(-227.099 -227.619)"/></g><g transform="translate(0.009 3.099)"><path class="b" d="M225.871,232.3a4.81,4.81,0,0,0-.74,1.269c-.192.4.4.744.592.346a4.325,4.325,0,0,1,.633-1.13c.3-.323-.183-.81-.485-.485Z" transform="translate(-225.093 -232.189)"/></g><g transform="translate(17.634 4.155)"><path class="b" d="M252.981,236.376a6.732,6.732,0,0,0-1.233-2.481c-.26-.352-.857-.01-.593.346a6.28,6.28,0,0,1,1.166,2.318c.1.431.757.249.66-.183Z" transform="translate(-251.088 -233.747)"/></g><g transform="translate(15.942 2.257)"><path class="b" d="M249.69,231.382a1.278,1.278,0,0,0-.666-.431c-.433-.068-.618.592-.182.66a.7.7,0,0,1,.363.255c.313.311.8-.174.485-.485Z" transform="translate(-248.593 -230.947)"/></g><g transform="translate(0 12.201)"><path class="b" d="M226.18,246.9a1.5,1.5,0,0,1-.414-.957c-.016-.441-.7-.443-.686,0a2.236,2.236,0,0,0,.615,1.442c.3.324.785-.162.484-.485Z" transform="translate(-225.081 -245.613)"/></g><g transform="translate(11.67 8.593)"><path class="b" d="M244.586,240.3a3.1,3.1,0,0,0-2.262,1.7c-.174.4.416.751.592.346a2.468,2.468,0,0,1,1.852-1.385c.432-.094.249-.755-.182-.662Z" transform="translate(-242.292 -240.292)"/></g></g></g><g transform="translate(4.386 53.469)"><path class="c" d="M98.24,148.069c-5.864,5.772-7.1,11.051-2.268,18.55s13.894,5.022,19.469-.318c4.674-4.474,3.666-12.663-.121-16.7S103.606,142.787,98.24,148.069Z" transform="translate(-92.987 -145.165)"/><g transform="translate(3.056 3.071)"><g transform="translate(1.765 1.056)"><path class="d" d="M106.143,158.9c-.836-2.532-1.623-5.079-2.332-7.651a7.82,7.82,0,0,0-1.486,1.145,18.482,18.482,0,0,0-2.227,2.59A45.694,45.694,0,0,0,106.143,158.9Z" transform="translate(-100.098 -151.251)"/></g><g transform="translate(0 5.554)"><path class="d" d="M105.546,162.59l.169-.24a58.617,58.617,0,0,1-6.951-4.465,8.143,8.143,0,0,0-.882,6.859A62.806,62.806,0,0,0,105.546,162.59Z" transform="translate(-97.494 -157.885)"/></g><g transform="translate(9.473 1.61)"><path class="d" d="M111.466,160.251l0,0c.663-.214,1.325-.424,1.983-.62a50.9,50.9,0,0,1,7.6-1.949,9.27,9.27,0,0,0-2.077-3.857,10.61,10.61,0,0,0-2.2-1.759A71.613,71.613,0,0,1,111.466,160.251Z" transform="translate(-111.466 -152.068)"/></g><g transform="translate(6.296)"><path class="d" d="M109.37,158.777a66.046,66.046,0,0,0,5.114-7.914,9.049,9.049,0,0,0-7.7-.535C107.562,153.17,108.439,155.983,109.37,158.777Z" transform="translate(-106.78 -149.694)"/></g><g transform="translate(0.677 11.398)"><path class="d" d="M102.389,170.89a41.136,41.136,0,0,1,2.684-4.386,60.858,60.858,0,0,1-6.58,1.871,16.961,16.961,0,0,0,1.589,3.044,8.7,8.7,0,0,0,1.346,1.617C101.731,172.313,102.028,171.585,102.389,170.89Z" transform="translate(-98.493 -166.504)"/></g><g transform="translate(10.349 8.116)"><path class="d" d="M112.979,163.922c-.073.02-.148.045-.222.066,2.37,1.73,4.685,3.531,6.979,5.362a8.782,8.782,0,0,0,1.939-7.686A61.381,61.381,0,0,0,112.979,163.922Z" transform="translate(-112.757 -161.663)"/></g><g transform="translate(9.487 10.876)"><path class="d" d="M111.487,165.734c.94,2.757,1.915,5.5,2.884,8.249a14.642,14.642,0,0,0,4.312-2.7C116.34,169.387,113.979,167.436,111.487,165.734Z" transform="translate(-111.487 -165.734)"/></g><g transform="translate(4.349 11.048)"><path class="d" d="M108.152,165.988c-.083.121-.169.241-.253.362a34.251,34.251,0,0,0-3.453,5.862c-.18.42-.357.844-.538,1.265a7.9,7.9,0,0,0,7.173.892C110.1,171.578,109.105,168.79,108.152,165.988Z" transform="translate(-103.908 -165.988)"/></g></g><g transform="translate(1.046 1.097)"><path class="d" d="M94.531,165.662a14.375,14.375,0,0,0,.93,3.759.451.451,0,0,0,.843-.321,13.466,13.466,0,0,1-.873-3.524A.452.452,0,0,0,94.531,165.662Z" transform="translate(-94.529 -152.706)"/><path class="d" d="M96.968,173.052q.179.475.361.95a.451.451,0,0,0,.843-.321q-.18-.476-.361-.949A.452.452,0,0,0,96.968,173.052Z" transform="translate(-95.304 -155.047)"/><path class="d" d="M126.77,168.225c-.429.924-1.04,1.748-1.534,2.636-.283.509.542.877.824.37.493-.889,1.1-1.712,1.534-2.636A.452.452,0,0,0,126.77,168.225Z" transform="translate(-104.397 -153.604)"/><path class="d" d="M116.734,147.535c-.716-.309-1.469-.494-2.208-.73-.549-.172-.925.649-.37.823a22.753,22.753,0,0,1,2.208.731A.452.452,0,0,0,116.734,147.535Z" transform="translate(-100.76 -146.782)"/></g></g><g transform="translate(0 22.842)"><g transform="translate(120.296 49.53)"><path class="e" d="M308.446,188.169c-4.366-9.349-17.685-17.339-29.061-14.57s-14.749,13.772-14.749,13.772,2.163,38.108,5.765,45.167,13.716-.945,13.182-2.8c-.764-1.867,1.779-9.52,11.929-13.411S312.814,197.519,308.446,188.169Zm-18.08,1.123a4.632,4.632,0,0,1-4.712,4.108c-2.8-.221-5.428-2.221-5.043-5.244.36-2.821,3.208-4.423,5.842-4.153a.492.492,0,0,1,.054.017.243.243,0,0,1,.039,0A4.561,4.561,0,0,1,290.365,189.292Z" transform="translate(-264.162 -173.043)"/><g transform="translate(0 3.567)"><g transform="translate(0 2.274)"><path class="f" d="M264.615,200.337c1.515-3.7,2.826-7.547,5.131-10.854a17.452,17.452,0,0,1,11.378-6.99c8.275-1.4,16.743,3.518,18.9,11.694a15.4,15.4,0,0,1-.691,9.656c-1.511,3.729-4.575,5.944-7.878,8-3.521,2.189-7.414,4.428-9.663,8.041-1.968,3.158-1.747,7.153-4.008,10.2-1.894,2.545-4.969,2.442-7.374.743-2.609-1.842-4-5.1-4.369-8.174-.052-.439-.721-.287-.669.148.546,4.571,4.089,10.76,9.519,9.924,2.638-.407,4.194-3.007,5.062-5.272.665-1.733.956-3.593,1.561-5.348.808-2.348,2.476-3.964,4.28-5.582,3.229-2.892,7.44-4.449,10.65-7.363a14.892,14.892,0,0,0,4.333-7.568,16.127,16.127,0,0,0-5.163-15.793,18.58,18.58,0,0,0-20.393-1.987c-6.417,3.337-8.689,10.042-11.253,16.317-.169.411.484.62.65.215Z" transform="translate(-263.937 -181.658)"/></g><g transform="translate(16.411 7.363)"><path class="g" d="M294.021,189.193c-2.634-.27-5.482,1.332-5.842,4.153-.385,3.023,2.242,5.023,5.043,5.244a4.632,4.632,0,0,0,4.712-4.108,4.561,4.561,0,0,0-3.82-5.272c-.429-.085-.648.564-.216.652a3.888,3.888,0,0,1,3.41,4.051,4.059,4.059,0,0,1-3.739,4c-2.418.144-4.876-1.736-4.741-4.24.141-2.6,2.827-4.03,5.16-3.79.44.045.472-.64.033-.686Z" transform="translate(-288.141 -189.164)"/></g><g transform="translate(30.629 22.462)"><path class="f" d="M312.258,211.743c-.3,1.862-1.614,3.114-3.025,4.242-.346.275.117.782.46.508,1.58-1.26,2.914-2.653,3.249-4.717.07-.437-.614-.466-.684-.033Z" transform="translate(-309.111 -211.432)"/></g><g transform="translate(27.113 28.061)"><path class="f" d="M306.207,219.723a14.792,14.792,0,0,0-2.12,1.268c-.364.245-.052.857.315.61a14.791,14.791,0,0,1,2.121-1.269c.4-.182.085-.791-.316-.608Z" transform="translate(-303.925 -219.689)"/></g><g transform="translate(27.982 24.632)"><path class="f" d="M307.043,214.649a7.646,7.646,0,0,0-1.665.812c-.379.226-.066.835.315.608a6.89,6.89,0,0,1,1.5-.749c.42-.127.275-.8-.148-.671Z" transform="translate(-305.206 -214.633)"/></g><g transform="translate(11.118)"><path class="f" d="M292,178.755a16.528,16.528,0,0,0-11.486,1.359.343.343,0,0,0,.317.607,15.8,15.8,0,0,1,10.953-1.315c.428.092.646-.559.216-.652Z" transform="translate(-280.334 -178.304)"/></g><g transform="translate(6.828 2.73)"><path class="f" d="M276.641,182.4c-.879.649-1.626,1.456-2.505,2.107-.356.263.107.77.46.508.879-.65,1.627-1.456,2.505-2.107.357-.263-.107-.769-.46-.507Z" transform="translate(-274.007 -182.33)"/></g><g transform="translate(3.665 11.702)"><path class="f" d="M272.582,195.7a24.948,24.948,0,0,0-3.211,5.244c-.176.406.478.616.652.215a24.274,24.274,0,0,1,3.133-5.084c.271-.353-.308-.723-.574-.375Z" transform="translate(-269.342 -195.562)"/></g><g transform="translate(19.332 36.87)"><path class="f" d="M296.932,232.728a19.542,19.542,0,0,0-4.382,3.957c-.3.317.154.827.46.506a19.172,19.172,0,0,1,4.237-3.856c.387-.216.072-.825-.315-.608Z" transform="translate(-292.449 -232.682)"/></g><g transform="translate(19.454 16.722)"><path class="f" d="M298.838,203a7.442,7.442,0,0,1-5.768.54.344.344,0,0,0-.216.652,8.162,8.162,0,0,0,6.3-.584c.4-.185.085-.793-.315-.608Z" transform="translate(-292.628 -202.967)"/></g><g transform="translate(37.368 17.789)"><path class="f" d="M319.986,205.02c.53,1.811-.112,3.506-.9,5.13-.193.4.442.656.634.26.882-1.817,1.487-3.648.9-5.657-.124-.422-.755-.154-.633.266Z" transform="translate(-319.05 -204.541)"/></g><g transform="translate(36.7 30.6)"><path class="f" d="M320.882,223.475a15,15,0,0,0-2.474.033c-.436.03-.472.717-.03.687a14.708,14.708,0,0,1,2.474-.036c.441.044.47-.641.03-.683Z" transform="translate(-318.064 -223.435)"/></g></g></g><g transform="translate(151.842 45.892)"><path class="h" d="M332.625,245.472l-.349-25.049,5.5-2.745s-.586,12.744,3.122,12.72,5-14.766,5-14.766,7.164-1.853,7.478,2.661c-2.609,8.336-5.725,17.129-2.3,18.164s11.186-11.708,11.186-11.708l6.211,6.342s-15.5,12.78-19.226,25.3Z" transform="translate(-317.485 -182.996)"/><path class="i" d="M332.6,201.112s-.427,7.514-7.625,4.422a7.3,7.3,0,0,1-3.072-4.687s-2.8,1.444-5.194-1.773-.361-4.752-.361-4.752-5.955-.675-5.881-5.1c.106-6.085,5.531-4.979,5.531-4.979a7.252,7.252,0,0,1-2.678-9.966c3.334-6.628,9.85-6.241,12.687-.888.918-5.139,5.519-6.833,8.62-5a7.019,7.019,0,0,1,3.353,8.313c1.721-2.926,5.2-1.047,5.794,2.419.063-5.087,5.238-13.58,12.776-9.446s5.3,11.9,2.516,14.578c3.549-2.588,5.845-.464,5.009,2.678,3.012-4.583,10.764-4.2,13.462,1.674s-2.37,11.158-5.736,11.407c4.485,1.1,4.693,3.906,2.8,5.535,4.326-.027,5.7,6.618,3.288,8.726s-4.5,2.167-6.18.038c1.927,3.933-2.854,7.149-5.832,2.319-3.365,1.686-11.082-.929-10.318-8.016,0,0-8.2,3.427-9.21-5.646-1.837,2.484-8.128.194-8.532-3.558C336.454,202.418,334.032,202.671,332.6,201.112Z" transform="translate(-310.462 -167.677)"/><g transform="translate(17.167 36.685)"><path class="j" d="M344.251,240.286c-.425-.121-.213-.772.212-.652a3.018,3.018,0,0,0,2.8-.949c.336-.285.791.229.453.516A3.694,3.694,0,0,1,344.251,240.286Z" transform="translate(-338.433 -227.197)"/><path class="j" d="M358.447,222.229c-.425,2.221-.907,4.429-1.48,6.618-.112.427-.764.213-.652-.212.574-2.187,1.054-4.4,1.479-6.618C357.878,221.585,358.529,221.8,358.447,222.229Z" transform="translate(-342.388 -221.782)"/><path class="j" d="M336.8,248.088c.077,2.26-.281,4.5-.338,6.752-.009.445-.7.4-.683-.036.056-2.256.414-4.491.338-6.752C336.1,247.609,336.787,247.649,336.8,248.088Z" transform="translate(-335.781 -230.139)"/><path class="j" d="M368.537,240.994c.325-.3.778.215.453.515a64.018,64.018,0,0,1-5.436,4.836c-.352.259-.809-.253-.452-.515A63.8,63.8,0,0,0,368.537,240.994Z" transform="translate(-344.535 -227.938)"/><path class="j" d="M372.73,238.034a4.811,4.811,0,0,1,.957-1.121c.342-.278.8.235.453.515a4.153,4.153,0,0,0-.836.982A.343.343,0,0,1,372.73,238.034Z" transform="translate(-347.658 -226.628)"/><path class="j" d="M357.28,247.932a.971.971,0,0,0,.647.134c.433-.064.576.606.138.673a1.737,1.737,0,0,1-1.162-.234C356.52,248.282,356.9,247.709,357.28,247.932Z" transform="translate(-342.53 -230.185)"/><path class="j" d="M336.73,243.742c-.045.38-.091.762-.136,1.142-.053.437-.738.4-.684-.037.045-.38.089-.76.135-1.141C336.1,243.268,336.782,243.3,336.73,243.742Z" transform="translate(-335.822 -228.74)"/><path class="j" d="M356.218,234.785a3.047,3.047,0,0,1-.241,1.075c-.206.391-.777.01-.573-.376a2.254,2.254,0,0,0,.129-.735C355.585,234.312,356.27,234.346,356.218,234.785Z" transform="translate(-342.085 -225.857)"/><path class="j" d="M379.856,238.563c-1.41,1.446-2.95,2.752-4.324,4.238-.3.324-.748-.193-.451-.515,1.329-1.442,2.821-2.716,4.2-4.11C379.466,238.313,379.658,238.443,379.856,238.563Z" transform="translate(-348.403 -227.06)"/><path class="j" d="M339.774,233.182c.16.407-.452.716-.614.3a32.716,32.716,0,0,1-1.724-9.019,3.993,3.993,0,0,0,.669-.155A32.073,32.073,0,0,0,339.774,233.182Z" transform="translate(-336.314 -222.597)"/></g><g transform="translate(4.874 3.401)"><path class="k" d="M321.735,172.746c.374-.236.675.38.305.614a6.379,6.379,0,0,0-2.821,4.913.342.342,0,0,1-.683-.038A7.1,7.1,0,0,1,321.735,172.746Z" transform="translate(-317.936 -172.693)"/><path class="k" d="M318.33,185.229c.241,1.164.507,2.391,1.632,3.005.389.21.009.782-.376.572-1.288-.7-1.65-2.1-1.926-3.438A.343.343,0,0,1,318.33,185.229Z" transform="translate(-317.651 -176.644)"/><path class="k" d="M321.5,184.593a4.169,4.169,0,0,1,.089-2.79c.158-.412.81-.2.652.212a3.574,3.574,0,0,0-.068,2.44C322.309,184.875,321.636,185.007,321.5,184.593Z" transform="translate(-318.825 -175.554)"/><path class="k" d="M382.374,182.314a5.738,5.738,0,0,0-.368-3.582.343.343,0,0,1,.614-.306,6.325,6.325,0,0,1,.439,3.924C382.985,182.78,382.3,182.748,382.374,182.314Z" transform="translate(-338.359 -174.479)"/><path class="k" d="M380.134,188.582a4.849,4.849,0,0,0,.881-1.879c.064-.435.751-.4.685.035a5.568,5.568,0,0,1-.995,2.221A.343.343,0,0,1,380.134,188.582Z" transform="translate(-337.749 -177.104)"/><path class="k" d="M366.29,216.664a.342.342,0,0,1,.683.035,5.038,5.038,0,0,0,1.131,3.836c.3.325-.216.777-.515.452A5.7,5.7,0,0,1,366.29,216.664Z" transform="translate(-333.307 -186.749)"/><path class="k" d="M407,227.989a2.383,2.383,0,0,1,.736,3.561c-.235.374-.806,0-.572-.376a1.705,1.705,0,0,0-.54-2.612C406.231,228.358,406.611,227.785,407,227.989Z" transform="translate(-346.244 -190.483)"/><path class="k" d="M405.127,234.419c.235.011.338-.2.453-.373a.344.344,0,0,1,.574.376,1.192,1.192,0,0,1-1.062.682A.343.343,0,0,1,405.127,234.419Z" transform="translate(-345.703 -192.398)"/><path class="k" d="M406.626,203.747a4.174,4.174,0,0,0-.134-3.671c-.186-.4.426-.707.614-.305a4.835,4.835,0,0,1,.17,4.188C407.1,204.358,406.446,204.15,406.626,203.747Z" transform="translate(-346.244 -181.35)"/><path class="k" d="M403.488,209.187c.355-.506.845-.894,1.2-1.4.25-.365.823.012.573.376-.351.51-.843.9-1.195,1.4C403.808,209.924,403.234,209.549,403.488,209.187Z" transform="translate(-345.267 -183.943)"/><path class="k" d="M345.439,189.873c2.844.14,5.437,2.968,3.979,5.665a2.516,2.516,0,0,1,2.409,2.427c.053.437-.616.579-.672.14-.136-1.093-.8-2.073-2.017-1.873a.321.321,0,0,1-.33-.138.328.328,0,0,1-.218-.512c1.694-2.39-.713-4.9-3.189-5.025A.342.342,0,0,1,345.439,189.873Z" transform="translate(-326.485 -178.224)"/><path class="k" d="M376.1,205.519a.34.34,0,0,1,.049.242,3.292,3.292,0,0,0,.125.433c.152.41-.458.72-.615.305a4.752,4.752,0,0,1-.179-.618,1.987,1.987,0,0,0-1.5-.452,1.185,1.185,0,0,0-.905,1.274.343.343,0,0,1-.684-.037,1.9,1.9,0,0,1,1.158-1.823,2.245,2.245,0,0,1,1.848.18,4.318,4.318,0,0,1,5.9-4.042c.4.174.195.827-.211.652A3.657,3.657,0,0,0,376.1,205.519Z" transform="translate(-335.278 -181.691)"/><path class="k" d="M328.785,207.176c-.161.409-.814.2-.654-.212.914-2.34-1.778-4.56-3.983-3.615-.4.174-.713-.441-.305-.614C326.559,201.573,329.924,204.257,328.785,207.176Z" transform="translate(-319.583 -182.276)"/><path class="k" d="M386.027,228.117c-.426-.112-.213-.763.214-.653.457.119.915,0,1.363.153a1.048,1.048,0,0,1,.487.393,2.8,2.8,0,0,1,5.009-.1c.226.38-.389.681-.616.3a2.114,2.114,0,0,0-3.972.656.345.345,0,0,1-.649.134C387.4,228.04,386.847,228.331,386.027,228.117Z" transform="translate(-339.591 -189.988)"/></g></g><g transform="translate(158.232 31.293)"><path class="l" d="M361.133,229.027l14.054-20.738-3.084-5.313s-6.513,10.969-9.6,8.912,3.939-15.082,3.939-15.082-4.969-5.485-7.71-1.886c-2.4,8.4-4.628,17.458-8.056,16.442s-2.914-15.928-2.914-15.928l-8.673,1.886s5.932,19.2,2.161,31.707Z" transform="translate(-326.069 -161.456)"/><path class="m" d="M365.061,185.61s-3.77,6.513,3.941,7.884a7.3,7.3,0,0,0,5.143-2.227s1.542,2.742,5.314,1.37,2.912-3.771,2.912-3.771,5.347,2.709,7.713-1.027c3.257-5.142-1.885-7.2-1.885-7.2a7.252,7.252,0,0,0,7.712-6.857c.858-7.37-4.8-10.626-10.111-7.713,2.056-4.8-.857-8.741-4.456-8.912a7.02,7.02,0,0,0-7.37,5.1c.172-3.389-3.771-3.733-6.171-1.162,2.743-4.285,3.086-14.225-5.484-14.911s-10.969,7.026-10.112,10.8c-1.543-4.113-4.628-3.6-5.656-.513,0-5.485-6.684-9.427-12.168-6s-4.15,10.626-1.475,12.683c-4.353-1.543-6.066.686-5.38,3.086-3.6-2.4-8.4,2.4-7.54,5.484s2.57,4.285,5.141,3.427c-3.771,2.23-1.543,7.542,3.6,5.143,1.886,3.256,9.77,5.313,13.026-1.029,0,0,4.97,7.371,10.8.343.172,3.086,6.684,4.628,9.083,1.715C361.12,184.581,363,186.125,365.061,185.61Z" transform="translate(-319.886 -146.147)"/><g transform="translate(14.938 36.231)"><path class="m" d="M371.124,222.259c.424.134.6-.528.184-.662a3.023,3.023,0,0,1-1.818-2.331.343.343,0,0,0-.662.182A3.7,3.7,0,0,0,371.124,222.259Z" transform="translate(-350.577 -205.842)"/><path class="m" d="M368.7,199.809c-.864,2.09-1.676,4.2-2.4,6.342-.142.42.521.6.661.182.723-2.143,1.534-4.253,2.4-6.342C369.53,199.583,368.866,199.406,368.7,199.809Z" transform="translate(-349.761 -199.582)"/><path class="m" d="M372.544,233.6c-1.307,1.846-2.236,3.91-3.429,5.827-.235.376.359.721.591.345,1.193-1.915,2.122-3.979,3.429-5.827C373.392,233.581,372.8,233.238,372.544,233.6Z" transform="translate(-350.657 -210.484)"/><path class="m" d="M349.524,208.9a.343.343,0,0,0-.661.182,63.776,63.776,0,0,0,1.886,7.026c.152.412.814.235.661-.182A63.794,63.794,0,0,1,349.524,208.9Z" transform="translate(-344.15 -202.503)"/><path class="m" d="M349.452,205.31a4.818,4.818,0,0,0-.184-1.463c-.133-.42-.794-.241-.66.183a4.154,4.154,0,0,1,.159,1.279A.343.343,0,0,0,349.452,205.31Z" transform="translate(-344.065 -200.878)"/><path class="m" d="M356.871,222.137a.975.975,0,0,1-.614-.241c-.329-.295-.816.188-.485.483a1.728,1.728,0,0,0,1.1.444C357.312,222.847,357.31,222.161,356.871,222.137Z" transform="translate(-346.342 -206.736)"/><path class="m" d="M376.462,230.047q-.257.515-.515,1.029c-.2.394.395.742.592.345l.515-1.029C377.249,230,376.658,229.651,376.462,230.047Z" transform="translate(-352.861 -209.334)"/><path class="m" d="M365.163,211.847a3.037,3.037,0,0,0-.389,1.029c-.043.441.643.438.686,0a2.214,2.214,0,0,1,.3-.683C365.952,211.8,365.361,211.453,365.163,211.847Z" transform="translate(-349.276 -203.475)"/><path class="m" d="M341.917,201.063c.386,1.983.956,3.922,1.286,5.917.07.435.731.251.661-.182-.319-1.934-.864-3.818-1.248-5.738C342.383,201.07,342.15,201.072,341.917,201.063Z" transform="translate(-341.917 -200.058)"/><path class="m" d="M377.088,219.535c-.359.254-.016.848.345.591a32.717,32.717,0,0,0,6.395-6.587,4.039,4.039,0,0,1-.473-.5A32.118,32.118,0,0,1,377.088,219.535Z" transform="translate(-353.192 -203.915)"/></g><g transform="translate(2.155 2.781)"><path class="j" d="M426.929,178.225c-.183-.4-.773-.053-.592.346a6.38,6.38,0,0,1-.342,5.653c-.216.387.376.732.591.346A7.1,7.1,0,0,0,426.929,178.225Z" transform="translate(-356.19 -159.198)"/><path class="j" d="M422.738,191.305c-.841.839-1.736,1.72-3.015,1.612-.439-.036-.437.65,0,.687,1.464.121,2.532-.85,3.5-1.815A.343.343,0,0,0,422.738,191.305Z" transform="translate(-354.08 -163.434)"/><path class="j" d="M421.214,188.964a4.171,4.171,0,0,0,1.46-2.38c.095-.43-.565-.614-.662-.182a3.578,3.578,0,0,1-1.282,2.077C420.382,188.752,420.871,189.234,421.214,188.964Z" transform="translate(-354.471 -161.809)"/><path class="j" d="M371.235,153.682a5.735,5.735,0,0,1,2.275-2.791.343.343,0,0,0-.345-.592,6.307,6.307,0,0,0-2.522,3.037C370.468,153.737,371.058,154.086,371.235,153.682Z" transform="translate(-338.373 -150.248)"/><path class="j" d="M370.263,159.9a4.836,4.836,0,0,1,.3-2.055c.184-.4-.406-.747-.591-.346a5.577,5.577,0,0,0-.389,2.4A.343.343,0,0,0,370.263,159.9Z" transform="translate(-338.041 -152.525)"/><path class="j" d="M365.387,191.216a.343.343,0,0,0-.592-.344,5.034,5.034,0,0,1-3.052,2.584.343.343,0,0,0,.182.662A5.716,5.716,0,0,0,365.387,191.216Z" transform="translate(-335.439 -163.274)"/><path class="j" d="M325.637,178.307a2.385,2.385,0,0,0-2.572,2.57.344.344,0,0,0,.688,0c.021-1.13.689-2,1.884-1.886C326.077,179.036,326.073,178.35,325.637,178.307Z" transform="translate(-323.065 -159.278)"/><path class="j" d="M324.429,184.529c-.2-.121-.172-.351-.172-.561a.343.343,0,0,0-.685,0,1.189,1.189,0,0,0,.513,1.153A.342.342,0,0,0,324.429,184.529Z" transform="translate(-323.228 -160.998)"/><path class="j" d="M339.247,158.266a4.173,4.173,0,0,1,2.128-2.994c.376-.231.032-.824-.346-.592a4.832,4.832,0,0,0-2.444,3.4C338.516,158.516,339.176,158.7,339.247,158.266Z" transform="translate(-328.06 -151.658)"/><path class="j" d="M339.484,164.226c-.018-.616-.216-1.21-.228-1.829a.343.343,0,0,0-.685,0c.012.62.21,1.214.228,1.829C338.812,164.667,339.5,164.669,339.484,164.226Z" transform="translate(-328.057 -154.053)"/><path class="j" d="M394.636,180c-2.453-1.445-6.176-.507-6.439,2.545a2.518,2.518,0,0,0-3.347.707c-.284.334.2.822.485.484.714-.839,1.806-1.292,2.716-.456a.611.611,0,0,0,.813-.242c-.1-2.931,3.29-3.7,5.426-2.448A.343.343,0,0,0,394.636,180Z" transform="translate(-342.93 -159.614)"/><path class="j" d="M361.416,174.445a.343.343,0,0,0-.172.176,3.624,3.624,0,0,1-.344.294c-.353.258-.012.854.346.592a4.315,4.315,0,0,0,.489-.419,1.986,1.986,0,0,1,1.5.444,1.188,1.188,0,0,1,.058,1.563c-.235.376.357.72.591.345a1.894,1.894,0,0,0,.035-2.16,2.247,2.247,0,0,0-1.642-.864,4.318,4.318,0,0,0-2.71-6.619c-.433-.077-.616.584-.181.66A3.655,3.655,0,0,1,361.416,174.445Z" transform="translate(-334.678 -155.896)"/><path class="j" d="M400.6,203.315c-.092.432.57.614.662.182.522-2.455,3.991-2.832,5.314-.831.242.367.837.024.593-.346C405.538,199.855,401.251,200.251,400.6,203.315Z" transform="translate(-348.025 -166.495)"/><path class="j" d="M341.163,188.6c.418.142.6-.519.181-.662-.448-.152-.762-.505-1.223-.622a1.059,1.059,0,0,0-.623.062,2.8,2.8,0,0,0-4.13-2.834c-.4.193-.05.784.345.592a2.116,2.116,0,0,1,2.96,2.732c-.128.293.147.662.469.469C340.06,187.782,340.361,188.326,341.163,188.6Z" transform="translate(-326.969 -161.183)"/></g></g><g transform="translate(81.631 44.799)"><path class="n" d="M251.421,181.192c-4.368-9.349-17.685-17.339-29.062-14.569S207.61,180.4,207.61,180.4s2.164,38.108,5.765,45.166,13.716-.946,13.182-2.8c-.763-1.868,1.779-9.522,11.93-13.412S255.788,190.542,251.421,181.192Zm-18.08,1.122a4.633,4.633,0,0,1-4.712,4.108c-2.8-.22-5.428-2.221-5.043-5.244.361-2.822,3.208-4.423,5.843-4.153a.439.439,0,0,1,.053.018c.014,0,.023,0,.037,0A4.56,4.56,0,0,1,233.341,182.314Z" transform="translate(-207.136 -166.066)"/><g transform="translate(0 3.567)"><g transform="translate(0 2.275)"><path class="f" d="M207.59,193.358c1.514-3.7,2.826-7.545,5.131-10.853a17.456,17.456,0,0,1,11.379-6.989c8.273-1.4,16.743,3.52,18.9,11.693a15.391,15.391,0,0,1-.692,9.655c-1.511,3.729-4.575,5.946-7.877,8-3.523,2.189-7.414,4.427-9.665,8.039-1.968,3.158-1.747,7.153-4.008,10.195-1.894,2.545-4.967,2.442-7.373.744-2.61-1.841-4-5.1-4.371-8.175-.052-.439-.721-.285-.669.149.547,4.572,4.089,10.759,9.519,9.922,2.638-.407,4.194-3.006,5.063-5.27.665-1.733.956-3.592,1.561-5.348.808-2.347,2.476-3.963,4.282-5.582,3.228-2.892,7.439-4.449,10.65-7.362a14.923,14.923,0,0,0,4.333-7.568,16.13,16.13,0,0,0-5.165-15.794,18.581,18.581,0,0,0-20.393-1.987c-6.416,3.337-8.688,10.042-11.253,16.317-.167.409.485.619.652.213Z" transform="translate(-206.911 -174.681)"/></g><g transform="translate(16.412 7.363)"><path class="g" d="M237,182.215c-2.634-.27-5.482,1.331-5.843,4.153-.384,3.023,2.242,5.024,5.043,5.244a4.633,4.633,0,0,0,4.712-4.108,4.56,4.56,0,0,0-3.823-5.271c-.429-.086-.647.565-.214.652a3.888,3.888,0,0,1,3.409,4.051,4.057,4.057,0,0,1-3.738,4c-2.419.146-4.876-1.736-4.741-4.24.141-2.6,2.829-4.03,5.161-3.79.44.043.473-.64.034-.686Z" transform="translate(-231.116 -182.186)"/></g><g transform="translate(30.629 22.463)"><path class="f" d="M255.233,204.764c-.3,1.863-1.614,3.115-3.025,4.242-.347.276.117.782.46.508,1.578-1.26,2.914-2.652,3.25-4.716.07-.436-.615-.466-.685-.034Z" transform="translate(-252.085 -204.455)"/></g><g transform="translate(27.114 28.062)"><path class="f" d="M249.182,212.747a14.713,14.713,0,0,0-2.122,1.267c-.363.245-.05.856.317.61a14.6,14.6,0,0,1,2.121-1.269c.4-.183.086-.791-.316-.608Z" transform="translate(-246.899 -212.713)"/></g><g transform="translate(27.982 24.632)"><path class="f" d="M250.017,207.67a7.58,7.58,0,0,0-1.666.812c-.379.225-.066.835.315.608a6.857,6.857,0,0,1,1.5-.749c.42-.127.275-.8-.148-.671Z" transform="translate(-248.18 -207.655)"/></g><g transform="translate(11.118)"><path class="f" d="M234.972,171.778a16.53,16.53,0,0,0-11.485,1.358.343.343,0,0,0,.317.609,15.8,15.8,0,0,1,10.954-1.316c.428.093.645-.558.214-.651Z" transform="translate(-223.309 -171.326)"/></g><g transform="translate(6.829 2.729)"><path class="f" d="M219.615,175.424c-.88.65-1.627,1.457-2.506,2.108-.355.262.108.768.46.508.879-.65,1.627-1.457,2.506-2.109.356-.262-.108-.768-.46-.507Z" transform="translate(-216.982 -175.352)"/></g><g transform="translate(3.666 11.701)"><path class="f" d="M215.557,188.724a24.93,24.93,0,0,0-3.209,5.244c-.176.406.477.616.651.214a24.241,24.241,0,0,1,3.133-5.084c.271-.351-.306-.723-.574-.374Z" transform="translate(-212.318 -188.584)"/></g><g transform="translate(19.333 36.87)"><path class="f" d="M239.907,225.749a19.609,19.609,0,0,0-4.382,3.958c-.3.317.154.827.46.506a19.192,19.192,0,0,1,4.238-3.855c.385-.215.071-.824-.316-.608Z" transform="translate(-235.425 -225.704)"/></g><g transform="translate(19.455 16.723)"><path class="f" d="M241.812,196.025a7.444,7.444,0,0,1-5.768.539.343.343,0,0,0-.214.652,8.167,8.167,0,0,0,6.3-.582c.4-.185.084-.794-.317-.608Z" transform="translate(-235.604 -195.991)"/></g><g transform="translate(37.37 17.789)"><path class="f" d="M262.962,198.042c.531,1.812-.113,3.506-.9,5.131-.193.4.442.656.633.26.881-1.818,1.487-3.649.9-5.657-.123-.423-.755-.155-.632.266Z" transform="translate(-262.026 -197.562)"/></g><g transform="translate(36.7 30.6)"><path class="f" d="M263.857,216.5a14.715,14.715,0,0,0-2.475.034c-.435.029-.472.716-.03.685a14.944,14.944,0,0,1,2.475-.035c.439.045.469-.641.03-.684Z" transform="translate(-261.038 -216.456)"/></g></g></g><g transform="translate(122.425 32.82)"><path class="o" d="M271.081,193.951s4.055,23.676.8,35.845,22.4,11.3,22.795-5.274-1.754-35.158-3.362-36.624S271.081,193.951,271.081,193.951Z" transform="translate(-268.365 -161.055)"/><path class="m" d="M277.96,158.084s-.685-9.044-2.057-9.686c-2.056.043-5.141,1.928-5.141,1.928s4.114,6.148,4.114,8.559c-4.114,1.093-7.075,4.613-7.674,9.575-.629,5.2,1.331,13.716.989,14.915s3.086.638,3.086-2.08c1.028,2.937,3.428,2.6,3.085-.317,1.028,2.055,4.456.942,3.942-.987.857,2.013,3.084,1.335,3.084-.725,1.543,1.882,3.257.854,2.743-1.2a1.628,1.628,0,0,0,3.085-1c1.2,2.2,3.215,1.136,2.807-.991,1.306,1.987,2.89,1.17,1.927-2.021S289.1,156.747,277.96,158.084Z" transform="translate(-267.076 -148.398)"/><g transform="translate(2.657 2.241)"><path class="p" d="M274.226,168.133a5.224,5.224,0,0,0-1.714,2.229" transform="translate(-271.483 -156.993)"/><path class="p" d="M271.509,173.948a4.735,4.735,0,0,0-.515,2.227" transform="translate(-270.994 -158.865)"/><path class="p" d="M274.452,171.925c0,.342-.172.857-.172,1.2" transform="translate(-272.052 -158.214)"/><path class="p" d="M300.326,185.014c-.172-.515-.344-1.2-.515-1.714" transform="translate(-280.272 -161.876)"/><path class="p" d="M298.474,179.11a5.1,5.1,0,0,1-.685-1.372" transform="translate(-279.621 -160.085)"/><path class="p" d="M278.832,151.7q.255,1.027.513,2.056" transform="translate(-273.518 -151.703)"/></g><g transform="translate(6.433 32.066)"><path class="q" d="M301.255,198.853c-.165-.972-.351-1.941-.515-2.913-.073-.435-.734-.251-.66.182.163.972.349,1.941.513,2.913C300.668,199.471,301.328,199.286,301.255,198.853Z" transform="translate(-284.134 -195.691)"/><path class="q" d="M302.014,203.112a.342.342,0,0,0-.684,0,13.315,13.315,0,0,0,.182,2.49c.083.435.743.25.662-.181A12.252,12.252,0,0,1,302.014,203.112Z" transform="translate(-284.538 -197.974)"/><path class="q" d="M298.182,200.149c-.18-.4-.77-.055-.593.346.169.382.173.814.343,1.2.178.4.77.056.593-.345C298.356,200.967,298.352,200.534,298.182,200.149Z" transform="translate(-283.323 -197.069)"/><path class="q" d="M277.575,210.138c-.158-.852-.185-1.719-.343-2.571-.081-.435-.74-.25-.661.182.158.852.185,1.72.342,2.572C276.994,210.754,277.654,210.57,277.575,210.138Z" transform="translate(-276.564 -199.435)"/><path class="q" d="M277.313,221.312a14.687,14.687,0,0,0,.184,2.662c.081.435.741.25.661-.182a13.547,13.547,0,0,1-.159-2.48A.344.344,0,0,0,277.313,221.312Z" transform="translate(-276.805 -203.834)"/><path class="q" d="M295.855,220.971a16.94,16.94,0,0,0-.871,6.947c.03.439.716.441.686,0a16.464,16.464,0,0,1,.845-6.764C296.666,220.736,296,220.559,295.855,220.971Z" transform="translate(-282.48 -203.755)"/><path class="q" d="M296.2,235.72a.343.343,0,0,0-.685,0,2.83,2.83,0,0,0,.219,1.2c.179.4.77.054.591-.345A2.068,2.068,0,0,1,296.2,235.72Z" transform="translate(-282.665 -208.472)"/><path class="q" d="M292.914,233.193a.343.343,0,0,0-.686,0,2.846,2.846,0,0,0,.218,1.2c.181.4.772.054.591-.346A2.086,2.086,0,0,1,292.914,233.193Z" transform="translate(-281.607 -207.659)"/></g></g><g transform="translate(138.174 18.945)"><path class="l" d="M322.566,172.039s11.606-26.689,8.53-27.833S320.378,171.6,320.378,171.6s9.229-42.378,4.763-43.634-6.546,43.444-6.546,43.444-.464-37.347-4.127-37.391,2.257,37.335,2.257,37.335-4.433-27.475-8.739-26.942,7.813,29.576,8.248,30.015S320.837,176.637,322.566,172.039Z" transform="translate(-295.699 -127.936)"/><path class="r" d="M308.906,189.99c-.6.375,0,0-1.715,5-11.9,1.663-23.049,15.328-12.948,33.641s27.318,13.649,32.984,4.247c9.676-16.061,8.721-30.5-8.6-37.423-.129-5.09-1.015-5.274-1.015-5.274S310.017,188.821,308.906,189.99Z" transform="translate(-290.304 -147.762)"/><g transform="translate(2.182 41.765)"><path class="s" d="M336.116,212.182c-.481-1.192-.887-2.411-1.368-3.6-.163-.408-.814-.19-.648.221.48,1.191.888,2.41,1.368,3.6C335.632,212.811,336.283,212.592,336.116,212.182Z" transform="translate(-306.577 -195.596)"/><path class="s" d="M319.465,241.341c-.021,1,.115,1.993.093,2.992-.009.441.675.391.685-.047.021-1-.115-1.993-.092-2.992C320.16,240.852,319.475,240.9,319.465,241.341Z" transform="translate(-301.873 -206.099)"/><path class="s" d="M310.809,250.478q-.546-2.471-1.1-4.944c-.1-.431-.744-.207-.649.22q.546,2.471,1.1,4.944C310.257,251.13,310.9,250.906,310.809,250.478Z" transform="translate(-298.523 -207.489)"/><path class="s" d="M340.5,202.624c-.544-.375-1.109-.741-1.709-1.092,3.758,4.473,5.423,9.985,6.749,15.653.1.43.747.206.65-.221C344.983,211.828,343.5,206.859,340.5,202.624Z" transform="translate(-308.095 -193.396)"/><g transform="translate(9.016 0.014)"><path class="s" d="M328.608,203.18c-.875-4.471-2.93-8.748-3.139-13.324-.222-.026-.456-.054-.691-.079.153,4.127,1.808,8.031,2.829,12a75.091,75.091,0,0,1,2.216,15.749,41.384,41.384,0,0,1-2.454,15.715,44.351,44.351,0,0,1-3.96,7.98c.27-.008.541-.015.808-.035a49.467,49.467,0,0,0,3.354-6.582,41.3,41.3,0,0,0,2.948-14.618C330.685,214.334,329.689,208.7,328.608,203.18Z" transform="translate(-312.16 -189.625)"/><path class="s" d="M317.52,241.156c1.932-8.4,3.28-16.931,2.882-25.574-.221-4.815-1.069-9.591-1.611-14.376-.268-2.377-.45-4.763-.506-7.155a17.61,17.61,0,0,1,.2-4.436c-.317-.025-.635-.047-.945-.062-.336,1.188-.677,2.373-1.013,3.559a.343.343,0,0,0-.331.165c-2.958,4.834-6.122,9.722-7.91,15.141a28.632,28.632,0,0,0-.534,16.294c.108.429.756.205.649-.221a28.108,28.108,0,0,1,.9-16.892,72.276,72.276,0,0,1,6.732-12.75,126.878,126.878,0,0,0-4.386,20.088,93.211,93.211,0,0,0-.245,14.292,65.324,65.324,0,0,0,1.286,11.205c.247.073.494.138.74.2a65.178,65.178,0,0,1-1.342-11.451,93.17,93.17,0,0,1,.306-14.745,120.708,120.708,0,0,1,4.3-19.469c-1.014,7.672-.679,15.475-.3,23.194a.343.343,0,0,0,.683-.048c-.4-8.209-.761-16.511.526-24.648.02,1.732.109,3.462.251,5.19.4,4.808,1.2,9.572,1.68,14.371.941,9.444-.581,18.92-2.707,28.11C317.055,241.15,317.288,241.155,317.52,241.156Z" transform="translate(-306.818 -189.553)"/></g><path class="s" d="M309.293,239.676a29.6,29.6,0,0,1-7.828-27.26,29.305,29.305,0,0,1,6.651-12.809c2.414-2.755,6.8-6.011,5.746-10.074-.255.01-.492.031-.712.06.7,2.64-1.2,5-2.976,6.9a51.447,51.447,0,0,0-4.9,5.625,29.772,29.772,0,0,0,3.024,37.485c.355.162.711.306,1.069.441A.342.342,0,0,0,309.293,239.676Z" transform="translate(-295.611 -189.533)"/><path class="s" d="M335.47,202.825a56.365,56.365,0,0,0-3.861-6.1c-.243-.335-.483-.678-.721-1.026-.045-.018-.087-.038-.132-.056,0-.053,0-.1-.005-.149a10.433,10.433,0,0,1-2.065-5.3c-.21-.032-.443-.068-.7-.1.038,3.945,3.293,6.838,5.168,10.051,2.914,5,5.689,10.147,6.723,15.9,1.378,7.667-.923,15-4.676,21.59a17.382,17.382,0,0,0,1.45-1.231c3-5.746,4.817-12,4.155-18.635C340.272,212.418,338.026,207.485,335.47,202.825Z" transform="translate(-304.618 -189.714)"/><path class="s" d="M300.5,238.44c-3.872-5.4-6.392-11.656-6.277-18.447a27.436,27.436,0,0,1,8.3-18.79,59.509,59.509,0,0,0-4.43,6.924c-.218.386.395.693.612.31a45.732,45.732,0,0,1,7.184-10.062c.078-.055.158-.107.235-.161a19.207,19.207,0,0,0-2.013.648,28.7,28.7,0,0,0-10.558,20.7,28.34,28.34,0,0,0,3.815,15.2A26.84,26.84,0,0,0,300.5,238.44Z" transform="translate(-293.521 -192.328)"/><path class="s" d="M335.514,217.632c3.893,10.213,2.431,21.806-3.047,31.108.356-.144.705-.3,1.05-.466,5.19-9.329,6.5-20.757,2.645-30.861C336.007,217,335.357,217.22,335.514,217.632Z" transform="translate(-306.06 -198.438)"/><path class="s" d="M333.09,239.016c-.644,6.338-3.436,12.471-7.052,17.828.311-.042.62-.094.93-.152,3.493-5.3,6.162-11.321,6.793-17.539C333.8,238.716,333.134,238.576,333.09,239.016Z" transform="translate(-303.99 -205.378)"/><path class="s" d="M319.4,261.093c.189-2.981.449-5.957.591-8.941.02-.44-.662-.39-.685.047-.138,2.936-.393,5.864-.58,8.795C318.953,261.03,319.179,261.067,319.4,261.093Z" transform="translate(-301.637 -209.595)"/></g><g transform="translate(15.408 2.458)"><path class="m" d="M331.479,131.826c-.239,1.119-.61,2.2-.851,3.324a.343.343,0,0,0,.673.136c.24-1.119.611-2.2.85-3.325A.343.343,0,0,0,331.479,131.826Z" transform="translate(-318.692 -131.561)"/><path class="m" d="M330.243,139.256q-.134.672-.271,1.343a.342.342,0,0,0,.671.137q.137-.671.274-1.344A.344.344,0,0,0,330.243,139.256Z" transform="translate(-318.481 -133.953)"/><path class="m" d="M314.941,171.208c-.239-.374-.81.006-.572.378.4.62.608,1.333,1,1.953a.343.343,0,0,0,.572-.377C315.548,172.542,315.337,171.829,314.941,171.208Z" transform="translate(-313.441 -144.277)"/><path class="m" d="M313.658,168.629a.343.343,0,0,0-.571.378c.09.135.177.269.268.4a.343.343,0,0,0,.571-.378Z" transform="translate(-313.028 -143.447)"/><path class="m" d="M338.7,161.3a10.141,10.141,0,0,0-.81,2.2.343.343,0,0,0,.673.136,9.223,9.223,0,0,1,.749-2.028C339.5,161.211,338.885,160.9,338.7,161.3Z" transform="translate(-321.028 -141.076)"/></g></g><g transform="translate(86.69 66.261)"><path class="t" d="M214.372,199.79s3.656-3.105,10.055-1.712,14.808,7.374,12.888,14.667-5.8,10.4-9.46,8.046-5.713-2.22-2.971.228l.915.62-3.2,13.483h-4.567S218.485,205.137,214.372,199.79Z" transform="translate(-214.372 -197.719)"/><g transform="translate(3.602 2.941)"><g transform="translate(17.129 9.793)"><path class="b" d="M245.468,216.831a3.224,3.224,0,0,1-.467,1.712c-.237.375.357.719.592.346a3.919,3.919,0,0,0,.561-2.058.343.343,0,0,0-.685,0Z" transform="translate(-244.946 -216.499)"/></g><g transform="translate(15.259 13.906)"><path class="b" d="M243.085,222.724a16.293,16.293,0,0,0-.857,1.714c-.195.4.4.743.592.345a16.829,16.829,0,0,1,.857-1.714c.241-.372-.353-.715-.592-.345Z" transform="translate(-242.189 -222.565)"/></g><g transform="translate(15.083 11.494)"><path class="b" d="M242.541,219.11a3.107,3.107,0,0,0-.568.755c-.206.39.386.737.592.346a2.59,2.59,0,0,1,.46-.616.342.342,0,0,0-.484-.484Z" transform="translate(-241.93 -219.008)"/></g><g transform="translate(0 0.19)"><path class="b" d="M219.694,202.764c.5,2.162,1.02,4.319,1.371,6.512.069.437.73.251.66-.182-.351-2.194-.869-4.35-1.371-6.513-.1-.431-.761-.248-.66.182Z" transform="translate(-219.684 -202.335)"/></g><g transform="translate(2.233 8.928)"><path class="b" d="M222.982,215.653a20.2,20.2,0,0,0,.685,2.914c.136.418.8.239.662-.182a20.268,20.268,0,0,1-.686-2.915c-.073-.434-.734-.25-.66.183Z" transform="translate(-222.977 -215.223)"/></g><g transform="translate(3.763 16.509)"><path class="b" d="M229.08,227.318a2.754,2.754,0,0,0-3.189-.633c-1.176.673-.55,2.064.133,2.831.295.33.778-.157.485-.485-.444-.5-1.014-1.46-.12-1.835a2.152,2.152,0,0,1,2.207.607c.319.3.8-.18.484-.485Z" transform="translate(-225.233 -226.404)"/></g><g transform="translate(8.408 18.007)"><path class="b" d="M232.415,229.3c.293.016.559.156.856.172.443.024.44-.661,0-.685-.293-.016-.559-.155-.856-.172-.442-.024-.439.661,0,.686Z" transform="translate(-232.084 -228.614)"/></g><g transform="translate(8.415)"><path class="b" d="M236.26,204.225a10.55,10.55,0,0,0-3.75-2.145c-.414-.157-.591.507-.182.662a9.677,9.677,0,0,1,3.448,1.968c.319.306.8-.177.485-.484Z" transform="translate(-232.095 -202.056)"/></g></g></g><g transform="translate(107.568 80.669)"><path class="t" d="M258.492,219.025c-7.7-.713-13.891,5.392-13.287,13.538.515,6.952,10.031,5.235,10.031,5.235l-.172,3.767,5.577.758.172-4.35s6.4-1.932,8.134-5.984C271.663,225.647,265.889,219.71,258.492,219.025Z" transform="translate(-245.165 -218.969)"/><g transform="translate(2.732 2.583)"><g transform="translate(11.663 9.565)"><path class="b" d="M267.061,242c.164-1.092,1.935-5.552,3.485-4.019,1.328,1.311-3,3.226-3.817,3.632-.4.2-.049.788.346.593,1.4-.7,5.762-2.567,3.957-4.709-2.01-2.382-4.417,2.882-4.632,4.322-.064.433.6.618.661.182Z" transform="translate(-266.395 -236.886)"/></g><g transform="translate(3.439 12.147)"><path class="b" d="M260.5,242.721a7.682,7.682,0,0,0-3.223-1.642c-.629-.209-2.419-.8-2.85.09-1.224,2.526,5.047,2.121,6.082,2.468.42.14.6-.522.182-.662a11.343,11.343,0,0,0-2.619-.307c-.707-.059-2.949-.026-3.078-1.014-.081-.624,2.265.139,2.522.23a6.329,6.329,0,0,1,2.5,1.321c.3.328.78-.158.484-.485Z" transform="translate(-254.266 -240.693)"/></g><g transform="translate(1.37)"><path class="b" d="M253.272,222.845a18.881,18.881,0,0,0-1.955,1.6c-.316.31.17.795.485.484a17.778,17.778,0,0,1,1.815-1.49c.349-.262.007-.856-.345-.591Z" transform="translate(-251.215 -222.779)"/></g><g transform="translate(0.009 3.098)"><path class="b" d="M249.986,227.455a4.759,4.759,0,0,0-.74,1.27c-.192.395.4.744.593.345a4.267,4.267,0,0,1,.631-1.13c.3-.323-.182-.809-.484-.485Z" transform="translate(-249.208 -227.348)"/></g><g transform="translate(17.635 4.156)"><path class="b" d="M277.1,231.537a6.7,6.7,0,0,0-1.235-2.481c-.258-.352-.855-.011-.591.344a6.273,6.273,0,0,1,1.165,2.318c.1.432.757.25.662-.181Z" transform="translate(-275.204 -228.908)"/></g><g transform="translate(15.943 2.255)"><path class="b" d="M273.8,226.541a1.283,1.283,0,0,0-.665-.431c-.433-.068-.618.592-.182.662a.7.7,0,0,1,.363.254.342.342,0,0,0,.484-.484Z" transform="translate(-272.708 -226.105)"/></g><g transform="translate(0 12.2)"><path class="b" d="M250.295,242.061a1.492,1.492,0,0,1-.414-.957c-.016-.441-.7-.443-.685,0a2.23,2.23,0,0,0,.615,1.441c.3.325.786-.161.485-.484Z" transform="translate(-249.195 -240.772)"/></g><g transform="translate(11.671 8.593)"><path class="b" d="M268.7,235.461a3.1,3.1,0,0,0-2.262,1.7c-.174.4.417.749.592.344a2.473,2.473,0,0,1,1.851-1.384c.433-.094.25-.754-.181-.661Z" transform="translate(-266.407 -235.452)"/></g></g></g><g transform="translate(0 40.523)"><path class="h" d="M119.351,161.744s-2.053-3-4.91-1.622-1.625,4.43-4.811,4.564-4.673,2.305-3.872,4.247.914,4.451-.686,5.938,13.483,12.917,14.854,12.458,4.341-4.469,4.341-4.469S117.419,162.9,119.351,161.744Z" transform="translate(-92.453 -159.759)"/><g transform="translate(14.08 5.743)"><path class="i" d="M116.5,172.6a5.431,5.431,0,0,1,.393-3.849c.207-.39-.384-.736-.592-.346a6.166,6.166,0,0,0-.462,4.379C115.94,173.209,116.6,173.027,116.5,172.6Z" transform="translate(-109.973 -168.23)"/><path class="i" d="M117.826,178.412a4.116,4.116,0,0,1-.479-1.2c-.094-.433-.755-.25-.662.181a4.75,4.75,0,0,0,.549,1.368A.343.343,0,0,0,117.826,178.412Z" transform="translate(-110.308 -171.041)"/><path class="i" d="M107.555,170.172a1.6,1.6,0,0,0-.086,1.632c.206.39.8.045.592-.346a.9.9,0,0,1,.086-.94A.343.343,0,0,0,107.555,170.172Z" transform="translate(-107.284 -168.801)"/></g><path class="i" d="M117.03,189.647s-3.257.976-4.971-2.679-4.653-3.108-7.21-5.009-5.644-8.835-8.557-5.283-.171,7.416-3.427,8.656-3.6,4.325-1.2,7.753,15.083,8.054,15.083,8.054,14.224,6.572,15.253,6.34,5.313-3.842,5.313-3.842S122,192.327,117.03,189.647Z" transform="translate(-87.672 -164.885)"/><g transform="translate(0 23.101)"><path class="h" d="M124.869,211.348s-2.195-4.535-5.851-3.707-9.107-2.578-11.181-6.473-5.958-8.913-11.443-6.862-12.112,3.775-9.141,8.284,4.571,5.925,4.341,8.759,1.829,8.819,7.085,8.569,6.259,2.494,7.014,5.234,6.925,2.283,9.9,5.255,26.947,4.937,24.557-1.074S124.869,211.348,124.869,211.348Z" transform="translate(-86.518 -193.83)"/><g transform="translate(4.659 10.603)"><path class="u" d="M93.454,209.961a9.764,9.764,0,0,1,1.166,2.147c.164.4.827.228.66-.181a10.4,10.4,0,0,0-1.234-2.311c-.258-.352-.854-.011-.592.345Z" transform="translate(-93.389 -209.468)"/><g transform="translate(1.734 4.612)"><path class="u" d="M95.957,216.7a10.226,10.226,0,0,1,.33,2.309.343.343,0,0,0,.686,0,11.092,11.092,0,0,0-.356-2.492c-.1-.429-.765-.247-.66.182Z" transform="translate(-95.946 -216.27)"/></g><g transform="translate(11.154 13.38)"><path class="u" d="M110.36,229.977c1.2-.6,2.338,1.48,2.582,2.367a.343.343,0,0,0,.661-.182c-.382-1.385-1.893-3.617-3.589-2.777-.4.2-.048.789.346.592Z" transform="translate(-109.839 -229.201)"/></g><g transform="translate(22.837 10.242)"><path class="u" d="M129.689,226.408a20.383,20.383,0,0,0-2.126-1.768c-.355-.265-.7.33-.346.593a19.048,19.048,0,0,1,1.987,1.66c.315.311.8-.174.485-.484Z" transform="translate(-127.07 -224.573)"/></g><g transform="translate(20.762 2.546)"><path class="u" d="M127.523,214.609a13.306,13.306,0,0,1-3-1.336.343.343,0,0,0-.346.592,14.113,14.113,0,0,0,3.168,1.406.343.343,0,0,0,.182-.662Z" transform="translate(-124.009 -213.223)"/></g><g transform="translate(28.473 4.099)"><path class="u" d="M138.9,216.033a21.3,21.3,0,0,0-3.085-.514c-.433-.067-.618.593-.182.661a21.36,21.36,0,0,1,3.086.514c.423.131.6-.531.182-.661Z" transform="translate(-135.382 -215.514)"/></g><g transform="translate(41.68 21.046)"><path class="u" d="M159.908,246.875c-2.606-.942-2.845-4.34-4.476-6.254-.287-.337-.77.149-.485.484,1.78,2.089,1.891,5.388,4.779,6.43.417.151.595-.512.182-.66Z" transform="translate(-154.861 -240.508)"/></g></g><path class="l" d="M137.667,236.639s-20.986-16.556-25.325-17.794,21.409,15.515,24.373,18.985C139,237.782,137.667,236.639,137.667,236.639Z" transform="translate(-94.674 -201.863)"/></g><g transform="translate(21.319 0.613)"><path class="m" d="M165.591,219.752s3.538-12.339-1.488-14.522-5.952-7.537-5.717-10.916-3.258-10.432-6.31-11.134-8.1-8.332-7.974-10.8-4.449-6.619-8.1-7.4-2.971-4.415-7.085-4.312-8,.538-9.369,2.949-2.742,5.744,0,9.1,6.17,5.531,4.8,8.788-1.6,8.861,2.286,10.858,6.627,4.136,6.169,7.18-3.379,6.584,2.195,8.127,9.446,4.651,9.795,6.982,3.391,5.12,3.391,5.12Z" transform="translate(-117.96 -160.664)"/><path class="l" d="M167.24,227.426s-18.853-40.329-27.08-44.682c-1.142-.241,21.212,33.16,24.546,44.682Z" transform="translate(-125.094 -167.772)"/><g transform="translate(6.564 2.573)"><g transform="translate(6.44)"><path class="i" d="M137.157,164.881a3.56,3.56,0,0,0,2.981,2.467c.433.063.619-.6.182-.661a2.908,2.908,0,0,1-2.5-1.989c-.132-.421-.793-.241-.66.182Z" transform="translate(-137.139 -164.458)"/></g><g transform="translate(10.909 2.73)"><path class="i" d="M143.974,169.159a5.87,5.87,0,0,1,1.974.993c.357.262.7-.333.347-.592a6.385,6.385,0,0,0-2.139-1.062.343.343,0,0,0-.182.661Z" transform="translate(-143.73 -168.485)"/></g><g transform="translate(15.352 28.103)"><path class="i" d="M150.335,206.416a23.794,23.794,0,0,0,1.768,2.469c.275.346.758-.143.485-.485a22.3,22.3,0,0,1-1.661-2.33.343.343,0,0,0-.592.346Z" transform="translate(-150.283 -205.906)"/></g><g transform="translate(19.128 33.421)"><path class="i" d="M155.852,214.081a10.434,10.434,0,0,0,1.075,3.773c.174.405.764.056.592-.346a9.518,9.518,0,0,1-.982-3.427c-.013-.441-.7-.442-.685,0Z" transform="translate(-155.852 -213.749)"/></g><g transform="translate(28.557 51.919)"><path class="i" d="M173.65,246.859c-1.161-1.844-2.214-3.745-3.256-5.657-.212-.389-.8-.042-.592.346,1.042,1.91,2.1,3.813,3.257,5.655.235.373.829.03.591-.345Z" transform="translate(-169.758 -241.032)"/></g><g transform="translate(25.475 48.147)"><path class="i" d="M167.217,237.7a14.739,14.739,0,0,1-1.371-2.056c-.2-.393-.794-.047-.592.345a14.7,14.7,0,0,0,1.371,2.057c.262.349.858.007.592-.346Z" transform="translate(-165.213 -235.467)"/></g><g transform="translate(8.995 40.12)"><path class="i" d="M140.975,224.119a4.06,4.06,0,0,0,2.433,1.7c.433.083.616-.578.182-.661a3.338,3.338,0,0,1-2.023-1.385c-.264-.346-.86-.005-.592.346Z" transform="translate(-140.907 -223.629)"/></g><g transform="translate(13.654 42.656)"><path class="i" d="M147.938,228.017a8.7,8.7,0,0,1,1.3.8c.323.3.808-.182.484-.484a9.378,9.378,0,0,0-1.44-.91c-.372-.241-.717.353-.346.591Z" transform="translate(-147.779 -227.37)"/></g><g transform="translate(0 21.929)"><path class="i" d="M127.758,197.05a6.125,6.125,0,0,0,.171,3.1c.151.412.814.235.66-.182a5.406,5.406,0,0,1-.171-2.73c.067-.434-.594-.619-.66-.183Z" transform="translate(-127.641 -196.801)"/></g><g transform="translate(18.443 10.626)"><path class="i" d="M155.94,181.762a2,2,0,0,1-.414-1.3.343.343,0,0,0-.685,0,2.7,2.7,0,0,0,.614,1.785c.3.326.783-.159.485-.484Z" transform="translate(-154.841 -180.13)"/></g></g></g></g><g transform="translate(39.296)"><path class="m" d="M170.843,148.625s-.457-40.489-3.885-40.946-1.142,18.992,0,27.663c-8-24.921-14.4-36.8-17.825-35.2s16.225,43.522,16.225,43.522-17.368-25.313-20.567-24.135,18.739,30.66,19.424,30.66S170.843,148.625,170.843,148.625Z" transform="translate(-144.473 -99.994)"/><path class="c" d="M201.245,221.871s2.285-41.328-13.026-50.659c-12.719-7.751-24.338-.961-28.451,5.569s-7.542,18.165,11.655,45.769C196.445,222.55,201.245,221.871,201.245,221.871Z" transform="translate(-148.366 -121.81)"/><g transform="translate(8.721 49.39)"><g transform="translate(13.414 5.945)"><path class="d" d="M180.576,181.612a13.943,13.943,0,0,0-3.28.95c-.4.189-.051.78.346.591a13.215,13.215,0,0,1,3.118-.88c.433-.087.25-.747-.183-.661Z" transform="translate(-177.119 -181.605)"/></g><g transform="translate(6.556 7.317)"><path class="d" d="M182.805,183.634a64.825,64.825,0,0,0-15.621,4.836c-.4.18-.054.77.346.591a64.177,64.177,0,0,1,15.458-4.766c.435-.074.25-.734-.182-.661Z" transform="translate(-167.005 -183.629)"/></g><g transform="translate(17.313 17.367)"><path class="d" d="M188.69,198.451a24.975,24.975,0,0,0-5.575,1.155.343.343,0,0,0,.182.662,24.238,24.238,0,0,1,5.394-1.131.343.343,0,0,0,0-.686Z" transform="translate(-182.871 -198.451)"/></g><g transform="translate(24.409 25.59)"><path class="d" d="M204.856,210.582a50.893,50.893,0,0,0-11.289,2.983c-.41.153-.233.815.182.661a50.139,50.139,0,0,1,11.106-2.958c.433-.055.439-.741,0-.686Z" transform="translate(-193.335 -210.578)"/></g><g transform="translate(16.843 29.71)"><path class="d" d="M185.634,216.664a14.055,14.055,0,0,0-3.281,1.178c-.4.195-.049.787.346.592a13.4,13.4,0,0,1,3.117-1.108c.433-.093.25-.753-.182-.662Z" transform="translate(-182.177 -216.655)"/></g><g transform="translate(13.206 42.269)"><path class="d" d="M177.233,236.544c.756-.248,1.53-.439,2.286-.687.418-.137.239-.8-.182-.66-.757.247-1.53.439-2.286.684-.419.138-.239.8.182.663Z" transform="translate(-176.813 -235.178)"/></g><g transform="translate(24.841 39.533)"><path class="d" d="M197.292,231.143a7.275,7.275,0,0,0-3.143.733c-.4.192-.05.782.346.591a6.462,6.462,0,0,1,2.8-.639.343.343,0,0,0,0-.686Z" transform="translate(-193.973 -231.143)"/></g><g transform="translate(29.649 43.426)"><path class="d" d="M206.111,236.888l-4.8.686c-.436.062-.25.723.182.66q2.4-.341,4.8-.685c.436-.062.25-.722-.182-.661Z" transform="translate(-201.063 -236.884)"/></g><g transform="translate(15.256)"><path class="d" d="M182.6,172.849c-.842.213-1.673.47-2.513.686a.343.343,0,0,0,.181.661c.843-.214,1.672-.472,2.514-.686a.343.343,0,0,0-.182-.661Z" transform="translate(-179.837 -172.837)"/></g><g transform="translate(3.588 2.052)"><path class="d" d="M167.228,175.879c-1.237.371-2.478.732-3.694,1.157q-.484.53-.906,1.069c1.557-.622,3.174-1.084,4.781-1.565A.343.343,0,0,0,167.228,175.879Z" transform="translate(-162.628 -175.864)"/></g><g transform="translate(8.361 38.618)"><path class="d" d="M170.02,233.837a90.645,90.645,0,0,1,10.4-3.37.343.343,0,0,0-.182-.66,91.015,91.015,0,0,0-10.568,3.441C169.782,233.441,169.9,233.641,170.02,233.837Z" transform="translate(-169.667 -229.792)"/></g><g transform="translate(31.024 36.911)"><path class="d" d="M216.129,227.275c-4.247.827-8.58,1.164-12.792,2.178-.43.1-.247.765.182.661,4.164-1,8.446-1.34,12.647-2.147C216.153,227.738,216.142,227.508,216.129,227.275Z" transform="translate(-203.091 -227.275)"/></g><g transform="translate(25.771 12.425)"><path class="d" d="M209.4,191.162c-4.731.568-9.248,2.04-13.815,3.355a.343.343,0,0,0,.182.662c4.579-1.32,9.112-2.82,13.864-3.36Q209.52,191.488,209.4,191.162Z" transform="translate(-195.345 -191.162)"/></g><g transform="translate(19.581 1.593)"><path class="d" d="M199.875,175.187a34.7,34.7,0,0,0-13.48,3.023c-.4.178-.054.768.346.592a33.744,33.744,0,0,1,13.851-2.927C200.357,175.637,200.12,175.405,199.875,175.187Z" transform="translate(-186.215 -175.187)"/></g><g transform="translate(3.584 19.236)"><path class="d" d="M200.819,201.207c-13.29.839-25.854,5.349-38.017,10.519-.405.172-.056.762.345.591,12.093-5.138,24.6-9.628,37.821-10.435Q200.894,201.544,200.819,201.207Z" transform="translate(-162.622 -201.207)"/></g><g transform="translate(0 18.506)"><path class="d" d="M165.524,200.146c-2.735.822-5.872,1.65-8.188,3.444.046.246.1.5.157.753,2.255-1.9,5.455-2.709,8.213-3.536A.343.343,0,0,0,165.524,200.146Z" transform="translate(-157.336 -200.13)"/></g><g transform="translate(40.389 44.011)"><path class="d" d="M220.789,237.809a19.925,19.925,0,0,0-3.636.043c-.437.062-.25.723.182.66a18.624,18.624,0,0,1,3.457-.02C220.792,238.269,220.791,238.043,220.789,237.809Z" transform="translate(-216.904 -237.747)"/></g></g><g transform="translate(6.372 5.066)"><g transform="translate(18.055 31.994)"><path class="v" d="M181.185,158.64v-3.657a.343.343,0,0,0-.686,0v3.657a.343.343,0,0,0,.686,0Z" transform="translate(-180.499 -154.652)"/></g><g transform="translate(18.055 37.936)"><path class="v" d="M181.185,164.661v-.913a.343.343,0,0,0-.686,0v.913a.343.343,0,0,0,.686,0Z" transform="translate(-180.499 -163.415)"/></g><path class="v" d="M153.886,107.89c.42,1.459.89,2.9,1.371,4.341.139.418.8.238.661-.182-.481-1.441-.951-2.884-1.372-4.342a.343.343,0,0,0-.66.182Z" transform="translate(-153.87 -107.465)"/><g transform="translate(2.737 6.404)"><path class="v" d="M157.927,117.328a13.381,13.381,0,0,0,.72,1.682c.2.395.789.048.592-.346a12.239,12.239,0,0,1-.652-1.518c-.14-.416-.8-.237-.66.182Z" transform="translate(-157.907 -116.91)"/></g><g transform="translate(5.488 29.238)"><path class="v" d="M163.745,152.359a10.827,10.827,0,0,0-1.2-1.669c-.309-.317-.793.168-.485.485a9.818,9.818,0,0,1,1.089,1.53c.243.367.837.024.592-.346Z" transform="translate(-161.965 -150.587)"/></g><g transform="translate(3.658 27.183)"><path class="v" d="M160.409,148.586a1.566,1.566,0,0,0-.557-.928.342.342,0,0,0-.485.483c.108.108.338.279.357.444.052.433.738.438.685,0Z" transform="translate(-159.266 -147.557)"/></g></g></g></g><g transform="translate(72.023 0)"><path class="w" d="M199.758,66.97c-5.719,2.514-8.025,5.926-6.615,12.553s8.506,7.312,13.9,5.027c4.525-1.914,6.019-8,4.417-11.883S204.992,64.668,199.758,66.97Z" transform="translate(-192.74 -66.305)"/><g transform="translate(2.313 2.331)"><path class="x" d="M203.9,75.93c.09-2.023.217-4.043.408-6.06a5.9,5.9,0,0,0-1.363.412,14.056,14.056,0,0,0-2.279,1.237A34.7,34.7,0,0,0,203.9,75.93Z" transform="translate(-197.605 -69.784)"/><path class="x" d="M202.212,78.073l.184-.124a44.593,44.593,0,0,1-3.729-5.045,6.184,6.184,0,0,0-2.476,4.63A47.336,47.336,0,0,0,202.212,78.073Z" transform="translate(-196.165 -70.761)"/><path class="x" d="M206.744,78.529v0c.529.027,1.055.057,1.574.1a38.593,38.593,0,0,1,5.922.667,7.031,7.031,0,0,0-.433-3.3,8.11,8.11,0,0,0-1.086-1.842A54.48,54.48,0,0,1,206.744,78.529Z" transform="translate(-199.562 -71.163)"/><path class="x" d="M206.411,76.446a50.144,50.144,0,0,0,5.765-4.237,6.869,6.869,0,0,0-5.325-2.459C206.641,71.979,206.5,74.211,206.411,76.446Z" transform="translate(-199.455 -69.743)"/><path class="x" d="M198.24,83.579a31.373,31.373,0,0,1,3.088-2.388,46.128,46.128,0,0,1-5.176-.448,12.854,12.854,0,0,0,.307,2.59,6.562,6.562,0,0,0,.519,1.511C197.389,84.412,197.8,83.975,198.24,83.579Z" transform="translate(-196.152 -73.285)"/><path class="x" d="M207.578,81.644l-.176-.013c1.216,1.867,2.374,3.77,3.507,5.688a6.67,6.67,0,0,0,3.451-4.931A46.477,46.477,0,0,0,207.578,81.644Z" transform="translate(-199.774 -73.571)"/><path class="x" d="M206.242,81.744c-.076,2.21-.124,4.421-.178,6.633a11.136,11.136,0,0,0,3.788-.753C208.7,85.646,207.552,83.624,206.242,81.744Z" transform="translate(-199.343 -73.607)"/><path class="x" d="M202.932,81.569l-.277.188a25.994,25.994,0,0,0-4.032,3.229c-.241.25-.481.5-.724.753a6,6,0,0,0,4.851,2.568C202.8,86.061,202.853,83.814,202.932,81.569Z" transform="translate(-196.714 -73.551)"/></g><g transform="translate(0.67 1.897)"><path class="x" d="M194.084,77.165a10.941,10.941,0,0,0-.355,2.92.343.343,0,0,0,.686,0,10.2,10.2,0,0,1,.33-2.737A.343.343,0,0,0,194.084,77.165Z" transform="translate(-193.729 -71.621)"/><path class="x" d="M193.982,83.071v.771a.343.343,0,0,0,.685,0v-.771A.343.343,0,0,0,193.982,83.071Z" transform="translate(-193.81 -73.493)"/><path class="x" d="M216.1,87.879c-.555.54-1.21.959-1.8,1.457-.338.285.149.768.485.485.59-.5,1.246-.917,1.8-1.457C216.9,88.055,216.414,87.571,216.1,87.879Z" transform="translate(-200.315 -75.116)"/><path class="x" d="M214.887,70.3a17.056,17.056,0,0,0-1.371-1.113c-.342-.271-.832.211-.485.485a17.02,17.02,0,0,1,1.372,1.114C214.719,71.09,215.2,70.606,214.887,70.3Z" transform="translate(-199.905 -69.103)"/></g></g><g transform="translate(100.588 36.308)"><path class="c" d="M238.86,122.058c-4.452,4.382-5.4,8.391-1.723,14.083s10.55,3.813,14.784-.24c3.548-3.4,2.783-9.616-.094-12.678S242.935,118.048,238.86,122.058Z" transform="translate(-234.871 -119.854)"/><g transform="translate(2.321 2.331)"><g transform="translate(1.34 0.802)"><path class="d" d="M244.86,130.284c-.634-1.923-1.232-3.857-1.771-5.809a5.881,5.881,0,0,0-1.127.869,14.2,14.2,0,0,0-1.692,1.966A34.859,34.859,0,0,0,244.86,130.284Z" transform="translate(-240.27 -124.475)"/></g><g transform="translate(0 4.216)"><path class="d" d="M244.408,133.083c.042-.061.085-.121.128-.182a44.36,44.36,0,0,1-5.279-3.391,6.183,6.183,0,0,0-.669,5.208A47.234,47.234,0,0,0,244.408,133.083Z" transform="translate(-238.294 -129.51)"/></g><g transform="translate(7.193 1.222)"><path class="d" d="M248.9,131.309h0c.5-.161,1.007-.321,1.507-.469a38.737,38.737,0,0,1,5.772-1.481,7.061,7.061,0,0,0-1.576-2.929,8.183,8.183,0,0,0-1.669-1.335A54.428,54.428,0,0,1,248.9,131.309Z" transform="translate(-248.903 -125.095)"/></g><g transform="translate(4.78)"><path class="d" d="M247.312,130.19a50.154,50.154,0,0,0,3.882-6.01,6.873,6.873,0,0,0-5.85-.406C245.938,125.932,246.6,128.067,247.312,130.19Z" transform="translate(-245.344 -123.292)"/></g><g transform="translate(0.514 8.654)"><path class="d" d="M242.01,139.385a31.335,31.335,0,0,1,2.037-3.329,46.025,46.025,0,0,1-5,1.42,12.8,12.8,0,0,0,1.208,2.313,6.6,6.6,0,0,0,1.021,1.227C241.511,140.466,241.736,139.913,242.01,139.385Z" transform="translate(-239.052 -136.056)"/></g><g transform="translate(7.858 6.163)"><path class="d" d="M250.052,134.1l-.169.05c1.8,1.314,3.558,2.681,5.3,4.071a6.669,6.669,0,0,0,1.472-5.835A46.609,46.609,0,0,0,250.052,134.1Z" transform="translate(-249.883 -132.381)"/></g><g transform="translate(7.204 8.258)"><path class="d" d="M248.919,135.471c.713,2.093,1.453,4.178,2.19,6.263a11.14,11.14,0,0,0,3.273-2.05C252.6,138.244,250.811,136.763,248.919,135.471Z" transform="translate(-248.919 -135.471)"/></g><g transform="translate(3.301 8.39)"><path class="d" d="M246.386,135.666l-.191.274a25.867,25.867,0,0,0-2.622,4.451c-.137.319-.271.64-.41.96a6,6,0,0,0,5.447.678C247.862,139.91,247.11,137.791,246.386,135.666Z" transform="translate(-243.163 -135.666)"/></g></g><g transform="translate(0.795 0.833)"><path class="d" d="M236.045,135.415a10.926,10.926,0,0,0,.7,2.855.343.343,0,0,0,.641-.243,10.189,10.189,0,0,1-.664-2.675A.343.343,0,0,0,236.045,135.415Z" transform="translate(-236.044 -125.579)"/><path class="d" d="M237.894,141.026q.136.362.273.722a.343.343,0,0,0,.641-.243c-.092-.241-.183-.48-.274-.721A.343.343,0,0,0,237.894,141.026Z" transform="translate(-236.631 -127.356)"/><path class="d" d="M260.523,137.363c-.325.7-.791,1.327-1.165,2-.215.387.412.664.626.281.374-.675.839-1.3,1.164-2A.343.343,0,0,0,260.523,137.363Z" transform="translate(-243.536 -126.261)"/><path class="d" d="M252.9,121.654a17.524,17.524,0,0,0-1.677-.554c-.417-.13-.7.493-.281.626a17.034,17.034,0,0,1,1.677.554A.343.343,0,0,0,252.9,121.654Z" transform="translate(-240.774 -121.082)"/></g></g><g transform="translate(153.352 9.715)"><path class="w" d="M319.708,81.3c-5.718,2.515-8.024,5.927-6.615,12.553S321.6,101.162,327,98.878c4.522-1.915,6.018-8,4.417-11.884S324.941,79,319.708,81.3Z" transform="translate(-312.69 -80.633)"/><g transform="translate(2.314 2.331)"><path class="x" d="M323.848,90.257c.09-2.022.219-4.042.408-6.06a5.961,5.961,0,0,0-1.361.413,14.079,14.079,0,0,0-2.281,1.237A34.717,34.717,0,0,0,323.848,90.257Z" transform="translate(-317.555 -84.111)"/><path class="x" d="M322.16,92.4l.185-.124a44.729,44.729,0,0,1-3.73-5.045,6.191,6.191,0,0,0-2.475,4.63A47.356,47.356,0,0,0,322.16,92.4Z" transform="translate(-316.115 -85.088)"/><path class="x" d="M326.694,92.856v0c.529.028,1.054.057,1.574.1a38.435,38.435,0,0,1,5.921.667,7.024,7.024,0,0,0-.432-3.3,8.1,8.1,0,0,0-1.088-1.842A54.359,54.359,0,0,1,326.694,92.856Z" transform="translate(-319.513 -85.49)"/><path class="x" d="M326.361,90.774a50.22,50.22,0,0,0,5.765-4.237,6.868,6.868,0,0,0-5.325-2.459C326.59,86.306,326.454,88.539,326.361,90.774Z" transform="translate(-319.406 -84.07)"/><path class="x" d="M318.189,97.906a31.55,31.55,0,0,1,3.088-2.387,46.064,46.064,0,0,1-5.175-.448,12.805,12.805,0,0,0,.306,2.59,6.671,6.671,0,0,0,.518,1.511C317.339,98.74,317.746,98.3,318.189,97.906Z" transform="translate(-316.103 -87.612)"/><path class="x" d="M327.529,95.972l-.177-.013c1.215,1.867,2.372,3.77,3.507,5.688a6.669,6.669,0,0,0,3.45-4.931A46.556,46.556,0,0,0,327.529,95.972Z" transform="translate(-319.725 -87.898)"/><path class="x" d="M326.193,96.072c-.077,2.21-.126,4.421-.18,6.633a11.126,11.126,0,0,0,3.788-.753C328.651,99.974,327.5,97.952,326.193,96.072Z" transform="translate(-319.294 -87.934)"/><path class="x" d="M322.882,95.9c-.092.063-.185.125-.276.188a25.9,25.9,0,0,0-4.033,3.229c-.241.25-.481.5-.725.752a6.007,6.007,0,0,0,4.851,2.569C322.754,100.39,322.8,98.142,322.882,95.9Z" transform="translate(-316.665 -87.878)"/></g><g transform="translate(0.67 1.897)"><path class="x" d="M314.034,91.493a10.935,10.935,0,0,0-.356,2.919.343.343,0,0,0,.686,0,10.248,10.248,0,0,1,.329-2.737A.342.342,0,0,0,314.034,91.493Z" transform="translate(-313.678 -85.949)"/><path class="x" d="M313.932,97.4v.772a.343.343,0,0,0,.685,0V97.4A.343.343,0,0,0,313.932,97.4Z" transform="translate(-313.76 -87.821)"/><path class="x" d="M336.047,102.207c-.554.539-1.21.959-1.8,1.456-.339.286.148.768.484.485.591-.5,1.245-.917,1.8-1.456C336.848,102.383,336.363,101.9,336.047,102.207Z" transform="translate(-320.264 -89.444)"/><path class="x" d="M334.837,84.625a17.009,17.009,0,0,0-1.371-1.114c-.343-.271-.832.21-.485.485a16.649,16.649,0,0,1,1.371,1.113C334.67,85.418,335.154,84.934,334.837,84.625Z" transform="translate(-319.855 -83.431)"/></g></g><g transform="translate(203.03 49.897)"><path class="c" d="M391.212,142.8c-5.864,5.772-7.106,11.051-2.269,18.55s13.894,5.022,19.47-.318c4.672-4.474,3.666-12.663-.122-16.7S396.577,137.519,391.212,142.8Z" transform="translate(-385.957 -139.897)"/><g transform="translate(3.057 3.071)"><g transform="translate(1.766 1.055)"><path class="d" d="M399.114,153.634c-.837-2.531-1.623-5.079-2.333-7.651a7.886,7.886,0,0,0-1.484,1.145,18.628,18.628,0,0,0-2.227,2.59A45.752,45.752,0,0,0,399.114,153.634Z" transform="translate(-393.07 -145.983)"/></g><g transform="translate(0 5.554)"><path class="d" d="M398.517,157.322l.169-.24a58.672,58.672,0,0,1-6.951-4.464,8.14,8.14,0,0,0-.881,6.858A62.34,62.34,0,0,0,398.517,157.322Z" transform="translate(-390.466 -152.618)"/></g><g transform="translate(9.474 1.609)"><path class="d" d="M404.438,154.983l0,0c.662-.213,1.325-.423,1.983-.618a50.947,50.947,0,0,1,7.6-1.952,9.28,9.28,0,0,0-2.078-3.857,10.644,10.644,0,0,0-2.2-1.759A71.4,71.4,0,0,1,404.438,154.983Z" transform="translate(-404.438 -146.799)"/></g><g transform="translate(6.295)"><path class="d" d="M402.341,153.51a66.291,66.291,0,0,0,5.115-7.915,9.054,9.054,0,0,0-7.706-.534C400.533,147.9,401.41,150.715,402.341,153.51Z" transform="translate(-399.75 -144.427)"/></g><g transform="translate(0.676 11.396)"><path class="d" d="M395.358,165.62a42,42,0,0,1,2.685-4.386,60.477,60.477,0,0,1-6.58,1.873,16.919,16.919,0,0,0,1.59,3.044,8.671,8.671,0,0,0,1.345,1.617C394.7,167.045,395,166.316,395.358,165.62Z" transform="translate(-391.463 -161.234)"/></g><g transform="translate(10.348 8.115)"><path class="d" d="M405.949,158.654c-.075.021-.148.045-.222.066,2.37,1.731,4.687,3.531,6.98,5.362a8.782,8.782,0,0,0,1.938-7.686A61.212,61.212,0,0,0,405.949,158.654Z" transform="translate(-405.727 -156.395)"/></g><g transform="translate(9.487 10.875)"><path class="d" d="M404.458,160.466c.94,2.756,1.915,5.5,2.882,8.25a14.668,14.668,0,0,0,4.313-2.7C409.312,164.119,406.95,162.167,404.458,160.466Z" transform="translate(-404.458 -160.466)"/></g><g transform="translate(4.348 11.049)"><path class="d" d="M401.123,160.722c-.083.12-.168.239-.253.361a34.356,34.356,0,0,0-3.453,5.862c-.179.42-.357.844-.538,1.266a7.9,7.9,0,0,0,7.173.892C403.067,166.312,402.075,163.523,401.123,160.722Z" transform="translate(-396.879 -160.722)"/></g></g><g transform="translate(1.046 1.097)"><path class="d" d="M387.5,160.394a14.317,14.317,0,0,0,.931,3.758.451.451,0,0,0,.843-.32,13.444,13.444,0,0,1-.873-3.523A.453.453,0,0,0,387.5,160.394Z" transform="translate(-387.499 -147.439)"/><path class="d" d="M389.94,167.784q.178.475.361.95a.452.452,0,0,0,.845-.321q-.183-.474-.362-.949A.451.451,0,0,0,389.94,167.784Z" transform="translate(-388.274 -149.779)"/><path class="d" d="M419.741,162.957c-.43.923-1.04,1.746-1.534,2.636-.283.51.543.876.823.37.494-.89,1.1-1.712,1.533-2.635A.451.451,0,0,0,419.741,162.957Z" transform="translate(-397.367 -148.336)"/><path class="d" d="M409.7,142.268a22.75,22.75,0,0,0-2.208-.73c-.549-.172-.924.649-.37.823a22.648,22.648,0,0,1,2.21.73A.452.452,0,0,0,409.7,142.268Z" transform="translate(-393.73 -141.515)"/></g></g><g transform="translate(24.378 120.792)"><g class="y"><path class="z" d="M296.389,244.456H122.781s-10.225,85.238,86.8,85.238S296.389,244.456,296.389,244.456Z" transform="translate(-122.471 -244.456)"/><path class="w" d="M142.041,300.524c4.008,2.484,11.6,5.076,14.818,8.839a.589.589,0,0,0,.227.281,6.6,6.6,0,0,1,.491.735.589.589,0,0,0,.226.23c.75,3.322,1.53,6.643,2.291,9.964a.563.563,0,0,0,.052.223q.116.508.233,1.018a22.816,22.816,0,0,0-8.09-6.335c-1.994-.97-7.38-2.41-7.962,1.3-.436,2.759,7.561,3.055,15.833,8.063a.455.455,0,0,0,.482-.008.6.6,0,0,0,.5.416c.734,3.345,1.42,6.7,2.01,10.077a28.932,28.932,0,0,0-5.279-4.935c-1.633-1.239-4.557-3.545-6.644-2-2.16,1.6-.435,4.672,1.317,5.667,3.265,1.858,7.429,1.614,10.661,3.358a.57.57,0,0,0,.338.265c.29,1.823.551,3.653.768,5.491a.57.57,0,0,0,1.131-.142c-.232-1.963-.514-3.921-.834-5.875,2.522-2.56,16.361-17.394,12.462-19.205-3.364-1.561-12.063,13.869-12.771,17.388-.866-4.92-1.949-9.815-3.082-14.7,7.7-15.211,22.659-14.111,22.245-18.277-.573-5.76-7.383-4.854-10.75-2.446a32.457,32.457,0,0,0-7.153,7.161c-2.52,3.425-3.305,7.424-4.863,11.312-1.61-6.9-3.246-13.8-4.405-20.759l.005-.007a.343.343,0,0,0,.03-.026c.018-.02.041-.028.057-.053,1.757-2.451,5.39-6.1,7.374-8.284,5.188-5.716,9.406-8.943,7.789-11.469-2.326-3.629-7.566,3.76-9.429,6.606A93.5,93.5,0,0,0,156,295.743c-.184-1.193-.906-7.221-1.02-8.7a.505.505,0,0,0,.023-.059c1.173-7.326,2.052-14.863,4.839-21.66,3.788-9.237.872-13.845-1.446-10.015a32.024,32.024,0,0,0-4,12.376,177.95,177.95,0,0,0-.326,18.164c-1-4.087-4.28-9.9-6.069-13.216-1.191-2.206-5.936-9.145-7.707-6.767-2.54,3.4,3.109,10.159,5.024,13.095,1.818,2.787,3.746,5.5,5.7,8.2a39.531,39.531,0,0,1,3.446,4.927.658.658,0,0,0,.053.081c.484,4.314,1.19,8.631,2.1,12.979.1.481.206.96.308,1.442-1.648-2.971-4.619-5.63-6.948-7.643-1.922-1.666-7.172-4.743-9.788-4.485C136.053,294.863,139.712,299.081,142.041,300.524Z" transform="translate(-127.571 -247.514)"/><path class="x" d="M323.44,310.491c-2.093-1.587-8.177-1.717-10.688-1.3-3.038.5-6.961,1.2-9.92,2.871.339-.359.679-.712,1.017-1.068,3.055-3.227,5.916-6.534,8.588-9.956a.7.7,0,0,0,.088-.043,39.644,39.644,0,0,1,5.516-2.392c3.074-1.271,6.136-2.575,9.147-4,3.166-1.5,11.519-4.295,11.137-8.524-.264-2.954-7.939.473-10.107,1.727-3.26,1.886-9.1,5.123-12.094,8.081a177.5,177.5,0,0,0,9.235-15.646,32.01,32.01,0,0,0,3.073-12.641c.031-4.474-4.868-2.077-6.479,7.775-1.185,7.25-4.384,14.132-7.22,20.987a.322.322,0,0,0-.012.063c-.873,1.2-4.645,5.957-5.427,6.879a93.729,93.729,0,0,0,.725-12.876c-.1-3.4-.691-12.441-4.572-10.568-2.7,1.3-.8,6.264.627,13.849.545,2.9,1.729,7.911,1.943,10.92a.476.476,0,0,0,.022.075c0,.014.007.027.01.039l0,.007c-4.63,5.32-9.637,10.339-14.624,15.377.709-4.129,2.134-7.947,1.783-12.182a32.519,32.519,0,0,0-2.345-9.847c-1.607-3.816-6.935-8.155-10.439-3.547-2.536,3.333,10.785,10.23,9.377,27.221-3.524,3.572-7.01,7.172-10.324,10.911,1.241-3.371,1.912-21.07-1.774-21.5-4.268-.5-.25,19.386.559,22.889q-1.943,2.243-3.786,4.567a.57.57,0,0,0,.888.715q1.724-2.181,3.531-4.275a.583.583,0,0,0,.428-.049c3.665.206,7.085,2.594,10.84,2.722,2.013.07,5.088-1.639,4.091-4.135-.968-2.415-4.667-1.981-6.706-1.782a28.959,28.959,0,0,0-7.083,1.437c2.269-2.564,4.611-5.064,6.989-7.531a.6.6,0,0,0,.65-.091.442.442,0,0,0,.407.259c9.667.066,16.636,4,17.711,1.425,1.444-3.461-3.9-5.055-6.108-5.273a22.8,22.8,0,0,0-10.211,1.158l.734-.746a.592.592,0,0,0,.161-.163c2.386-2.431,4.79-4.849,7.171-7.289a.6.6,0,0,0,.311-.075,6.386,6.386,0,0,1,.8-.37.591.591,0,0,0,.34-.119c4.712-1.521,12.539.246,17.253.233C321.415,314.678,326.742,313,323.44,310.491Z" transform="translate(-172.015 -251.211)"/><path class="x" d="M193.882,278.665c2.412-1.043,5.5-6.285,6.376-8.677,1.055-2.891,2.36-6.658,2.356-10.055.145.47.286.942.433,1.41,1.316,4.243,2.8,8.357,4.471,12.363a.6.6,0,0,0-.007.1,39.588,39.588,0,0,1-.618,5.982c-.4,3.3-.761,6.61-1,9.93-.245,3.5-1.9,12.148,1.974,13.887,2.7,1.214,3.477-7.153,3.446-9.659-.047-3.766-.009-10.44-1.119-14.5a177.7,177.7,0,0,0,9.115,15.717,31.994,31.994,0,0,0,9.514,8.869c3.885,2.22,4.195-3.224-3.6-9.457-5.74-4.586-10.173-10.746-14.757-16.577-.015-.02-.034-.026-.049-.04-.62-1.351-2.918-6.97-3.339-8.1a93.787,93.787,0,0,0,10.87,6.938c3.014,1.583,11.183,5.494,11.452,1.192.188-2.993-5.068-3.764-12.38-6.238-2.8-.947-7.743-2.367-10.472-3.655a.285.285,0,0,0-.075-.018.227.227,0,0,0-.038-.01s-.005,0-.009,0c-2.368-6.641-4.292-13.465-6.24-20.281,3.251,2.64,5.881,5.753,9.747,7.522a32.508,32.508,0,0,0,9.732,2.781c4.113.469,10.505-2.05,8.207-7.362-1.664-3.843-14.2,4.39-28.326-5.162-1.386-4.822-2.817-9.625-4.453-14.347,2.33,2.734,17.431,11.989,19.613,8.989,2.527-3.478-16.779-9.716-20.226-10.726-.669-1.862-1.374-3.71-2.127-5.539a.57.57,0,0,0-1.057.425c.7,1.713,1.364,3.437,2,5.171a.586.586,0,0,0-.167.4c-1.976,3.093-5.733,4.9-7.684,8.114-1.047,1.722-1.065,5.24,1.6,5.592,2.577.341,4.012-3.1,4.836-4.973a28.938,28.938,0,0,0,2.216-6.877c1.124,3.233,2.155,6.5,3.141,9.781a.6.6,0,0,0-.237.61.445.445,0,0,0-.425.228c-4.8,8.4-11.641,12.54-9.919,14.742,2.31,2.954,6.317-.923,7.588-2.74a22.786,22.786,0,0,0,3.992-9.469c.1.335.195.671.292,1a.572.572,0,0,0,.062.22c.951,3.274,1.882,6.554,2.841,9.823a.6.6,0,0,0-.086.31,6.3,6.3,0,0,1-.071.882.58.58,0,0,0-.061.355c-.984,4.852-6.359,10.808-8.655,14.926C191.225,274.851,190.078,280.314,193.882,278.665Z" transform="translate(-142.534 -237.738)"/><path class="w" d="M263.766,239.454c2.052,1.643,8.133,1.923,10.652,1.573,3.048-.418,6.99-1.028,9.99-2.621-.349.348-.7.693-1.044,1.041-3.137,3.15-6.077,6.382-8.835,9.737a.924.924,0,0,0-.089.04,39.722,39.722,0,0,1-5.575,2.252c-3.1,1.194-6.2,2.42-9.244,3.766-3.2,1.418-11.624,4-11.35,8.241.191,2.959,7.951-.273,10.152-1.474,3.306-1.8,9.223-4.892,12.291-7.772a177.816,177.816,0,0,0-9.625,15.406A32.031,32.031,0,0,0,257.7,282.2c-.142,4.473,4.815,2.2,6.672-7.61,1.368-7.217,4.737-14.016,7.747-20.8.009-.021.005-.041.013-.062.9-1.18,4.794-5.841,5.6-6.741a93.9,93.9,0,0,0-1.049,12.853c.013,3.4.379,12.456,4.307,10.68,2.734-1.236.955-6.241-.279-13.862-.472-2.913-1.53-7.95-1.668-10.963a.4.4,0,0,0-.02-.076.164.164,0,0,0-.01-.038v-.008c4.763-5.2,9.9-10.093,15.006-15-.812,4.11-2.333,7.888-2.086,12.133a32.478,32.478,0,0,0,2.094,9.9c1.511,3.855,6.727,8.325,10.346,3.808,2.619-3.267-10.524-10.5-8.689-27.448,3.613-3.481,7.188-6.994,10.6-10.649-1.326,3.339-2.442,21.015,1.232,21.54,4.255.606.737-19.373.016-22.9,1.333-1.463,2.636-2.949,3.9-4.471a.57.57,0,0,0-.871-.736q-1.776,2.136-3.636,4.185a.575.575,0,0,0-.429.039c-3.658-.3-7.018-2.772-10.768-3-2.013-.12-5.129,1.511-4.192,4.034.9,2.437,4.613,2.1,6.657,1.948a28.973,28.973,0,0,0,7.116-1.259c-2.332,2.507-4.738,4.947-7.176,7.352a.6.6,0,0,0-.651.075.445.445,0,0,0-.4-.27c-9.664-.309-16.53-4.419-17.67-1.868-1.531,3.423,3.771,5.151,5.972,5.424a22.791,22.791,0,0,0,10.236-.9l-.749.726a.581.581,0,0,0-.165.16c-2.449,2.37-4.912,4.729-7.353,7.106a.59.59,0,0,0-.314.068,6.592,6.592,0,0,1-.811.351.573.573,0,0,0-.343.111c-4.749,1.4-12.529-.563-17.242-.666C265.9,235.32,260.529,236.861,263.766,239.454Z" transform="translate(-162.972 -233.864)"/><path class="w" d="M187.227,369.5c.742,4.656,3.745,12.1,3,16.992a.576.576,0,0,0-.065.356,6.261,6.261,0,0,1-.237.85.6.6,0,0,0-.024.321c-2.025,2.74-4.026,5.5-6.041,8.25a.556.556,0,0,0-.135.184l-.618.841a22.808,22.808,0,0,0-.5-10.263c-.571-2.142-3-7.159-6.186-5.176-2.372,1.474,2.633,7.717,4.253,17.25a.449.449,0,0,0,.322.36.6.6,0,0,0,.014.654c-2.051,2.743-4.143,5.459-6.309,8.109a28.963,28.963,0,0,0,.281-7.22c-.132-2.046-.3-5.766-2.836-6.332-2.627-.583-3.819,2.726-3.426,4.7.731,3.685,3.637,6.677,4.43,10.26a.58.58,0,0,0,.022.43q-1.785,2.12-3.652,4.171a.57.57,0,0,0,.848.762q2-2.187,3.9-4.471c3.587.234,23.859,1,22.68-3.13-1.018-3.567-18.38-.058-21.507,1.708,3.157-3.872,6.152-7.892,9.109-11.945,16.542-4.122,25.493,7.916,28.374,4.878,3.983-4.2-1.156-8.76-5.18-9.733a32.487,32.487,0,0,0-10.095-.73c-4.24.334-7.778,2.354-11.738,3.718,4.17-5.732,8.32-11.481,12.824-16.907h.009a.173.173,0,0,0,.039,0,.4.4,0,0,0,.077.009c3-.273,8.137.092,11.087.162,7.718.187,12.919,1.267,13.772-1.608,1.225-4.131-7.792-3.265-11.165-2.814a93.724,93.724,0,0,0-12.592,2.787c.784-.92,4.871-5.408,5.917-6.463a.59.59,0,0,0,.06-.022c6.308-3.9,12.587-8.167,19.552-10.5,9.466-3.174,11.045-8.393,6.633-7.643a32,32,0,0,0-11.982,5.064A177.519,177.519,0,0,0,206.193,369c2.436-3.432,4.692-9.713,6.029-13.235.89-2.342,3.038-10.469.08-10.256-4.234.3-5.652,9-6.621,12.364-.919,3.2-1.714,6.433-2.476,9.671a39.59,39.59,0,0,1-1.473,5.83.5.5,0,0,0-.027.094c-2.947,3.187-5.752,6.541-8.446,10.076-.3.391-.591.783-.89,1.177,1.17-3.19,1.238-7.178,1.239-10.255,0-2.544-1.1-8.53-3.007-10.339C187.6,361.269,186.8,366.8,187.227,369.5Z" transform="translate(-137.34 -276.989)"/></g></g></g><g transform="translate(67.912 37.901)"><path class="c" d="M371.161,111.571l-1.721,2.767-2.42,1.6,2.57,1.788,1.571,2.383,1.728-2.616,2.465-1.555-2.379-1.565Z" transform="translate(-164.215 -61.62)"/><path class="c" d="M363.14,125.993l-1.012,1.625-1.424.942,1.512,1.05.924,1.4,1.014-1.538,1.448-.913-1.4-.921Z" transform="translate(-162.181 -66.264)"/><path class="c" d="M72.1,200.522l1.72,2.766,2.421,1.6-2.571,1.788L72.1,209.06l-1.729-2.616-2.464-1.555,2.378-1.566Z" transform="translate(-67.912 -90.26)"/><path class="c" d="M81.757,216.965l1.012,1.627,1.423.941-1.511,1.051-.923,1.4-1.015-1.537-1.448-.913,1.4-.921Z" transform="translate(-71.577 -95.554)"/><path class="c" d="M255.791,37.9l1.722,2.766,2.421,1.6-2.572,1.788-1.571,2.383-1.728-2.616L251.6,42.269l2.378-1.565Z" transform="translate(-127.053 -37.901)"/><path class="c" d="M120.312,105.812l1.574,2.531,2.214,1.464-2.351,1.635-1.437,2.18-1.58-2.392-2.253-1.422,2.174-1.432Z" transform="translate(-83.549 -59.766)"/><path class="c" d="M211.15,149.135l1.012,1.626,1.423.942-1.511,1.051-.924,1.4-1.015-1.537-1.449-.914,1.4-.921Z" transform="translate(-113.237 -73.715)"/><path class="c" d="M396.379,253.839l1.01,1.626,1.424.941-1.51,1.052-.924,1.4-1.016-1.538-1.449-.914,1.4-.919Z" transform="translate(-172.873 -107.426)"/><path class="c" d="M426.262,215.506l-1.721,2.766-2.421,1.6,2.572,1.787,1.571,2.384,1.728-2.617,2.464-1.554-2.378-1.565Z" transform="translate(-181.955 -95.084)"/><path class="g" d="M141.921,250.332l1.012,1.627,1.422.941-1.51,1.051-.924,1.4-1.016-1.538-1.448-.914,1.4-.92Z" transform="translate(-90.947 -106.297)"/><path class="c" d="M102.759,243.3l1.012,1.625,1.423.942-1.512,1.05-.923,1.4-1.015-1.537-1.448-.914,1.4-.921Z" transform="translate(-78.338 -104.033)"/><path class="g" d="M244.414,237.581l1.668,2.68,2.344,1.552-2.49,1.731-1.522,2.31-1.674-2.534-2.387-1.507,2.3-1.518Z" transform="translate(-123.432 -102.191)"/><path class="g" d="M254.886,250.139l1.012,1.626,1.422.941-1.51,1.05-.924,1.4-1.016-1.537-1.448-.914,1.4-.92Z" transform="translate(-127.318 -106.235)"/><path class="g" d="M208.087,299.329l1.012,1.626,1.422.941-1.511,1.051-.924,1.4-1.016-1.538-1.447-.914,1.4-.92Z" transform="translate(-112.25 -122.072)"/><path class="g" d="M272.627,296.211l1.012,1.626,1.423.941-1.51,1.051-.924,1.4-1.015-1.537-1.447-.914,1.4-.92Z" transform="translate(-133.03 -121.068)"/><path class="g" d="M361.751,240.755l1.013,1.626,1.422.941-1.511,1.05-.924,1.4-1.016-1.537-1.447-.914,1.4-.92Z" transform="translate(-161.725 -103.213)"/></g><g transform="translate(97.192 63.209)"><path class="aa" d="M295.186,139.981a1.889,1.889,0,1,1-1.888-1.89A1.889,1.889,0,0,1,295.186,139.981Z" transform="translate(-169.151 -95.466)"/><g transform="translate(53.468 7.687)"><path class="aa" d="M193.732,88.452a1.89,1.89,0,1,1-1.889-1.889A1.89,1.89,0,0,1,193.732,88.452Z" transform="translate(-189.953 -86.563)"/></g><g transform="translate(56.231 51.965)"><path class="aa" d="M197.808,153.754a1.89,1.89,0,1,1-1.89-1.888A1.89,1.89,0,0,1,197.808,153.754Z" transform="translate(-194.029 -151.866)"/></g><g transform="translate(167.354 5.452)"><path class="aa" d="M361.7,85.156a1.89,1.89,0,1,1-1.89-1.889A1.89,1.89,0,0,1,361.7,85.156Z" transform="translate(-357.918 -83.267)"/></g><g transform="translate(0 81.5)"><path class="ab" d="M114.875,197.317a1.889,1.889,0,1,1-1.89-1.89A1.89,1.89,0,0,1,114.875,197.317Z" transform="translate(-111.096 -195.427)"/></g><g transform="translate(111.726 0)"><path class="ac" d="M280.7,77.637a2.411,2.411,0,1,1-2.412-2.411A2.411,2.411,0,0,1,280.7,77.637Z" transform="translate(-275.875 -75.226)"/></g><g transform="translate(184.476 86.346)"><path class="ab" d="M386.95,204.463a1.889,1.889,0,1,1-1.889-1.89A1.889,1.889,0,0,1,386.95,204.463Z" transform="translate(-383.171 -202.573)"/></g><g transform="translate(108.57 91.393)"><path class="ab" d="M275,211.906a1.89,1.89,0,1,1-1.891-1.889A1.889,1.889,0,0,1,275,211.906Z" transform="translate(-271.22 -210.017)"/></g><path class="aa" d="M301.865,132.4a1.417,1.417,0,1,1-1.418-1.416A1.416,1.416,0,0,1,301.865,132.4Z" transform="translate(-171.604 -93.179)"/><path class="ab" d="M118.887,204.062a1.417,1.417,0,1,1-1.417-1.417A1.417,1.417,0,0,1,118.887,204.062Z" transform="translate(-112.692 -116.251)"/><g transform="translate(187.788 132.306)"><path class="aa" d="M391.835,272.248a1.889,1.889,0,1,1-1.889-1.89A1.889,1.889,0,0,1,391.835,272.248Z" transform="translate(-388.056 -270.358)"/></g><g transform="translate(5.302 120.889)"><path class="ac" d="M123.736,255.93a2.411,2.411,0,1,1-2.411-2.41A2.41,2.41,0,0,1,123.736,255.93Z" transform="translate(-118.915 -253.52)"/></g><path class="aa" d="M115.23,264.335a1.417,1.417,0,1,1-1.416-1.416A1.416,1.416,0,0,1,115.23,264.335Z" transform="translate(-111.515 -135.657)"/><path class="aa" d="M418.893,247.21a1.417,1.417,0,1,1-1.417-1.418A1.416,1.416,0,0,1,418.893,247.21Z" transform="translate(-209.284 -130.142)"/><g transform="translate(171.635 123.534)"><path class="aa" d="M368.011,259.31a1.89,1.89,0,1,1-1.889-1.889A1.889,1.889,0,0,1,368.011,259.31Z" transform="translate(-364.232 -257.421)"/></g></g></g></svg>