<svg xmlns="http://www.w3.org/2000/svg" xmlns:xlink="http://www.w3.org/1999/xlink" width="413.461" height="290.533" viewBox="0 0 413.461 290.533"><defs><style>.a{fill:url(#a);}.b{fill:url(#b);}.c{fill:url(#c);}</style><linearGradient id="a" x1="0.5" y1="0.111" x2="0.5" y2="1" gradientUnits="objectBoundingBox"><stop offset="0" stop-color="#d8ebe5"/><stop offset="1" stop-color="#fff"/></linearGradient><linearGradient id="b" x1="0.064" y1="0.095" x2="0.849" y2="0.947" gradientUnits="objectBoundingBox"><stop offset="0" stop-color="#fff"/><stop offset="1" stop-color="#eaf4f1"/></linearGradient><linearGradient id="c" x1="0.843" y1="0.168" x2="0.144" y2="0.847" gradientUnits="objectBoundingBox"><stop offset="0" stop-color="#fff"/><stop offset="1" stop-color="#e4f1ed"/></linearGradient></defs><g transform="translate(0 -450.659)"><path class="a" d="M4749.461,431.659c-90.55,15.349-172.377,136.929-267.344,145.763S4336,517.792,4336,517.792v204.4h413.461Z" transform="translate(-4336 19)"/><path class="b" d="M4348.218,545.349c-20.607-63.381,39.205,39.2,88.462,44.231S4368.825,608.73,4348.218,545.349Z" transform="matrix(0.951, -0.309, 0.309, 0.951, -4281.761, 1413.938)"/><path class="c" d="M4733.982,446.935c1.307-30.057-84.878,43.125-125.456,84.944S4732.675,476.992,4733.982,446.935Z" transform="translate(-4301.903 -222.634) rotate(3)"/></g></svg>