<svg xmlns="http://www.w3.org/2000/svg" width="85" height="92" viewBox="0 0 85 92"><defs><style>.a{fill:#4fa387;}.b{fill:#61c9a8;}.c{fill:#eaeaea;}.d{fill:#6fddb9;}.e{fill:#fff;}.f{fill:#ed3e60;}.g{fill:#66c6a3;}</style></defs><rect class="a" width="85" height="92" rx="9"/><rect class="b" width="79.267" height="85.506" rx="6" transform="translate(2.814 3.125)"/><path class="c" d="M382.582,235.824h0a36.382,36.382,0,0,0-24.955,0h0A4.19,4.19,0,0,1,352,231.888v-5.651a4.19,4.19,0,0,1,2.753-3.936l2.874-1.049a36.383,36.383,0,0,1,24.955,0l2.874,1.049a4.19,4.19,0,0,1,2.753,3.936v5.651A4.19,4.19,0,0,1,382.582,235.824Z" transform="translate(-327.534 -209.677)"/><path class="d" d="M190,612.431v18.581a7.309,7.309,0,0,0,2.141,5.168h0a7.309,7.309,0,0,0,5.168,2.141h40.113a3.589,3.589,0,0,0,3.027-5.516c-5.213-8.221-18.382-22.864-46.516-24.123A3.757,3.757,0,0,0,190,612.431Z" transform="translate(-185.351 -551.647)"/><path class="d" d="M729.689,184h3.428a5.012,5.012,0,0,1,3.544,1.468h0a5.012,5.012,0,0,1,1.468,3.544v2a.74.74,0,0,1-1.206.574l-7.7-6.268A.74.74,0,0,1,729.689,184Z" transform="translate(-658.371 -178.918)"/><path class="e" d="M358,235.2v-1.907a4.927,4.927,0,0,1,.738-2.593h0a4.916,4.916,0,0,1,2.449-2.016,50.591,50.591,0,0,1,11-2.794.721.721,0,0,1,.5,1.305l-12.79,8.99A1.2,1.2,0,0,1,358,235.2Z" transform="translate(-332.8 -215.676)"/><path class="f" d="M491.514,253.2l-.77,10.322,1.652-.014-.662-10.307A.11.11,0,0,0,491.514,253.2Z" transform="translate(-449.306 -239.562)"/><path class="a" d="M302.958,412.819a11.549,11.549,0,0,0-9.908-9.009c-3.435-.327-7.278,1.011-9.9,6.956-5.817,13.211,6.515,27.156,7.679,34.863s11.867,8.44,13.147,3.3-.522-9.221-.582-10.52C302.816,425.69,305.716,424.236,302.958,412.819Z" transform="translate(-265.749 -371.8)"/><path class="a" d="M531.807,412.819a11.549,11.549,0,0,1,9.908-9.009c3.435-.327,7.278,1.011,9.9,6.956,5.817,13.211-6.515,27.156-7.679,34.863s-11.867,8.44-13.147,3.3.522-9.221.582-10.52C531.949,425.69,529.05,424.236,531.807,412.819Z" transform="translate(-484.048 -371.8)"/><path class="g" d="M303.08,617.434s13.877,1.752,19.105,6.66l-.032,1.85s3.13,10.312-1.126,12.924-9.5-.519-10.67-3.48-.395-2.1-2.128-6.749S304.8,622.747,303.08,617.434Z" transform="translate(-284.599 -559.332)"/><path class="g" d="M530.862,723.254s6.171,5.822,7.941,9.012c0,0-3.408.951-5.467-.315S530.447,729.524,530.862,723.254Z" transform="translate(-484.426 -652.207)"/></svg>