<svg xmlns="http://www.w3.org/2000/svg" width="15.571" height="19.26" viewBox="0 0 15.571 19.26"><defs><style>.a{fill:#61c9a8;}</style></defs><g transform="translate(-32.624 0)"><g transform="translate(32.624 0)"><g transform="translate(0 0)"><path class="a" d="M164.815,6.035a.327.327,0,0,0,.383-.26c.007-.039.576-3.892,1.94-4.934A.327.327,0,0,0,167.2.382c-.11-.144-.663-.6-1.03-.259-1.443,1.335-1.582,5.362-1.614,5.529A.327.327,0,0,0,164.815,6.035Z" transform="translate(-157.091 0)"/><path class="a" d="M195.556,20.721a3.574,3.574,0,0,0,3.4.823c1.616-.46,2.6-1.977,2.453-2.487-.139-.485-1.783-1.283-3.4-.823S195.438,20.311,195.556,20.721Z" transform="translate(-186.335 -17.074)"/><path class="a" d="M44.8,101.123c-1.976-.3-4,.9-4.394.9s-2.418-1.2-4.394-.9c-2.931.447-3.651,2.7-3.315,4.7.369,2.189,1.424,3.838,1.9,5.838.57,2.4,3.23,2.961,4.043,2.961.606,0,1.184-.283,1.769-.283.709,0,1.314.283,1.8.283.8,0,3.446-.557,4.016-2.961.474-2,1.528-3.649,1.9-5.838C48.455,103.827,47.735,101.57,44.8,101.123ZM36.543,103a1.921,1.921,0,0,0-1.043.552,3.143,3.143,0,0,0-.515,3.036c.1.425-.554.606-.654.18a3.84,3.84,0,0,1,.633-3.639,2.718,2.718,0,0,1,1.4-.783C36.79,102.276,36.973,102.93,36.543,103Z" transform="translate(-32.624 -95.36)"/></g></g></g></svg>