<svg xmlns="http://www.w3.org/2000/svg" width="24.92" height="21.531" viewBox="0 0 24.92 21.531"><defs><style>.a{fill:#535353;}</style></defs><g transform="translate(0 0)"><path class="a" d="M12.91,243.029a3.152,3.152,0,0,1-1.978-.738l-3.655-3.219a1.609,1.609,0,0,0-2.079-.1L0,242.794v2.481a1.207,1.207,0,0,0,1.138,1.273c.034,0,.069,0,.1,0H19.649a1.412,1.412,0,0,0,1.475-1.274v-6.5l-6.605,3.822A3.051,3.051,0,0,1,12.91,243.029Z" transform="translate(0 -225.019)"/><circle class="a" cx="1.475" cy="1.475" r="1.475" transform="translate(11.167 8.555)"/><path class="a" d="M77.444,29.024a1.241,1.241,0,0,0-.905-.5L58.266,26.408a1.335,1.335,0,0,0-1.509,1.14l-.3,2.615H72.482A2.883,2.883,0,0,1,75.3,32.946V44.782c0-.067.3-.134.436-.268a1.14,1.14,0,0,0,.436-.905L77.745,30A1.308,1.308,0,0,0,77.444,29.024Z" transform="translate(-52.832 -26.403)"/><path class="a" d="M19.678,105.9H1.271A1.353,1.353,0,0,0,.03,107.341V116.9l4.426-3.219a2.951,2.951,0,0,1,3.722.168l3.688,3.219a1.71,1.71,0,0,0,1.978.168l7.309-4.258v-5.633A1.542,1.542,0,0,0,19.678,105.9Zm-7.007,7.745a2.816,2.816,0,1,1,2.816-2.816A2.816,2.816,0,0,1,12.67,113.644Z" transform="translate(-0.028 -100.797)"/></g></svg>