<svg xmlns="http://www.w3.org/2000/svg" width="30.456" height="15.273" viewBox="0 0 30.456 15.273"><defs><style>.a{fill:#61c9a8;}</style></defs><path class="a" d="M25.5,14.4l-.024-.016a.586.586,0,0,0-.908.533,22.686,22.686,0,0,1-.145,4.544.2.2,0,0,1-.4.013,26.125,26.125,0,0,0-2.352-6.63.587.587,0,0,0-.363-.3A21.632,21.632,0,0,0,16.76,11.8a.587.587,0,0,0-.6.723,22.5,22.5,0,0,1,.315,7.1.2.2,0,0,1-.392.035,39.908,39.908,0,0,0-2.779-7.4.587.587,0,0,0-.561-.288,13.472,13.472,0,0,0-4.33.96h0a.442.442,0,0,0-.372.555A21.39,21.39,0,0,1,8.066,19.5a.183.183,0,0,1-.193.152.21.21,0,0,1-.2-.172,24.934,24.934,0,0,0-1.511-4.829.726.726,0,0,0-1.033-.347C1.582,16.365,0,18.771,0,21.228c0,5.226,6.818,5.846,15.228,5.846s15.228-.62,15.228-5.846C30.458,18.975,29.052,16.759,25.5,14.4Z" transform="translate(0 -11.801)"/></svg>