<svg xmlns="http://www.w3.org/2000/svg" width="19.826" height="19.397" viewBox="0 0 19.826 19.397"><defs><style>.a{fill:#535353;}</style></defs><g transform="translate(0 -0.596)"><path class="a" d="M27.079,33.6A1.081,1.081,0,0,0,26,34.675h.72a.36.36,0,0,1,.72,0h.72A1.081,1.081,0,0,0,27.079,33.6Z" transform="translate(-16.644 -21.126)"/><path class="a" d="M35.079,34.6A1.081,1.081,0,0,0,34,35.675h.72a.36.36,0,0,1,.72,0h.72A1.081,1.081,0,0,0,35.079,34.6Z" transform="translate(-21.766 -21.766)"/><path class="a" d="M22.423,11.462l1.242-4.656a.352.352,0,0,0,.012-.093.72.72,0,0,0-.72-.72h-.72a.715.715,0,0,0-.36.1V.956a.36.36,0,0,0-.36-.36H10.366a.36.36,0,0,0-.36.36V18.588a.36.36,0,0,0,.36.36h5.51a6.747,6.747,0,0,0,10.355-5.714V13.2C26.232,12.122,24.01,11.657,22.423,11.462Zm-.185-4.749h.707l-1.325,4.967h0l-.214.824a.36.36,0,0,0,.258.439.375.375,0,0,0,.091.012.36.36,0,0,0,.348-.269l.136-.521c2.456.29,3.274.858,3.274,1.03,0,.354-2.055,1.185-6.04,1.185s-6.04-.831-6.04-1.185,2.055-1.185,6.04-1.185c.213,0,.417.008.624.014l-.067.268a.36.36,0,0,0,.261.437.354.354,0,0,0,.088.011.361.361,0,0,0,.349-.272l.176-.7h0l1.323-4.962A.367.367,0,0,0,22.238,6.713Zm-3.115-.638h1.316V7.392a1.922,1.922,0,0,1-1.922,1.922H17.2V8A1.922,1.922,0,0,1,19.123,6.076Zm-4.295-2.03.931-.931.931.931a1.922,1.922,0,0,1,0,2.718l-.931.931-.931-.931A1.921,1.921,0,0,1,14.828,4.046ZM11.443,7.392V6.076h1.316A1.922,1.922,0,0,1,14.682,8V9.314H13.365A1.922,1.922,0,0,1,11.443,7.392Zm8.029,11.882a6,6,0,0,1-3.329-1.005c-.046-.03-.09-.063-.134-.094-.1-.072-.2-.148-.3-.226-.036-.028-.072-.056-.107-.086q-.192-.161-.37-.337l-.065-.067c-.117-.119-.23-.242-.336-.37l-.019-.023q-.173-.21-.326-.435l-.036-.055a6.052,6.052,0,0,1-.517-.951l-.036-.083c-.068-.162-.129-.328-.182-.5-.007-.021-.012-.043-.019-.064-.047-.154-.087-.311-.121-.469-.007-.032-.015-.063-.021-.095-.017-.082-.025-.167-.039-.25,1.382.718,4.237.934,5.96.934s4.578-.217,5.96-.934A6.043,6.043,0,0,1,19.472,19.273Z" transform="translate(-6.406)"/><path class="a" d="M2.87.6H.36A.36.36,0,0,0,0,.956V17.508a.36.36,0,0,0,.218.331l2.51,1.079a.36.36,0,0,0,.5-.331V.956A.36.36,0,0,0,2.87.6Z" transform="translate(0 0)"/></g></svg>