<svg xmlns="http://www.w3.org/2000/svg" width="21.53" height="17.261" viewBox="0 0 21.53 17.261"><defs><style>.a{fill:#fff;}</style></defs><g transform="translate(0 0)"><path class="a" d="M15.655,50.758H1.212A1.214,1.214,0,0,0,0,51.97v8.665a1.214,1.214,0,0,0,1.212,1.212h.937v3.226a.508.508,0,0,0,.867.359L6.6,61.848H7.32a.508.508,0,0,0,0-1.016l-.964,0a.506.506,0,0,0-.325.147L3.165,63.847s0-2.54,0-2.553a.508.508,0,0,0-.506-.463H1.212a.2.2,0,0,1-.2-.2V51.97a.2.2,0,0,1,.2-.2H15.655a.2.2,0,0,1,.2.2v3.324a.508.508,0,1,0,1.016,0V51.97A1.214,1.214,0,0,0,15.655,50.758Z" transform="translate(0 -50.758)"/></g><g transform="translate(8.996 6.212)"><path class="a" d="M225.245,198.492h-10.11a1.214,1.214,0,0,0-1.212,1.212v5.911a1.214,1.214,0,0,0,1.212,1.212h6.329l2.564,2.564a.508.508,0,0,0,.867-.359v-2.205h.349a1.214,1.214,0,0,0,1.212-1.212V199.7A1.214,1.214,0,0,0,225.245,198.492Zm.2,7.124a.2.2,0,0,1-.2.2h-.857a.508.508,0,0,0-.506.469c0,.011,0,1.526,0,1.526l-1.844-1.844-.006-.006-.021-.019a.505.505,0,0,0-.334-.126h-6.54a.2.2,0,0,1-.2-.2V199.7a.2.2,0,0,1,.2-.2h10.11a.2.2,0,0,1,.2.2Z" transform="translate(-213.923 -198.492)"/></g><g transform="translate(14.755 9.873)"><path class="a" d="M351.394,285.53a.508.508,0,1,0,.508.508A.508.508,0,0,0,351.394,285.53Z" transform="translate(-350.886 -285.53)"/></g><g transform="translate(3.304 3.358)"><g transform="translate(0 0)"><path class="a" d="M88.324,130.611H79.08a.508.508,0,1,0,0,1.016h9.244a.508.508,0,1,0,0-1.016Z" transform="translate(-78.572 -130.611)"/></g></g><g transform="translate(3.304 6.716)"><g transform="translate(0 0)"><path class="a" d="M82.588,210.465H79.08a.508.508,0,1,0,0,1.016h3.508a.508.508,0,1,0,0-1.016Z" transform="translate(-78.572 -210.465)"/></g></g><g transform="translate(12.395 9.873)"><path class="a" d="M295.267,285.53a.508.508,0,1,0,.508.508A.508.508,0,0,0,295.267,285.53Z" transform="translate(-294.759 -285.53)"/></g><g transform="translate(17.115 9.873)"><path class="a" d="M407.509,285.53a.508.508,0,1,0,.508.508A.508.508,0,0,0,407.509,285.53Z" transform="translate(-407.001 -285.53)"/></g></svg>