<svg xmlns="http://www.w3.org/2000/svg" width="47.883" height="41.177" viewBox="0 0 47.883 41.177"><defs><style>.a{fill:#fd7d7d;}</style></defs><g transform="translate(0.002 -35.857)"><g transform="translate(-0.002 35.857)"><g transform="translate(0 0)"><path class="a" d="M47.264,70.512,27.624,37.938a4.3,4.3,0,0,0-7.368,0L.616,70.512A4.3,4.3,0,0,0,4.3,77.035H43.58a4.3,4.3,0,0,0,3.684-6.523Zm-2.652,2.8a1.186,1.186,0,0,1-1.032.6H4.3a1.184,1.184,0,0,1-1.014-1.8l19.64-32.572a1.184,1.184,0,0,1,2.028,0l19.64,32.572a1.185,1.185,0,0,1,.017,1.193Z" transform="translate(0.002 -35.857)"/></g></g><g transform="translate(21.844 48.669)"><path class="a" d="M235.689,173c-1.186,0-2.111.636-2.111,1.764,0,3.442.4,8.388.4,11.829,0,.9.781,1.273,1.706,1.273.694,0,1.678-.376,1.678-1.273,0-3.442.4-8.388.4-11.829A1.858,1.858,0,0,0,235.689,173Z" transform="translate(-233.578 -172.989)"/></g><g transform="translate(21.755 65.544)"><path class="a" d="M234.879,353.306a2.229,2.229,0,1,0,2.229,2.229A2.229,2.229,0,0,0,234.879,353.306Z" transform="translate(-232.65 -353.306)"/></g></g></svg>