<svg xmlns="http://www.w3.org/2000/svg" width="17.448" height="17.448" viewBox="0 0 17.448 17.448"><defs><style>.a{fill:#535353;}</style></defs><path class="a" d="M15.914,0H1.533A1.535,1.535,0,0,0,0,1.533V15.914a1.535,1.535,0,0,0,1.533,1.533H15.914a1.535,1.535,0,0,0,1.533-1.533V1.533A1.535,1.535,0,0,0,15.914,0Zm.511,15.914a.512.512,0,0,1-.511.511H1.533a.512.512,0,0,1-.511-.511V5.112h15.4Zm0-11.825H1.022V1.533a.512.512,0,0,1,.511-.511H15.914a.512.512,0,0,1,.511.511Z"/><g transform="translate(1.724 1.724)"><g transform="translate(0 0)"><circle class="a" cx="1" cy="1" r="1"/></g></g><g transform="translate(4.724 1.724)"><circle class="a" cx="1" cy="1" r="1"/></g><g transform="translate(2.045 6.134)"><path class="a" d="M72.636,180H60.511a.511.511,0,0,0-.511.511v4.157a.511.511,0,0,0,.511.511H72.636a.511.511,0,0,0,.511-.511v-4.157A.511.511,0,0,0,72.636,180Zm-.511,4.158h-11.1v-3.135h11.1Z" transform="translate(-60 -180)"/></g><g transform="translate(2.045 12.336)"><path class="a" d="M72.847,362H60.511a.511.511,0,1,0,0,1.022H72.847a.511.511,0,1,0,0-1.022Z" transform="translate(-60 -362)"/></g><g transform="translate(2.045 14.381)"><path class="a" d="M72.847,422H60.511a.511.511,0,0,0,0,1.022H72.847a.511.511,0,0,0,0-1.022Z" transform="translate(-60 -422)"/></g></svg>