<svg xmlns="http://www.w3.org/2000/svg" width="17.865" height="17.865" viewBox="0 0 17.865 17.865"><defs><style>.a{fill:#61c9a8;}</style></defs><g transform="translate(3.49)"><path class="a" d="M110.3,2.82a3.167,3.167,0,0,0-2.269-1.315L107.28,0h-3.624L102.9,1.505a3.207,3.207,0,0,0-2.721,4.166v0a6.179,6.179,0,0,1,2.444-2.229l.472.934a5.114,5.114,0,0,0-1.673,7.778,9.174,9.174,0,0,0,4.042.723,10.5,10.5,0,0,0,3.173-.443,5.227,5.227,0,0,0,.966-.4,5.114,5.114,0,0,0-1.77-7.654l.472-.934a6.18,6.18,0,0,1,2.444,2.229v0A3.171,3.171,0,0,0,110.3,2.82Zm-4.311,8.124h-1.047V9.9h1.047Z" transform="translate(-100.026)"/></g><g transform="translate(4.498 13.069)"><path class="a" d="M137.782,379.356l-.028-4.8a10.17,10.17,0,0,1-4.407.853,12.5,12.5,0,0,1-3.48-.439,6.347,6.347,0,0,1-.927-.343l-.027,4.725h3.911V376.75h1.047v2.605Z" transform="translate(-128.913 -374.56)"/></g><g transform="translate(0 7.079)"><path class="a" d="M.74,202.891l-.74.74,1.113,1.113L0,205.857l.74.74,1.853-1.853Z" transform="translate(0 -202.891)"/></g><g transform="translate(15.272 7.079)"><path class="a" d="M440.271,203.631l-.74-.74-1.853,1.853,1.853,1.853.74-.74-1.113-1.113Z" transform="translate(-437.678 -202.891)"/></g></svg>