<svg xmlns="http://www.w3.org/2000/svg" width="16.199" height="21.598" viewBox="0 0 16.199 21.598"><defs><style>.a{fill:#ff6565;}</style></defs><path class="a" d="M80.153,12.646a12.73,12.73,0,0,0-3.07-7.021C75.857,3.976,74.8,2.551,74.8.451a.451.451,0,0,0-.244-.4.446.446,0,0,0-.468.034,11.444,11.444,0,0,0-4.224,6.1,19.928,19.928,0,0,0-.463,4.563c-1.835-.392-2.251-3.137-2.255-3.167a.45.45,0,0,0-.642-.341c-.1.047-2.362,1.2-2.494,5.794-.009.153-.01.306-.01.46a8.109,8.109,0,0,0,8.1,8.1.063.063,0,0,0,.018,0h.006A8.109,8.109,0,0,0,80.2,13.5C80.2,13.274,80.153,12.646,80.153,12.646ZM72.1,20.7a2.8,2.8,0,0,1-2.7-2.876c0-.054,0-.109,0-.175a3.648,3.648,0,0,1,.284-1.429,1.643,1.643,0,0,0,1.486,1.076.45.45,0,0,0,.45-.45A9,9,0,0,1,71.8,14.8a4.351,4.351,0,0,1,.911-1.725,5.8,5.8,0,0,0,.928,1.7,5.127,5.127,0,0,1,1.153,2.809c.006.077.011.155.011.239A2.8,2.8,0,0,1,72.1,20.7Z" transform="translate(-64 0)"/></svg>