<svg xmlns="http://www.w3.org/2000/svg" width="19.142" height="17.824" viewBox="0 0 19.142 17.824"><defs><style>.a{fill:#fff;}</style></defs><g transform="translate(0 0)"><path class="a" d="M18.821,25.1l-2.9-2.9V18.849a1.1,1.1,0,0,0-2.194,0v1.157l-2.16-2.16a2.886,2.886,0,0,0-3.99,0L.322,25.1a1.1,1.1,0,1,0,1.552,1.552L9.127,19.4a.648.648,0,0,1,.888,0l7.254,7.254A1.1,1.1,0,1,0,18.821,25.1Z" transform="translate(-0.001 -17.047)"/><path class="a" d="M75.927,127.906a.539.539,0,0,0-.762,0l-6.38,6.378a.54.54,0,0,0-.158.382v4.652a1.977,1.977,0,0,0,1.977,1.977h3.159V136.4h3.566v4.892h3.159a1.977,1.977,0,0,0,1.977-1.977v-4.652a.538.538,0,0,0-.158-.382Z" transform="translate(-65.975 -123.47)"/></g></svg>