<svg xmlns="http://www.w3.org/2000/svg" width="19.057" height="19.057" viewBox="0 0 19.057 19.057"><defs><style>.a{fill:#e87ea1;}</style></defs><path class="a" d="M9.528,0a9.528,9.528,0,1,0,9.528,9.528A9.539,9.539,0,0,0,9.528,0Zm0,17.884a8.356,8.356,0,1,1,8.356-8.356A8.365,8.365,0,0,1,9.528,17.884Z"/><circle class="a" cx="0.981" cy="0.981" r="0.981" transform="translate(8.7 4.748)"/><path class="a" d="M30.723,28.342a.587.587,0,0,0-.586.586v4.984a.586.586,0,0,0,1.173,0V28.928A.586.586,0,0,0,30.723,28.342Z" transform="translate(-21.301 -20.033)"/></svg>