<svg xmlns="http://www.w3.org/2000/svg" width="24.326" height="24.326" viewBox="0 0 24.326 24.326"><defs><style>.a{fill:#fff;}</style></defs><path class="a" d="M17.613,0H6.713A6.721,6.721,0,0,0,0,6.713v10.9a6.721,6.721,0,0,0,6.713,6.713h10.9a6.721,6.721,0,0,0,6.713-6.713V6.713A6.721,6.721,0,0,0,17.613,0Zm4.555,17.613a4.56,4.56,0,0,1-4.555,4.555H6.713a4.56,4.56,0,0,1-4.555-4.555V6.713A4.56,4.56,0,0,1,6.713,2.158h10.9a4.56,4.56,0,0,1,4.555,4.555v10.9Z"/><path class="a" d="M47.236,40.97A6.268,6.268,0,1,0,53.5,47.238,6.275,6.275,0,0,0,47.236,40.97Zm0,10.378a4.11,4.11,0,1,1,4.11-4.11A4.114,4.114,0,0,1,47.236,51.348Z" transform="translate(-35.073 -35.075)"/><path class="a" d="M120.5,28.251a1.582,1.582,0,1,0,1.119.463A1.589,1.589,0,0,0,120.5,28.251Z" transform="translate(-101.81 -24.186)"/></svg>