<svg xmlns="http://www.w3.org/2000/svg" width="25.802" height="25.716" viewBox="0 0 25.802 25.716"><defs><style>.a{fill:#61c9a8;}</style></defs><path class="a" d="M77.751,62.862a6.868,6.868,0,0,0-9.712,0c-3.752,3.752-6.235,7.382-7.381,10.789a9.063,9.063,0,0,0-.581,4.385c.226,1.157.372,1.35.761,1.739a2.546,2.546,0,0,0,3.594,0c4.62-4.62,7.226-4.914,9.32-5.151,1.37-.155,2.2-.248,4-2.05a6.867,6.867,0,0,0,0-9.712Zm-1.634,6.872a3.131,3.131,0,1,1,.917-2.214A3.111,3.111,0,0,1,76.116,69.734Z" transform="translate(-56.984 -57.828)"/><path class="a" d="M22.905,3.749a9.891,9.891,0,0,0-13.988,0C4.833,7.833,2.1,11.859.808,15.712a11.886,11.886,0,0,0-.682,5.93,5.563,5.563,0,0,0,9.461,3.3c3.872-3.872,5.728-4.082,7.522-4.285,1.6-.18,3.247-.367,5.8-2.917a9.891,9.891,0,0,0,0-13.988ZM21.836,16.668c-2.176,2.176-3.377,2.311-4.9,2.483-1.957.221-4.175.472-8.421,4.718a4.057,4.057,0,0,1-6.908-2.517,10.484,10.484,0,0,1,.632-5.158C3.462,12.564,6.068,8.736,9.986,4.818a8.379,8.379,0,0,1,11.85,11.85Z" transform="translate(0 -0.852)"/><path class="a" d="M305.235,161.055a1.62,1.62,0,1,0,1.145.474A1.609,1.609,0,0,0,305.235,161.055Z" transform="translate(-288.317 -152.982)"/></svg>