<svg xmlns="http://www.w3.org/2000/svg" width="25.547" height="23.326" viewBox="0 0 25.547 23.326"><defs><style>.a{fill:#535353;}</style></defs><g transform="translate(0 0)"><g transform="translate(0 0)"><path class="a" d="M83.993,87.555H80.472L78.44,85.333H70.664v3.332H67.332V92H64V103.1a2.228,2.228,0,0,0,2.222,2.222H83.993a2.228,2.228,0,0,0,2.222-2.222V89.776A2.228,2.228,0,0,0,83.993,87.555Zm-8.886,14.44a5.554,5.554,0,1,1,5.554-5.554A5.556,5.556,0,0,1,75.107,101.994Z" transform="translate(-60.668 -82.001)"/><path class="a" d="M3.332,30.219H5.554V26.887H8.886V24.665H5.554V21.333H3.332v3.332H0v2.222H3.332Z" transform="translate(0 -21.333)"/><path class="a" d="M212.62,230.4a3.551,3.551,0,0,0-3.554,3.554h0a3.554,3.554,0,1,0,3.554-3.554Z" transform="translate(-198.181 -219.515)"/></g></g></svg>