<svg xmlns="http://www.w3.org/2000/svg" width="24.002" height="25.603" viewBox="0 0 24.002 25.603"><defs><style>.a{fill:#f9b54d;}</style></defs><path class="a" d="M138,123.622a1.475,1.475,0,0,0-.141-.6,21.406,21.406,0,0,0-2.853.539c0,.021-.006.039-.006.06a1.5,1.5,0,0,0,3,0Zm0,0" transform="translate(-128.253 -116.872)"/><path class="a" d="M63.091,122.073a3.713,3.713,0,0,1-1.674-.395,12.8,12.8,0,0,0-1.366-.57,2.248,2.248,0,0,1-4.46-.4v-.618a20,20,0,0,0-2.251-.135c-.28,0-.565.012-.85.025a2.989,2.989,0,1,1-5.86,1.126,12.786,12.786,0,0,0-1.363.569,3.7,3.7,0,0,1-1.646.386c-.036,0-.07-.014-.106-.015l1.575,2.923v7.74a2.251,2.251,0,0,0,4.442.51l3.148,5.946a.75.75,0,0,0,1.321,0l2.253-4.285a3,3,0,1,1,2.138-3.97l4.764-8.848c-.022,0-.043.009-.066.009Zm-11.25,6.138a2.253,2.253,0,0,1-2.25-2.25.75.75,0,0,1,1.5,0,.75.75,0,0,0,1.5,0,.75.75,0,0,1,1.5,0A2.253,2.253,0,0,1,51.841,128.21Zm4.5-2.25a.75.75,0,1,1,.75-.75A.75.75,0,0,1,56.341,125.96Zm0,0" transform="translate(-41.339 -113.959)"/><path class="a" d="M256.5,330a1.5,1.5,0,1,0,1.5,1.5A1.5,1.5,0,0,0,256.5,330Zm0,0" transform="translate(-242.253 -313.498)"/><path class="a" d="M23.766,5.369A2.254,2.254,0,0,0,22.76,2.35a25.8,25.8,0,0,0-21.514,0A2.253,2.253,0,0,0,.239,5.37,2.292,2.292,0,0,0,3.258,6.376,21.158,21.158,0,0,1,12,4.5a22.19,22.19,0,0,1,3.751.341V6.751a.75.75,0,1,0,1.5,0v-1.6a16.936,16.936,0,0,1,3.494,1.222,2.248,2.248,0,0,0,3.019-1.007Zm0,0" transform="translate(-0.001 0)"/></svg>