<svg xmlns="http://www.w3.org/2000/svg" width="17.147" height="14.86" viewBox="0 0 17.147 14.86"><defs><style>.a{fill:#d9d9d9;}</style></defs><path class="a" d="M13.146,34.133H4a4.005,4.005,0,0,0-4,4v5.144a4.005,4.005,0,0,0,4,4H6a1.143,1.143,0,0,0,0-2.286H4.287a2,2,0,0,1-2-2V38.42a2,2,0,0,1,2-2H12.86a2,2,0,0,1,2,2v4.572a2,2,0,0,1-2,2h-.572V43.564a.286.286,0,0,0-.457-.229L8.4,45.907a.286.286,0,0,0,0,.457l3.429,2.572a.286.286,0,0,0,.457-.229V47.279h.857a4.005,4.005,0,0,0,4-4V38.134A4.005,4.005,0,0,0,13.146,34.133Z" transform="translate(0 -34.133)"/></svg>