<svg xmlns="http://www.w3.org/2000/svg" width="21.965" height="17.24" viewBox="0 0 21.965 17.24"><defs><style>.a{fill:#535353;}</style></defs><g transform="translate(0.001 -28.952)"><path class="a" d="M136.7,32.8a2.009,2.009,0,0,0,.029-.425l.947-.644a1.561,1.561,0,0,1,.938-.124,1.371,1.371,0,0,0,.875-.09.824.824,0,0,0-.4-1.5.823.823,0,0,0-1.252-.922,1.286,1.286,0,0,0-.376.873,1.586,1.586,0,0,1-.478.931l-.908.619a5.358,5.358,0,0,0-2.548.239,12.713,12.713,0,0,1,2.973.956Z" transform="translate(-122.635)"/><path class="a" d="M6.437,84.028h7.53a3.646,3.646,0,0,1-.559-.642,3.723,3.723,0,0,1-.344-3.546A6.32,6.32,0,0,1,15.474,77a9.773,9.773,0,0,1,1.79-.934,10.936,10.936,0,0,0-2.787-.692,18.673,18.673,0,0,0-2.013-.114C8.278,75.257,5,76.894,5,81.111,5,82.548,5.719,84.028,6.437,84.028Z" transform="translate(-4.593 -42.527)"/><path class="a" d="M117.422,57.16c-1.9,1.292-2.744,3.217-1.743,4.689a2.723,2.723,0,0,0,2.343,1.132,5.116,5.116,0,0,0,2.818-.943c1.628-1.109,3.279-3.794,3.2-5.337l1.144-.778a1.86,1.86,0,0,1,1.134-.15,1.546,1.546,0,0,0,1.059-.109.995.995,0,0,0-.482-1.817,1,1,0,0,0-1.514-1.115,1.561,1.561,0,0,0-.454,1.056,1.921,1.921,0,0,1-.577,1.127l-1.1.748a3.07,3.07,0,0,0-.8-.091A10.446,10.446,0,0,0,117.422,57.16Z" transform="translate(-105.851 -21.679)"/><path class="a" d="M196.693,141.4l-1.786-.357,0-.019a4.178,4.178,0,0,0-.706-1.658c-.105.2-.207.376-.3.526a9.551,9.551,0,0,1-2.6,2.884l-.075.049h5.325a.719.719,0,0,0,.141-1.425Z" transform="translate(-175.626 -101.406)"/><path class="a" d="M21.191,198.759H.719a.72.72,0,0,0-.648,1.032l.643,1.334a1.8,1.8,0,0,0,1.623,1.02H19.573a1.8,1.8,0,0,0,1.623-1.02l.643-1.334a.72.72,0,0,0-.648-1.032Z" transform="translate(0 -155.953)"/></g></svg>