<svg xmlns="http://www.w3.org/2000/svg" width="20.87" height="14.435" viewBox="0 0 20.87 14.435"><defs><style>.a{fill:#535353;}</style></defs><g transform="translate(0 -76.271)"><path class="a" d="M22.4,88.217H39.818a.817.817,0,0,0,.813-.891,9.565,9.565,0,0,0-7.8-8.512,1.735,1.735,0,0,0,.022-.22c0-.819-.663-2.322-1.747-2.322s-1.747,1.5-1.747,2.322a1.736,1.736,0,0,0,.022.22,9.565,9.565,0,0,0-7.8,8.512.816.816,0,0,0,.813.891Zm8.009-9.623c0-.525.452-1.274.7-1.274s.7.749.7,1.274a.608.608,0,0,1-.019.093c-.225-.016-.45-.032-.68-.032s-.454.016-.68.032A.608.608,0,0,1,30.412,78.593Z" transform="translate(-20.675)"/><path class="a" d="M20,377.01H.873a.873.873,0,0,0,0,1.747H20a.873.873,0,0,0,0-1.747Z" transform="translate(0 -288.051)"/></g></svg>