<svg xmlns="http://www.w3.org/2000/svg" width="18.044" height="18.044" viewBox="0 0 18.044 18.044"><defs><style>.a{fill:#535353;}</style></defs><g transform="translate(5.799)"><path class="a" d="M163.9,0h-8.378a1.933,1.933,0,0,0-1.933,1.933V5.8a.644.644,0,0,0,1.289,0V1.933a.644.644,0,0,1,.644-.644H163.9a.644.644,0,0,1,.644.644V16.111a.644.644,0,0,1-.644.644h-8.378a.644.644,0,0,1-.644-.644V12.244a.644.644,0,0,0-1.289,0v3.867a1.933,1.933,0,0,0,1.933,1.933H163.9a1.933,1.933,0,0,0,1.933-1.933V1.933A1.933,1.933,0,0,0,163.9,0Z" transform="translate(-153.589)"/></g><g transform="translate(0 5.163)"><path class="a" d="M12.9,139.958H2.21l2.122-2.122a.644.644,0,0,0-.911-.911L.2,140.147a.637.637,0,0,0-.139.209.646.646,0,0,0,.14.7l3.222,3.222a.644.644,0,0,0,.927-.9l-.016-.016L2.21,141.247H12.9a.644.644,0,1,0,0-1.289Z" transform="translate(-0.011 -136.744)"/></g></svg>