<?xml version="1.0" encoding="utf-8"?>
<!-- Generator: Adobe Illustrator 22.1.0, SVG Export Plug-In . SVG Version: 6.00 Build 0)  -->
<svg version="1.1" id="Layer_1" xmlns="http://www.w3.org/2000/svg" xmlns:xlink="http://www.w3.org/1999/xlink" x="0px" y="0px"
	 viewBox="0 0 15.4 20.2" style="enable-background:new 0 0 15.4 20.2;" xml:space="preserve">
<style type="text/css">
	.st0{fill:none;}
	.st1{fill:#535353;}
</style>
<g transform="translate(1.501)">
	<g transform="translate(2.37)">
		<circle class="st0" cx="4.5" cy="4.5" r="4.5"/>
		<path class="st1" d="M3.8,9C1.3,9-0.7,7-0.7,4.5S1.3,0,3.8,0s4.5,2,4.5,4.5S6.3,9,3.8,9z M3.8,3C3,3,2.3,3.7,2.3,4.5S3,6,3.8,6
			s1.5-0.7,1.5-1.5S4.7,3,3.8,3z"/>
	</g>
	<path class="st1" d="M0,20.2c-0.8,0-1.5-0.7-1.5-1.5v-4.2c0-0.2,0-2.3,1.4-3.8c0.6-0.6,1.7-1.3,3.5-1.3c0.8,0,1.5,0.7,1.5,1.5
		c0,0.8-0.7,1.5-1.5,1.5c-0.6,0-1,0.1-1.3,0.4c-0.5,0.5-0.6,1.4-0.6,1.7v4.2C1.5,19.6,0.8,20.2,0,20.2z"/>
	<path class="st1" d="M12.4,20.2c-0.8,0-1.5-0.7-1.5-1.5v-4.2c0-0.3-0.1-1.2-0.6-1.7C10,12.5,9.6,12.4,9,12.4
		c-0.8,0-1.5-0.7-1.5-1.5c0-0.8,0.7-1.5,1.5-1.5c1.8,0,2.9,0.7,3.5,1.3c1.4,1.5,1.4,3.6,1.4,3.8v4.2C13.9,19.6,13.2,20.2,12.4,20.2z
		"/>
</g>
</svg>
