<svg xmlns="http://www.w3.org/2000/svg" width="13.748" height="16.478" viewBox="0 0 13.748 16.478"><defs><style>.a{fill:#535353;}</style></defs><path class="a" d="M91,7.938a3.84,3.84,0,0,0,2.806-1.163A3.841,3.841,0,0,0,94.97,3.969a3.841,3.841,0,0,0-1.163-2.806,3.968,3.968,0,0,0-5.612,0,3.84,3.84,0,0,0-1.163,2.806,3.841,3.841,0,0,0,1.163,2.806A3.842,3.842,0,0,0,91,7.938ZM88.877,1.846a3,3,0,0,1,4.247,0A2.869,2.869,0,0,1,94,3.969a2.869,2.869,0,0,1-.88,2.123,3,3,0,0,1-4.247,0A2.869,2.869,0,0,1,88,3.969a2.869,2.869,0,0,1,.88-2.123Zm0,0" transform="translate(-84.231 0)"/><path class="a" d="M13.714,252.028a9.8,9.8,0,0,0-.134-1.041,8.2,8.2,0,0,0-.256-1.047,5.171,5.171,0,0,0-.43-.976,3.681,3.681,0,0,0-.649-.846,2.861,2.861,0,0,0-.932-.586,3.221,3.221,0,0,0-1.19-.215,1.208,1.208,0,0,0-.645.274c-.193.126-.42.272-.672.433a3.85,3.85,0,0,1-.869.383,3.377,3.377,0,0,1-2.127,0,3.84,3.84,0,0,1-.869-.383c-.25-.16-.476-.306-.673-.433a1.206,1.206,0,0,0-.645-.274,3.217,3.217,0,0,0-1.19.216,2.859,2.859,0,0,0-.932.586,3.682,3.682,0,0,0-.649.846,5.18,5.18,0,0,0-.43.976,8.223,8.223,0,0,0-.256,1.047,9.736,9.736,0,0,0-.134,1.042C.011,252.343,0,252.67,0,253a2.736,2.736,0,0,0,.813,2.07,2.925,2.925,0,0,0,2.094.764h7.934a2.925,2.925,0,0,0,2.094-.764,2.735,2.735,0,0,0,.813-2.07c0-.332-.011-.66-.033-.973Zm-1.445,2.344a1.969,1.969,0,0,1-1.428.5H2.907a1.969,1.969,0,0,1-1.428-.5A1.787,1.787,0,0,1,.965,253c0-.309.01-.614.031-.906a8.782,8.782,0,0,1,.121-.938,7.253,7.253,0,0,1,.225-.923,4.218,4.218,0,0,1,.35-.794,2.729,2.729,0,0,1,.477-.625,1.9,1.9,0,0,1,.62-.386,2.222,2.222,0,0,1,.76-.147c.034.018.094.052.192.116.2.129.427.277.68.439a4.784,4.784,0,0,0,1.091.488,4.341,4.341,0,0,0,2.721,0,4.79,4.79,0,0,0,1.092-.488c.259-.165.481-.309.68-.438.1-.063.158-.1.192-.116a2.223,2.223,0,0,1,.761.147,1.9,1.9,0,0,1,.62.386,2.722,2.722,0,0,1,.477.625,4.2,4.2,0,0,1,.35.794,7.236,7.236,0,0,1,.225.923,8.855,8.855,0,0,1,.121.938h0c.02.292.031.6.031.906a1.787,1.787,0,0,1-.513,1.37Zm0,0" transform="translate(0 -239.357)"/></svg>